<?xml version="1.0" standalone="no"?>
<!DOCTYPE svg PUBLIC "-//W3C//DTD SVG 1.1//EN" "http://www.w3.org/Graphics/SVG/1.1/DTD/svg11.dtd" >
<svg xmlns="http://www.w3.org/2000/svg" xmlns:xlink="http://www.w3.org/1999/xlink" version="1.1">
<metadata>
Created by FontForge 20170910 at Fri Aug  8 17:10:08 2014
 By jimmywarting
Please contact us to learn more about license restrictions.
</metadata>
<defs>
<font id="SofiaPro-Black" horiz-adv-x="580" >
  <font-face 
    font-family="Sofia Pro Black"
    font-weight="900"
    font-stretch="normal"
    units-per-em="1000"
    panose-1="2 11 0 0 0 0 0 0 0 0"
    ascent="750"
    descent="-250"
    x-height="466"
    cap-height="689"
    bbox="-186 -302 1207 1138"
    underline-thickness="50"
    underline-position="-100"
    unicode-range="U+0020-FB04"
  />
<missing-glyph horiz-adv-x="635" 
d="M555 0h-475v665h475v-665zM185 431h62c0 49 31 83 74 83s80 -30 80 -73c0 -20 -8 -37 -24 -50c-10 -11 -21 -18 -33 -21c-60 -17 -93 -47 -93 -110v-38h62v38c0 29 17 41 50 50c57 17 99 67 99 131c0 40 -14 72 -42 97c-27 25 -60 38 -99 38c-38 0 -70 -13 -97 -40
c-26 -27 -39 -62 -39 -105zM283 88c24 0 45 19 45 43s-21 43 -45 43c-25 0 -46 -19 -46 -43s21 -43 46 -43z" />
    <glyph glyph-name="f_f" unicode="ff" horiz-adv-x="797" 
d="M746 711h60v-151h-60c-39 0 -64 -26 -65 -77v-17h98v-117h-98v-349h-159v349h-256v-349h-159v349h-87v117h87v17c0 148 84 228 224 228h60v-151h-60c-39 0 -64 -26 -65 -77v-17h256v17c0 148 84 228 224 228z" />
    <glyph glyph-name="fi" unicode="fi" horiz-adv-x="728" 
d="M510 0v349h-244v-349h-159v349h-87v117h87v17c0 148 84 228 224 228h60v-151h-60c-39 0 -64 -26 -65 -77v-17h263h140v-466h-159zM493 621c0 51 44 90 96 90c53 0 95 -39 95 -90s-42 -91 -95 -91c-52 0 -96 42 -96 91z" />
    <glyph glyph-name="fl" unicode="fl" horiz-adv-x="712" 
d="M493 0v560h-162c-39 0 -64 -26 -65 -77v-17h98v-117h-98v-349h-159v349h-87v117h87v17c0 148 84 228 224 228h321v-711h-159z" />
    <glyph glyph-name="f_f_i" unicode="ffi" horiz-adv-x="1143" 
d="M1084 0h-159v349h-244v-349h-159v349h-256v-349h-159v349h-87v117h87v17c0 148 84 228 224 228h60v-151h-60c-39 0 -64 -26 -65 -77v-17h256v17c0 148 84 228 224 228h60v-151h-60c-39 0 -64 -26 -65 -77v-17h403v-466zM908 621c0 51 44 90 96 90c53 0 95 -39 95 -90
s-42 -91 -95 -91c-52 0 -96 42 -96 91z" />
    <glyph glyph-name="f_f_l" unicode="ffl" horiz-adv-x="1127" 
d="M1067 0h-159v560h-162c-39 0 -64 -26 -65 -77v-17h98v-117h-98v-349h-159v349h-256v-349h-159v349h-87v117h87v17c0 148 84 228 224 228h60v-151h-60c-39 0 -64 -26 -65 -77v-17h256v17c0 148 84 228 224 228h321v-711z" />
    <glyph glyph-name="f_f_j" unicode="ffj" horiz-adv-x="1121" 
d="M838 -237h-60v151h60c39 0 64 26 65 77v358h-222v-349h-159v349h-256v-349h-159v349h-87v117h87v17c0 148 84 228 224 228h60v-151h-60c-39 0 -64 -26 -65 -77v-17h256v17c0 148 84 228 224 228h60v-151h-60c-39 0 -64 -26 -65 -77v-17h381v-475
c0 -148 -84 -228 -224 -228zM887 621c0 51 44 90 96 90c53 0 95 -39 95 -90s-42 -91 -95 -91c-52 0 -96 42 -96 91z" />
    <glyph glyph-name="f_j" unicode="fj" horiz-adv-x="706" 
d="M423 -237h-60v151h60c39 0 64 26 65 77v358h-222v-349h-159v349h-87v117h87v17c0 148 84 228 224 228h60v-151h-60c-39 0 -64 -26 -65 -77v-17h381v-475c0 -148 -84 -228 -224 -228zM472 621c0 51 44 90 96 90c53 0 95 -39 95 -90s-42 -91 -95 -91c-52 0 -96 42 -96 91z
" />
    <glyph glyph-name=".notdef" horiz-adv-x="635" 
d="M555 0h-475v665h475v-665zM185 431h62c0 49 31 83 74 83s80 -30 80 -73c0 -20 -8 -37 -24 -50c-10 -11 -21 -18 -33 -21c-60 -17 -93 -47 -93 -110v-38h62v38c0 29 17 41 50 50c57 17 99 67 99 131c0 40 -14 72 -42 97c-27 25 -60 38 -99 38c-38 0 -70 -13 -97 -40
c-26 -27 -39 -62 -39 -105zM283 88c24 0 45 19 45 43s-21 43 -45 43c-25 0 -46 -19 -46 -43s21 -43 46 -43z" />
    <glyph glyph-name="NULL" horiz-adv-x="0" 
 />
    <glyph glyph-name="CR" horiz-adv-x="333" 
 />
    <glyph glyph-name="space" unicode=" " horiz-adv-x="238" 
 />
    <glyph glyph-name="exclam" unicode="!" horiz-adv-x="295" 
d="M213 231h-131l-18 458h167zM52 84c0 52 42 91 94 91c53 0 96 -39 96 -91c0 -53 -43 -93 -96 -93c-52 0 -94 40 -94 93z" />
    <glyph glyph-name="quotedbl" unicode="&#x22;" horiz-adv-x="414" 
d="M184 689l-20 -301h-89l-20 301h129zM359 689l-20 -301h-89l-20 301h129z" />
    <glyph glyph-name="numbersign" unicode="#" horiz-adv-x="751" 
d="M397 255l54 165h-100l-53 -165h99zM534 689h119l-55 -174h119l-27 -95h-119l-53 -165h119l-29 -95h-118l-54 -160h-118l52 160h-100l-53 -160h-118l54 160h-118l27 95h117l52 165h-116l28 95h117l53 174h121l-54 -174h99z" />
    <glyph glyph-name="dollar" unicode="$" horiz-adv-x="584" 
d="M254 696v109h77v-110c116 -16 194 -93 194 -212h-167c0 43 -24 64 -72 64c-45 0 -73 -22 -73 -55c0 -25 21 -43 64 -56l79 -25c127 -39 191 -109 191 -210c0 -63 -21 -111 -63 -146s-93 -55 -153 -61v-120h-77v119c-133 13 -216 93 -216 212h169c3 -40 30 -67 85 -67
c47 0 85 22 85 62c0 6 -1 11 -2 15c-3 8 -26 29 -67 42l-81 27c-155 42 -179 140 -180 203c0 57 19 104 57 142c39 38 89 60 150 67z" />
    <glyph glyph-name="percent" unicode="%" horiz-adv-x="699" 
d="M465 656h95l-330 -656h-94zM302 535c0 -37 -13 -69 -39 -95c-26 -25 -58 -38 -95 -38s-69 13 -95 38c-25 26 -38 58 -38 95s13 69 38 95c26 26 58 39 95 39s69 -13 95 -40c26 -26 39 -57 39 -94zM216 535c0 25 -21 48 -48 48s-47 -21 -47 -48s20 -47 47 -47s48 20 48 47z
M435 29c-25 26 -38 58 -38 95s13 69 38 95c26 26 58 39 95 39s69 -13 95 -39s39 -58 39 -95s-13 -69 -39 -95c-26 -25 -58 -38 -95 -38s-69 13 -95 38zM496 158c-17 -19 -17 -49 0 -68c19 -17 49 -17 68 0c19 19 19 49 0 68s-49 19 -68 0z" />
    <glyph glyph-name="ampersand" unicode="&#x26;" horiz-adv-x="709" 
d="M267 -10c-65 0 -118 18 -157 55s-59 85 -59 144c0 88 51 149 119 168c-57 11 -102 75 -102 152c0 50 19 93 58 128c39 36 90 56 151 60c87 6 157 -22 210 -85l-120 -96c-15 18 -32 27 -52 27c-45 0 -70 -31 -70 -58c0 -11 1 -18 9 -38c9 -19 34 -31 70 -31h90v71h147v-76
h86v-117h-86v-83c0 -95 23 -121 106 -78v-118c-117 -44 -203 -23 -226 65c-15 -27 -40 -49 -74 -66c-34 -16 -67 -24 -100 -24zM414 267v17h-95c-53 0 -87 -34 -88 -70c0 -35 33 -69 88 -69c22 0 98 16 95 122z" />
    <glyph glyph-name="quotesingle" unicode="'" horiz-adv-x="239" 
d="M184 689l-20 -301h-89l-20 301h129z" />
    <glyph glyph-name="parenleft" unicode="(" horiz-adv-x="398" 
d="M34 226c0 132 32 243 97 334s144 137 237 137v-116c-30 0 -61 -18 -93 -54c-32 -35 -59 -81 -80 -137c-21 -55 -31 -110 -31 -164c0 -53 10 -107 31 -161s48 -98 79 -132c32 -34 63 -51 94 -51v-115c-93 0 -172 44 -237 132c-65 87 -97 196 -97 327z" />
    <glyph glyph-name="parenright" unicode=")" horiz-adv-x="398" 
d="M364 226c0 -131 -32 -240 -97 -327c-65 -88 -144 -132 -237 -132v115c31 0 62 17 93 51c32 34 58 78 79 132s32 108 32 161c0 54 -11 109 -32 164c-21 56 -47 102 -79 137c-32 36 -63 54 -93 54v116c93 0 171 -46 236 -137s98 -202 98 -334z" />
    <glyph glyph-name="asterisk" unicode="*" horiz-adv-x="472" 
d="M238 450l-76 -110l-76 58l82 101l-126 36l31 93l121 -48l-8 131h100l-9 -130l123 47l29 -93l-125 -34l83 -104l-78 -55z" />
    <glyph glyph-name="plus" unicode="+" horiz-adv-x="503" 
d="M457 289v-108h-152v-152h-108v152h-151v108h151v151h108v-151h152z" />
    <glyph glyph-name="comma" unicode="," horiz-adv-x="275" 
d="M79 -123l-82 40c27 37 47 72 59 105c13 33 19 79 19 136h141c0 -111 -46 -204 -137 -281z" />
    <glyph glyph-name="hyphen" unicode="-" horiz-adv-x="471" 
d="M413 310v-135h-355v135h355z" />
    <glyph glyph-name="period" unicode="." horiz-adv-x="288" 
d="M49 84c0 52 42 91 94 91c53 0 96 -39 96 -91c0 -53 -43 -93 -96 -93c-52 0 -94 40 -94 93z" />
    <glyph glyph-name="slash" unicode="/" horiz-adv-x="501" 
d="M145 0h-116l327 689h116z" />
    <glyph glyph-name="zero" unicode="0" horiz-adv-x="604" 
d="M215 327c0 -108 28 -182 89 -182c57 0 85 61 85 182c0 123 -28 184 -85 184c-61 0 -89 -75 -89 -184zM55 327c0 226 83 339 249 339c92 0 159 -35 194 -99c36 -64 51 -140 51 -240c0 -224 -82 -336 -245 -336c-166 0 -249 112 -249 336z" />
    <glyph glyph-name="one" unicode="1" horiz-adv-x="396" 
d="M36 394v137l278 140v-671h-163v446z" />
    <glyph glyph-name="two" unicode="2" horiz-adv-x="568" 
d="M296 144h213v-144h-461v90l271 314c20 23 30 43 30 60c0 28 -21 53 -69 53c-53 0 -74 -33 -83 -89l-144 22c21 135 107 216 239 216c59 0 110 -19 153 -57s64 -86 64 -145s-23 -114 -68 -164z" />
    <glyph glyph-name="three" unicode="3" horiz-adv-x="549" 
d="M243 278h-67v123h67c31 0 52 13 60 32c8 20 9 30 9 41s-6 23 -18 37c-11 15 -28 22 -50 22c-33 0 -63 -14 -89 -41l-94 77c41 63 121 102 210 97c58 -3 106 -22 144 -59c38 -36 56 -78 55 -126c0 -53 -29 -96 -86 -127c72 -27 115 -86 115 -158c0 -63 -25 -113 -74 -150
c-49 -36 -109 -54 -179 -54c-96 0 -176 45 -212 121l102 90c16 -36 54 -72 110 -72c63 0 95 34 95 75c0 40 -34 72 -98 72z" />
    <glyph glyph-name="four" unicode="4" horiz-adv-x="630" 
d="M504 283h78v-131h-78v-152h-162v152h-323l283 504h202v-373zM342 283v219l-117 -219h117z" />
    <glyph glyph-name="five" unicode="5" horiz-adv-x="604" 
d="M400 239c0 57 -45 92 -109 92c-62 0 -116 -23 -162 -70l-69 39l52 356h398v-139h-272l-14 -89c35 24 76 36 121 36c59 0 110 -21 151 -62s62 -96 62 -163c0 -72 -26 -132 -77 -179s-118 -70 -203 -70c-45 0 -89 11 -132 34s-79 54 -106 91l124 90c36 -43 74 -64 114 -64
c34 0 63 10 86 31c24 21 36 43 36 67z" />
    <glyph glyph-name="six" unicode="6" horiz-adv-x="598" 
d="M347 421c40 0 85 -15 129 -44s76 -89 76 -162c0 -66 -22 -120 -66 -162c-44 -41 -106 -62 -185 -62c-63 0 -117 21 -161 62c-43 41 -70 97 -79 167c-27 201 17 453 271 446c93 -4 163 -35 208 -128l-130 -62c-16 34 -44 51 -83 51c-47 0 -81 -25 -98 -64
c-16 -39 -24 -75 -24 -115c8 32 58 73 142 73zM228 212c0 -44 33 -79 82 -79s84 35 84 79c0 39 -33 76 -84 76c-47 0 -82 -37 -82 -76z" />
    <glyph glyph-name="seven" unicode="7" horiz-adv-x="549" 
d="M299 511h-259v145h496l-262 -656h-180z" />
    <glyph glyph-name="eight" unicode="8" horiz-adv-x="611" 
d="M211 220c0 -49 39 -86 96 -86s95 37 95 86c0 44 -39 84 -90 84h-8c-55 0 -93 -39 -93 -84zM90 487c0 51 21 94 64 128s94 51 153 51s108 -17 149 -51c41 -33 61 -76 61 -128c0 -49 -22 -101 -58 -118c29 -9 54 -30 75 -63s31 -67 31 -102c0 -63 -25 -114 -75 -154
c-50 -39 -111 -59 -183 -59s-133 20 -184 59c-50 40 -75 91 -75 154c0 75 38 142 102 165c-36 23 -60 73 -60 118zM240 481c0 -35 27 -60 67 -60c39 0 65 25 65 60c0 29 -26 58 -61 58h-6c-37 0 -65 -27 -65 -58z" />
    <glyph glyph-name="nine" unicode="9" horiz-adv-x="598" 
d="M252 236c-40 0 -85 15 -129 44s-76 89 -76 162c0 66 22 120 66 161c44 42 106 63 185 63c63 0 117 -21 160 -62c44 -41 71 -97 80 -167c27 -201 -17 -453 -271 -446c-93 4 -163 35 -208 128l130 62c16 -34 44 -51 83 -51c47 0 81 25 97 64c17 39 25 75 25 115
c-8 -32 -58 -73 -142 -73zM371 445c0 44 -33 79 -82 79s-84 -35 -84 -79c0 -39 33 -76 84 -76c47 0 82 37 82 76z" />
    <glyph glyph-name="colon" unicode=":" horiz-adv-x="309" 
d="M60 84c0 52 42 91 94 91s94 -39 94 -91c0 -53 -42 -93 -94 -93s-94 40 -94 93zM60 384c0 53 42 93 94 93s94 -40 94 -93c0 -52 -42 -91 -94 -91s-94 39 -94 91z" />
    <glyph glyph-name="semicolon" unicode=";" horiz-adv-x="300" 
d="M61 384c0 53 42 93 94 93s94 -40 94 -93c0 -52 -42 -91 -94 -91s-94 39 -94 91zM92 -123l-82 40c27 37 47 72 59 105c13 33 19 79 19 136h141c0 -111 -46 -204 -137 -281z" />
    <glyph glyph-name="less" unicode="&#x3c;" horiz-adv-x="616" 
d="M543 176v-116l-500 192v122l500 191v-115l-353 -138z" />
    <glyph glyph-name="equal" unicode="=" horiz-adv-x="592" 
d="M526 165h-460v102h460v-102zM66 471h460v-102h-460v102z" />
    <glyph glyph-name="greater" unicode="&#x3e;" horiz-adv-x="616" 
d="M573 374v-122l-500 -192v116l353 136l-353 138v115z" />
    <glyph glyph-name="question" unicode="?" horiz-adv-x="496" 
d="M280 231h-143v12c0 47 2 70 15 105s42 60 89 80l37 16c23 9 34 26 34 50c0 35 -26 54 -66 54c-35 0 -64 -27 -64 -64h-144c0 139 82 215 211 215c63 0 114 -18 153 -53s58 -83 58 -142c0 -95 -48 -160 -128 -189c-40 -15 -52 -36 -52 -84zM116 84c0 52 42 91 94 91
c53 0 96 -39 96 -91c0 -53 -43 -93 -96 -93c-52 0 -94 40 -94 93z" />
    <glyph glyph-name="at" unicode="@" horiz-adv-x="963" 
d="M577 150v125c0 31 -11 58 -33 79c-21 22 -47 33 -78 33c-30 0 -56 -11 -78 -33c-22 -21 -33 -48 -33 -79c0 -29 11 -55 33 -77s48 -33 78 -33c29 0 52 5 71 16v-98c-17 -9 -41 -13 -71 -13c-57 0 -106 20 -147 60c-40 40 -60 88 -60 145c0 58 20 107 60 147
c41 40 90 60 147 60s105 -19 145 -58c40 -38 61 -84 63 -139v-140c0 -40 27 -61 56 -61c39 0 68 30 81 75s19 86 19 129c0 93 -35 170 -104 232c-69 63 -153 94 -250 94c-94 0 -174 -34 -239 -101s-97 -148 -97 -243s32 -175 97 -240s144 -98 239 -98h61v-97h-61
c-121 0 -224 42 -307 126s-125 187 -125 309s42 226 125 311c84 86 186 129 307 129c239 6 455 -186 451 -422c0 -64 -14 -131 -43 -192s-85 -104 -154 -104c-88 0 -153 49 -153 158z" />
    <glyph glyph-name="A" unicode="A" horiz-adv-x="667" 
d="M678 0h-177l-58 158h-217l-58 -158h-179l254 689h182zM400 302l-67 227l-62 -227h129z" />
    <glyph glyph-name="B" unicode="B" horiz-adv-x="644" 
d="M570 504c0 -26 -8 -53 -23 -80s-40 -46 -74 -56c43 -7 76 -26 99 -59s34 -68 34 -105c0 -57 -18 -105 -55 -145c-37 -39 -94 -59 -172 -59h-302v689h282c64 0 115 -17 153 -51c39 -34 58 -79 58 -134zM245 543v-120h90c35 0 58 22 58 57c0 42 -19 63 -56 63h-92zM351 286
h-106v-140h107c49 0 77 32 77 71c0 36 -26 69 -78 69z" />
    <glyph glyph-name="C" unicode="C" horiz-adv-x="707" 
d="M545 245l137 -96c-64 -97 -173 -158 -293 -158c-97 0 -179 34 -248 103s-103 153 -103 250c0 98 34 181 102 250c69 69 152 104 249 104c121 0 230 -61 294 -158c-93 -65 -139 -97 -139 -97c-32 53 -91 87 -155 87c-51 0 -94 -18 -129 -55c-35 -36 -53 -80 -53 -131
s18 -95 53 -131s78 -54 129 -54c65 0 123 33 156 86z" />
    <glyph glyph-name="D" unicode="D" horiz-adv-x="705" 
d="M350 540h-105v-391h105c46 0 82 19 107 56c26 38 39 84 39 138c0 55 -13 101 -39 139c-25 39 -61 58 -107 58zM350 0h-273v689h273c97 0 173 -33 229 -98s84 -147 84 -248c0 -100 -28 -182 -84 -247c-55 -64 -132 -96 -229 -96z" />
    <glyph glyph-name="E" unicode="E" horiz-adv-x="581" 
d="M533 146v-146h-456v689h447v-146h-280v-132h246v-143h-246v-122h289z" />
    <glyph glyph-name="F" unicode="F" horiz-adv-x="545" 
d="M246 267v-267h-169v689h443v-146h-274v-132h217v-144h-217z" />
    <glyph glyph-name="G" unicode="G" horiz-adv-x="756" 
d="M662 576l-124 -105c-39 48 -88 72 -145 72c-52 0 -96 -19 -132 -58s-54 -86 -54 -141s18 -102 54 -142c36 -39 80 -59 132 -59c91 0 143 31 158 92h-193v134h375c0 -127 -31 -221 -92 -284s-144 -94 -248 -94c-99 0 -183 34 -252 103s-103 153 -103 250
c0 98 34 181 103 250s153 104 252 104c109 0 208 -46 269 -122z" />
    <glyph glyph-name="H" unicode="H" horiz-adv-x="701" 
d="M244 417h210v272h170v-689h-170v268h-210v-268h-167v689h167v-272z" />
    <glyph glyph-name="I" unicode="I" horiz-adv-x="321" 
d="M244 0h-167v689h167v-689z" />
    <glyph glyph-name="J" unicode="J" horiz-adv-x="323" 
d="M-97 -211l15 150c23 -8 55 -12 96 -12c43 0 63 32 63 80v682h169v-682c0 -70 -19 -127 -57 -171c-37 -44 -96 -66 -175 -66c-37 0 -74 6 -111 19z" />
    <glyph glyph-name="K" unicode="K" horiz-adv-x="633" 
d="M590 689l-259 -340l322 -349h-229l-180 210v-210h-167v689h167v-197l137 197h209z" />
    <glyph glyph-name="L" unicode="L" horiz-adv-x="518" 
d="M494 146v-146h-417v689h169v-543h248z" />
    <glyph glyph-name="M" unicode="M" horiz-adv-x="913" 
d="M263 689l194 -419l191 419h141l84 -689h-172l-42 371l-139 -291h-126l-140 291l-43 -371h-172l85 689h139z" />
    <glyph glyph-name="N" unicode="N" horiz-adv-x="678" 
d="M434 318v371h167v-689h-146l-211 376v-376h-167v689h151z" />
    <glyph glyph-name="O" unicode="O" horiz-adv-x="779" 
d="M38 344c0 98 34 181 102 250c69 69 152 104 249 104c98 0 181 -35 249 -104c69 -69 103 -152 103 -250c0 -97 -34 -181 -103 -250c-68 -69 -151 -103 -249 -103c-97 0 -179 34 -248 103s-103 153 -103 250zM389 159c51 0 95 18 130 54c36 36 54 80 54 131s-18 95 -54 131
c-36 37 -79 55 -130 55s-94 -18 -129 -55c-35 -36 -53 -80 -53 -131s18 -95 53 -131s78 -54 129 -54z" />
    <glyph glyph-name="P" unicode="P" horiz-adv-x="618" 
d="M244 230v-230h-167v689h285c76 0 134 -23 175 -68s61 -99 61 -162s-20 -117 -61 -162s-99 -67 -175 -67h-118zM354 543h-110v-169h110c100 -5 100 175 0 169z" />
    <glyph glyph-name="Q" unicode="Q" horiz-adv-x="786" 
d="M604 59l64 -108l-116 -69l-72 119c-27 -7 -56 -10 -87 -10c-99 0 -183 34 -252 103s-103 153 -103 250c0 98 34 181 103 250s153 104 252 104s183 -34 252 -103s104 -152 104 -251c0 -113 -56 -218 -145 -285zM342 232l116 68l61 -100c41 37 61 85 61 144
c0 55 -18 101 -55 139c-37 39 -81 58 -132 58c-53 0 -97 -19 -133 -57c-35 -38 -53 -85 -53 -140c0 -87 53 -160 132 -185c11 -5 29 -8 52 -10z" />
    <glyph glyph-name="R" unicode="R" horiz-adv-x="642" 
d="M244 230v-230h-167v689h285c76 0 134 -23 175 -68s61 -99 61 -162c0 -52 -14 -99 -43 -140c-28 -41 -69 -68 -122 -81l168 -238h-194l-148 230h-15zM354 543h-110v-169h110c100 -5 100 175 0 169z" />
    <glyph glyph-name="S" unicode="S" horiz-adv-x="586" 
d="M40 205h169c3 -40 30 -67 85 -67c47 0 85 22 85 62c0 6 -1 11 -2 15c-3 8 -26 29 -67 42l-81 27c-155 42 -179 140 -180 203c0 63 23 113 68 152s103 59 173 59s127 -19 171 -58c44 -38 66 -90 66 -157h-167c0 43 -24 64 -72 64c-45 0 -73 -22 -73 -55
c0 -25 21 -43 64 -56l79 -25c127 -39 191 -109 191 -210c0 -48 -14 -89 -41 -122c-55 -65 -130 -88 -214 -88c-77 0 -139 19 -185 58s-69 91 -69 156z" />
    <glyph glyph-name="T" unicode="T" horiz-adv-x="577" 
d="M205 0v543h-178v146h523v-146h-178v-543h-167z" />
    <glyph glyph-name="U" unicode="U" horiz-adv-x="682" 
d="M69 251v438h168v-438c0 -30 10 -55 31 -74s46 -29 73 -29s51 10 72 29s32 44 32 74v438h168v-438c0 -77 -27 -139 -81 -188c-53 -48 -117 -72 -191 -72s-138 24 -192 72c-53 49 -80 111 -80 188z" />
    <glyph glyph-name="V" unicode="V" horiz-adv-x="592" 
d="M369 0h-147l-210 689h174l110 -420l108 420h176z" />
    <glyph glyph-name="W" unicode="W" horiz-adv-x="883" 
d="M372 590h139l77 -293l120 392h182l-234 -689h-129l-87 335l-84 -335h-130l-232 689h181l119 -392z" />
    <glyph glyph-name="X" unicode="X" horiz-adv-x="677" 
d="M339 498l117 191h200l-218 -323l238 -366h-197l-140 233l-141 -233h-196l237 366l-218 323h202z" />
    <glyph glyph-name="Y" unicode="Y" horiz-adv-x="663" 
d="M415 307v-307h-168v310l-269 379h199l153 -250l156 250h198z" />
    <glyph glyph-name="Z" unicode="Z" horiz-adv-x="602" 
d="M41 0v123l295 421h-282v145h501v-123l-299 -420h299v-146h-514z" />
    <glyph glyph-name="bracketleft" unicode="[" horiz-adv-x="342" 
d="M311 -230h-243v919h243v-108h-114v-700h114v-111z" />
    <glyph glyph-name="backslash" unicode="\" horiz-adv-x="501" 
d="M29 689h116l327 -689h-116z" />
    <glyph glyph-name="bracketright" unicode="]" horiz-adv-x="342" 
d="M31 581v108h243v-919h-243v111h114v700h-114z" />
    <glyph glyph-name="underscore" unicode="_" horiz-adv-x="762" 
d="M705 -34v-107h-648v107h648z" />
    <glyph glyph-name="grave" unicode="`" horiz-adv-x="547" 
d="M267 549l-138 174h148l93 -174h-103z" />
    <glyph glyph-name="a" unicode="a" horiz-adv-x="608" 
d="M389 416v50h159v-466h-159v53c-29 -41 -72 -62 -129 -62c-61 0 -114 22 -159 67s-68 103 -68 176s23 131 68 176s98 68 159 68c49 0 101 -22 129 -62zM223 301c-37 -37 -37 -98 0 -137c39 -37 100 -37 137 0c39 39 39 100 0 137c-37 39 -98 39 -137 0z" />
    <glyph glyph-name="b" unicode="b" horiz-adv-x="609" 
d="M60 711h159v-288c33 37 76 55 129 55c61 0 114 -23 159 -68s68 -103 68 -176s-23 -131 -68 -176s-98 -67 -159 -67c-57 0 -113 25 -138 76v-67h-150v711zM384 164c39 39 39 100 0 137c-37 39 -98 39 -137 0c-37 -37 -37 -98 0 -137c39 -37 100 -37 137 0z" />
    <glyph glyph-name="c" unicode="c" horiz-adv-x="526" 
d="M365 180l133 -74c-51 -77 -120 -115 -206 -115c-72 0 -133 22 -184 67c-50 45 -75 104 -75 176s25 131 76 176s112 68 183 68c85 0 154 -38 205 -115l-130 -78c-19 31 -46 46 -82 46c-53 0 -97 -44 -97 -97s44 -97 97 -97c33 0 60 14 80 43z" />
    <glyph glyph-name="d" unicode="d" horiz-adv-x="608" 
d="M389 423v288h159v-711h-150v67c-25 -51 -81 -76 -138 -76c-61 0 -114 22 -159 67s-68 103 -68 176s23 131 68 176s98 68 159 68c53 0 96 -18 129 -55zM223 301c-37 -37 -37 -98 0 -137c39 -37 100 -37 137 0c39 39 39 100 0 137c-37 39 -98 39 -137 0z" />
    <glyph glyph-name="e" unicode="e" horiz-adv-x="550" 
d="M523 240c0 -8 -1 -25 -3 -51h-334c5 -43 54 -71 107 -71c37 0 67 13 89 39c7 -6 26 -20 56 -41c31 -21 49 -34 54 -38c-44 -58 -114 -87 -211 -87c-69 0 -127 23 -176 68c-48 46 -72 105 -72 177c0 71 24 129 72 174c49 45 107 68 176 68s126 -22 172 -66
c47 -43 70 -101 70 -172zM186 278h186c-13 52 -57 69 -93 69c-11 0 -22 -1 -33 -4c-21 -5 -53 -29 -60 -65z" />
    <glyph glyph-name="f" unicode="f" horiz-adv-x="382" 
d="M331 711h60v-151h-60c-39 0 -64 -26 -65 -77v-17h98v-117h-98v-349h-159v349h-87v117h87v17c0 148 84 228 224 228z" />
    <glyph glyph-name="g" unicode="g" horiz-adv-x="608" 
d="M223 301c-37 -37 -37 -98 0 -137c39 -37 100 -37 137 0c39 39 39 100 0 137c-37 39 -98 39 -137 0zM43 -84l134 54c16 -37 55 -62 103 -62c79 0 123 51 123 150c-25 -45 -73 -67 -143 -67c-61 0 -114 22 -159 67s-68 103 -68 176s23 131 68 176s98 68 159 68
c49 0 101 -22 129 -62v50h159v-407c0 -193 -96 -296 -268 -296c-108 0 -200 62 -237 153z" />
    <glyph glyph-name="h" unicode="h" horiz-adv-x="590" 
d="M219 245v-245h-159v711h159v-318c7 27 25 47 52 62c28 15 54 23 79 23c123 0 186 -82 186 -230v-248h-159v243c0 51 -39 81 -76 81c-43 0 -82 -26 -82 -79z" />
    <glyph glyph-name="i" unicode="i" horiz-adv-x="279" 
d="M60 466h159v-466h-159v466zM43 621c0 51 44 90 96 90c53 0 95 -39 95 -90s-42 -91 -95 -91c-52 0 -96 42 -96 91z" />
    <glyph glyph-name="j" unicode="j" horiz-adv-x="279" 
d="M-5 -237h-60v151h60c39 0 64 26 65 77v17v458h159v-458v-17c0 -148 -84 -228 -224 -228zM44 621c0 51 44 90 96 90c53 0 95 -39 95 -90s-42 -91 -95 -91c-52 0 -96 42 -96 91z" />
    <glyph glyph-name="k" unicode="k" horiz-adv-x="538" 
d="M542 0h-190l-133 168v-168h-159v711h159v-358l91 113h195l-172 -207z" />
    <glyph glyph-name="l" unicode="l" horiz-adv-x="279" 
d="M219 0h-159v711h159v-711z" />
    <glyph glyph-name="m" unicode="m" horiz-adv-x="884" 
d="M525 245v-245h-160v243c0 56 -36 81 -76 81s-70 -23 -70 -79v-245h-159v466h159v-73c7 27 23 48 47 63s48 22 72 22c85 0 141 -33 167 -99c33 67 91 99 139 99c135 0 186 -77 186 -230v-248h-159v243c0 56 -36 81 -76 81s-70 -23 -70 -79z" />
    <glyph glyph-name="n" unicode="n" horiz-adv-x="590" 
d="M219 245v-245h-159v466h159v-73c7 27 25 47 52 62c28 15 54 23 79 23c123 0 186 -82 186 -230v-248h-159v243c0 56 -36 81 -76 81c-43 0 -82 -24 -82 -79z" />
    <glyph glyph-name="o" unicode="o" horiz-adv-x="563" 
d="M280 -9c-68 0 -126 23 -175 68c-48 45 -72 104 -72 175c0 72 24 131 72 176c49 45 107 68 175 68c69 0 127 -23 176 -68s74 -104 74 -176c0 -71 -25 -130 -74 -175s-107 -68 -176 -68zM211 302c-37 -37 -37 -98 0 -137c39 -37 100 -37 137 0c39 39 39 100 0 137
c-37 39 -98 39 -137 0z" />
    <glyph glyph-name="p" unicode="p" horiz-adv-x="609" 
d="M219 43v-273h-159v696h150v-67c25 52 82 79 138 79c61 0 114 -22 159 -67s68 -103 68 -176s-23 -132 -68 -177s-98 -67 -159 -67c-55 0 -98 17 -129 52zM316 333c-26 0 -49 -10 -68 -30s-29 -43 -29 -70c-5 -81 111 -127 165 -66c64 56 15 171 -68 166z" />
    <glyph glyph-name="q" unicode="q" horiz-adv-x="608" 
d="M548 -230h-159v273c-31 -35 -74 -52 -129 -52c-61 0 -114 22 -159 67s-68 104 -68 177s23 131 68 176s98 67 159 67c56 0 113 -27 138 -79v67h150v-696zM389 233c0 27 -10 50 -29 70s-42 30 -68 30c-83 5 -131 -110 -69 -166c56 -61 171 -15 166 66z" />
    <glyph glyph-name="r" unicode="r" horiz-adv-x="429" 
d="M219 153v-153h-159v466h151v-115c23 84 82 127 147 127c27 0 50 -4 69 -13l-39 -150c-22 8 -46 12 -72 12c-65 0 -97 -42 -97 -174z" />
    <glyph glyph-name="s" unicode="s" horiz-adv-x="481" 
d="M244 166l-59 16c-55 15 -95 42 -114 62c-9 10 -17 22 -22 37c-9 29 -8 37 -8 58c0 36 19 68 56 96c38 29 83 43 134 43c98 0 204 -41 204 -161h-149c0 28 -16 42 -47 42c-26 0 -39 -9 -39 -26c0 -15 12 -25 35 -30l83 -23c56 -15 95 -43 110 -72c16 -29 20 -49 20 -69
c0 -48 -21 -85 -64 -110s-92 -38 -147 -38c-53 0 -101 15 -142 44c-41 30 -61 70 -61 121h149c0 -24 18 -48 54 -48c27 0 49 12 49 31c0 13 -7 18 -42 27z" />
    <glyph glyph-name="t" unicode="t" horiz-adv-x="378" 
d="M105 633h157v-167h98v-117h-98v-349h-157v349h-85v117h85v167z" />
    <glyph glyph-name="u" unicode="u" horiz-adv-x="590" 
d="M371 221v245h159v-466h-159v73c-7 -27 -25 -47 -52 -61s-54 -21 -79 -21c-123 0 -186 82 -186 230v245h159v-240c0 -56 36 -81 76 -81c44 0 82 21 82 76z" />
    <glyph glyph-name="v" unicode="v" horiz-adv-x="529" 
d="M531 466l-199 -466h-136l-198 466h171l96 -265l94 265h172z" />
    <glyph glyph-name="w" unicode="w" horiz-adv-x="759" 
d="M512 209l70 257h170l-160 -466h-135l-78 279l-74 -279h-135l-165 466h170l70 -257l71 257h125z" />
    <glyph glyph-name="x" unicode="x" horiz-adv-x="544" 
d="M185 0h-183l184 252l-155 214h183l60 -88l57 88h182l-154 -214l182 -252h-182l-87 128z" />
    <glyph glyph-name="y" unicode="y" horiz-adv-x="518" 
d="M261 240l87 226h169l-288 -696h-167l117 292l-183 404h174z" />
    <glyph glyph-name="z" unicode="z" horiz-adv-x="512" 
d="M237 322h-184v144h412v-116l-200 -206h200v-144h-425v114z" />
    <glyph glyph-name="braceleft" unicode="{" horiz-adv-x="414" 
d="M27 187v85c31 0 61 22 61 61v154c-1 60 19 109 58 146c40 37 89 56 146 56h93v-108h-80c-61 0 -88 -42 -88 -101v-136c0 -33 -10 -59 -30 -79c-19 -20 -40 -32 -61 -36c21 -3 42 -15 61 -35c20 -20 30 -46 30 -79v-136c0 -59 27 -101 88 -101h80v-108h-93
c-57 0 -106 19 -146 56c-39 37 -59 86 -58 146v154c0 39 -30 61 -61 61z" />
    <glyph glyph-name="bar" unicode="|" horiz-adv-x="213" 
d="M145 -126h-77v931h77v-931z" />
    <glyph glyph-name="braceright" unicode="}" horiz-adv-x="414" 
d="M387 272v-85c-31 0 -61 -22 -61 -61v-154c1 -60 -19 -109 -59 -146c-39 -37 -88 -56 -145 -56h-93v108h80c61 0 88 42 88 101v136c0 33 10 59 29 79c20 20 41 32 62 35c-21 4 -42 16 -62 36c-19 20 -29 46 -29 79v136c0 59 -27 101 -88 101h-80v108h93
c57 0 106 -19 145 -56c40 -37 60 -86 59 -146v-154c0 -39 30 -61 61 -61z" />
    <glyph glyph-name="exclamdown" unicode="&#xa1;" horiz-adv-x="279" 
d="M223 -229h-167l18 458h131zM44 385c0 53 42 93 94 93c53 0 96 -40 96 -93c0 -52 -43 -91 -96 -91c-52 0 -94 39 -94 91z" />
    <glyph glyph-name="cent" unicode="&#xa2;" horiz-adv-x="540" 
d="M245 473v125h77v-122c73 -7 133 -45 179 -113l-130 -78c-19 31 -46 46 -82 46c-53 0 -97 -44 -97 -97s44 -97 97 -97c33 0 60 14 80 43l133 -74c-47 -69 -107 -106 -180 -113v-119h-77v122c-60 10 -110 36 -149 79s-59 96 -59 159s20 115 59 158s89 70 149 81z" />
    <glyph glyph-name="sterling" unicode="&#xa3;" horiz-adv-x="702" 
d="M410 360v-64h-100v-163h167c23 0 28 14 28 41v50h156v-86c0 -39 -14 -71 -42 -98c-27 -27 -59 -40 -96 -40h-485v133h112v163h-78v64h78v118c0 67 20 120 59 160c40 40 92 60 157 60c159 0 239 -80 239 -241h-158c0 54 -24 81 -71 81c-40 0 -66 -33 -66 -76v-102h100z
" />
    <glyph glyph-name="currency" unicode="&#xa4;" horiz-adv-x="616" 
d="M231 339c0 -43 34 -77 77 -77c44 0 78 34 78 77c0 44 -34 78 -78 78c-43 0 -77 -34 -77 -78zM201 164l-71 -72l-69 69l71 72c-19 31 -29 66 -29 106c0 39 10 75 30 107l-72 72l69 69l72 -72c33 20 69 30 106 30c39 0 75 -10 107 -30l71 72l69 -69l-72 -73
c21 -35 31 -70 31 -106c0 -39 -10 -75 -30 -106l71 -72l-69 -69l-71 72c-64 -40 -150 -40 -214 0z" />
    <glyph glyph-name="yen" unicode="&#xa5;" horiz-adv-x="766" 
d="M538 689h198l-254 -362h131v-70h-145v-99h145v-69h-145v-89h-170v89h-145v69h145v99h-145v70h132l-255 362h199l153 -250z" />
    <glyph glyph-name="brokenbar" unicode="&#xa6;" horiz-adv-x="217" 
d="M70 -126v382h77v-382h-77zM70 805h77v-379h-77v379z" />
    <glyph glyph-name="section" unicode="&#xa7;" horiz-adv-x="556" 
d="M320 202v-136c-15 -3 -31 -5 -48 -5c-61 0 -113 20 -156 60c-42 40 -63 92 -63 157v204c0 64 21 116 63 156c43 40 95 60 156 60c52 0 99 -15 142 -45s68 -74 77 -132l-131 -39c-13 56 -51 78 -88 78c-44 0 -80 -33 -80 -78v-204c0 -52 38 -78 89 -78c16 0 29 1 39 2z
M236 288v136c15 3 31 5 48 5c61 0 113 -20 155 -60c43 -40 64 -92 64 -157v-204c0 -64 -21 -116 -64 -156c-42 -40 -94 -60 -155 -60c-52 0 -99 15 -142 45s-68 74 -77 132l131 39c13 -56 51 -78 88 -78c44 0 80 33 80 78v204c0 52 -38 78 -89 78c-16 0 -29 -1 -39 -2z" />
    <glyph glyph-name="dieresis" unicode="&#xa8;" 
d="M120 641c0 40 34 72 77 72c41 0 75 -32 75 -72c0 -41 -32 -73 -75 -73s-77 32 -77 73zM308 641c0 40 35 72 78 72c41 0 74 -32 74 -72c0 -41 -33 -73 -74 -73c-43 0 -78 32 -78 73z" />
    <glyph glyph-name="copyright" unicode="&#xa9;" horiz-adv-x="792" 
d="M543 245c-32 -49 -89 -82 -148 -82c-49 0 -90 17 -123 52s-50 76 -50 125s17 91 50 125c33 35 74 52 123 52c62 0 111 -26 146 -79l-66 -46c-23 31 -50 46 -80 46c-52 0 -89 -42 -89 -98c0 -53 37 -96 89 -96c31 0 58 15 81 46zM148 93c-67 69 -101 152 -101 250
s34 181 101 250c68 69 151 104 248 104s180 -35 248 -104s102 -152 102 -250s-34 -181 -102 -250s-151 -103 -248 -103s-180 34 -248 103zM204 537c-53 -53 -79 -118 -79 -194s26 -141 79 -194s117 -80 192 -80s139 27 192 80s79 118 79 194s-26 141 -79 194
c-53 54 -117 81 -192 81s-139 -27 -192 -81z" />
    <glyph glyph-name="ordfeminine" unicode="&#xaa;" horiz-adv-x="473" 
d="M401 316h-86v33c-27 -27 -58 -40 -95 -40c-47 0 -87 16 -120 48c-33 33 -49 75 -49 127s16 94 49 126s73 48 120 48c37 0 68 -13 95 -38v31h86v-335zM315 485c0 53 -43 87 -90 87c-49 0 -87 -36 -87 -87c0 -52 38 -90 87 -90c51 0 90 35 90 90zM401 198h-335v68h335v-68z
" />
    <glyph glyph-name="guillemotleft" unicode="&#xab;" horiz-adv-x="528" 
d="M174 26l-138 207l138 207h119l-138 -207l138 -207h-119zM369 26l-138 207l138 207h119l-138 -207l138 -207h-119z" />
    <glyph glyph-name="logicalnot" unicode="&#xac;" horiz-adv-x="620" 
d="M414 245h-350v134h485v-281h-135v147z" />
    <glyph glyph-name="registered" unicode="&#xae;" horiz-adv-x="792" 
d="M358 438v-81h53c21 0 36 21 36 42c0 17 -14 39 -33 39h-56zM539 174h-101l-73 109h-7v-109h-84v339h142c75 0 117 -51 117 -114c0 -52 -29 -96 -78 -112zM148 93c-67 69 -101 152 -101 250s34 181 101 250c68 69 151 104 248 104s180 -35 248 -104s102 -152 102 -250
s-34 -181 -102 -250s-151 -103 -248 -103s-180 34 -248 103zM204 537c-53 -53 -79 -118 -79 -194s26 -141 79 -194s117 -80 192 -80s139 27 192 80s79 118 79 194s-26 141 -79 194c-53 54 -117 81 -192 81s-139 -27 -192 -81z" />
    <glyph glyph-name="overscore" unicode="&#xaf;" horiz-adv-x="528" 
d="M408 666v-87h-288v87h288z" />
    <glyph glyph-name="degree" unicode="&#xb0;" horiz-adv-x="368" 
d="M40 529c0 39 14 73 42 101c28 29 62 43 101 43c40 0 74 -14 102 -43c29 -28 43 -62 43 -101c0 -40 -14 -74 -43 -103c-28 -28 -62 -42 -102 -42c-39 0 -73 14 -101 42c-28 29 -42 63 -42 103zM122 529c0 -36 26 -63 61 -63c36 0 63 27 63 63c0 35 -27 62 -63 62
c-33 0 -61 -27 -61 -62z" />
    <glyph glyph-name="plusminus" unicode="&#xb1;" horiz-adv-x="544" 
d="M65 109h414v-110h-414v110zM479 406v-108h-153v-142h-108v142h-153v108h153v140h108v-140h153z" />
    <glyph glyph-name="twosuperior" unicode="&#xb2;" horiz-adv-x="343" 
d="M29 485v61l166 187c17 25 2 51 -27 51c-23 0 -37 -13 -41 -40l-98 14c13 84 62 126 147 126c36 0 67 -12 93 -35s39 -52 39 -87c-1 -38 -14 -71 -41 -98l-85 -88h128v-91h-281z" />
    <glyph glyph-name="threesuperior" unicode="&#xb3;" horiz-adv-x="337" 
d="M145 652h-42v74h42c30 0 45 12 45 37c0 16 -15 31 -44 31c-25 0 -45 -8 -60 -25l-55 57c27 39 72 58 133 58c36 0 66 -11 91 -34c25 -22 38 -48 37 -77c0 -32 -19 -57 -56 -76c47 -17 71 -47 73 -88s-12 -73 -43 -96c-31 -22 -68 -33 -113 -33c-69 0 -115 23 -137 68
l54 54c18 -25 44 -37 79 -37c40 0 60 20 60 47c0 24 -29 40 -64 40z" />
    <glyph glyph-name="acute" unicode="&#xb4;" horiz-adv-x="547" 
d="M129 549l93 174h148l-138 -174h-103z" />
    <glyph glyph-name="mu" unicode="&#xb5;" horiz-adv-x="598" 
d="M205 -190h-137v656h159v-243c0 -56 36 -81 76 -81c43 0 82 24 82 79v245h159v-466h-159v73c-7 -27 -25 -48 -53 -63c-27 -15 -53 -22 -78 -22c-16 0 -32 2 -49 5v-183z" />
    <glyph glyph-name="paragraph" unicode="&#xb6;" horiz-adv-x="747" 
d="M250 689h101v-735h-111v301c-57 3 -106 26 -147 68c-40 42 -60 92 -60 149c0 60 21 111 63 153c42 43 93 64 154 64zM568 581h-40v-658c0 -36 -13 -68 -39 -95c-26 -28 -59 -42 -98 -42h-153v97h142c27 0 42 19 42 46v760h153c39 0 71 -14 97 -41c27 -27 40 -59 40 -96
v-86h-98v73c0 25 -21 42 -46 42z" />
    <glyph glyph-name="middot" unicode="&#xb7;" horiz-adv-x="287" 
d="M49 387c0 52 42 91 94 91s95 -39 95 -91c0 -53 -43 -92 -95 -92c-53 0 -94 39 -94 92z" />
    <glyph glyph-name="cedilla" unicode="&#xb8;" horiz-adv-x="534" 
d="M298 -86l-54 109h67l54 -83c7 -13 11 -30 11 -51c0 -29 -10 -54 -31 -74c-21 -21 -45 -31 -73 -31c-61 0 -112 45 -109 129l70 -4c-3 -28 6 -45 25 -52c16 -5 29 -1 38 13c8 11 9 26 2 44z" />
    <glyph glyph-name="onesuperior" unicode="&#xb9;" horiz-adv-x="243" 
d="M20 712v87l176 91v-405h-106v259z" />
    <glyph glyph-name="ordmasculine" unicode="&#xba;" horiz-adv-x="460" 
d="M55 485c0 51 17 93 50 125c34 32 75 48 124 48s91 -16 125 -48s51 -74 51 -125c0 -52 -17 -94 -52 -127c-34 -33 -75 -49 -124 -49s-90 16 -124 49c-33 33 -50 75 -50 127zM318 485c0 52 -38 87 -89 87s-89 -35 -89 -87c0 -53 38 -90 89 -90s89 37 89 90zM397 198h-335
v68h335v-68z" />
    <glyph glyph-name="guillemotright" unicode="&#xbb;" horiz-adv-x="528" 
d="M354 440l138 -207l-138 -207h-119l138 207l-138 207h119zM159 440l138 -207l-138 -207h-119l138 207l-138 207h119z" />
    <glyph glyph-name="onequarter" unicode="&#xbc;" horiz-adv-x="830" 
d="M643 302l-62 -122h62v122zM793 180v-87h-45v-93h-105v93h-197l161 301h141v-214h45zM38 489v87l176 91v-405h-106v259zM655 667l-451 -676h-94l452 676h93z" />
    <glyph glyph-name="onehalf" unicode="&#xbd;" horiz-adv-x="835" 
d="M37 489v87l176 91v-405h-106v259zM654 667l-451 -676h-94l452 676h93zM677 248c17 27 2 51 -27 51c-23 0 -37 -13 -41 -40l-98 14c13 84 62 126 147 126c36 0 67 -12 93 -35s39 -52 39 -87c-1 -38 -14 -71 -41 -98l-85 -88h128v-91h-281v61z" />
    <glyph glyph-name="threequarters" unicode="&#xbe;" horiz-adv-x="922" 
d="M165 429h-42v74h42c30 0 45 12 45 37c0 16 -15 31 -44 31c-25 0 -45 -8 -60 -25l-55 57c27 39 72 58 133 58c36 0 66 -11 91 -34c25 -22 38 -48 37 -77c0 -32 -19 -57 -56 -76c47 -17 71 -47 73 -88s-12 -73 -43 -96c-31 -22 -68 -33 -113 -33c-69 0 -115 23 -137 68
l54 54c18 -25 44 -37 79 -37c40 0 60 20 60 47c0 25 -29 40 -64 40zM673 180h62v122zM840 394v-214h45v-87h-45v-93h-105v93h-197l161 301h141zM202 -9l452 676h93l-451 -676h-94z" />
    <glyph glyph-name="questiondown" unicode="&#xbf;" horiz-adv-x="487" 
d="M212 233h143v-12c0 -47 -2 -70 -15 -105s-42 -60 -89 -80l-37 -16c-23 -9 -34 -26 -34 -50c0 -35 26 -54 66 -54c35 0 64 27 64 64h144c0 -139 -82 -215 -211 -215c-63 0 -114 18 -153 53s-58 83 -58 142c0 95 48 160 128 189c40 15 52 36 52 84zM376 385
c0 -52 -42 -91 -94 -91c-53 0 -96 39 -96 91c0 53 43 93 96 93c52 0 94 -40 94 -93z" />
    <glyph glyph-name="Agrave" unicode="&#xc0;" horiz-adv-x="667" 
d="M678 0h-177l-58 158h-217l-58 -158h-179l254 689h182zM400 302l-67 227l-62 -227h129zM305 749l-138 174h148l93 -174h-103z" />
    <glyph glyph-name="Aacute" unicode="&#xc1;" horiz-adv-x="667" 
d="M443 158h-217l-58 -158h-179l254 689h182l253 -689h-177zM271 302h129l-67 227zM243 749l93 174h148l-138 -174h-103z" />
    <glyph glyph-name="Acircumflex" unicode="&#xc2;" horiz-adv-x="667" 
d="M678 0h-177l-58 158h-217l-58 -158h-179l254 689h182zM400 302l-67 227l-62 -227h129zM253 757h-107l109 173h156l110 -173h-108l-80 89z" />
    <glyph glyph-name="Atilde" unicode="&#xc3;" horiz-adv-x="667" 
d="M678 0h-177l-58 158h-217l-58 -158h-179l254 689h182zM400 302l-67 227l-62 -227h129zM290 797c-11 0 -25 -15 -26 -43h-75c4 89 52 130 101 130c15 0 32 -7 50 -21c18 -13 30 -20 37 -20c11 0 25 13 26 41h75c-4 -88 -52 -128 -101 -128c-15 0 -31 7 -50 20
c-18 14 -30 21 -37 21z" />
    <glyph glyph-name="Adieresis" unicode="&#xc4;" horiz-adv-x="667" 
d="M443 158h-217l-58 -158h-179l254 689h182l253 -689h-177zM271 302h129l-67 227zM163 841c0 40 34 72 77 72c41 0 75 -32 75 -72c0 -41 -32 -73 -75 -73s-77 32 -77 73zM351 841c0 40 35 72 78 72c41 0 74 -32 74 -72c0 -41 -33 -73 -74 -73c-43 0 -78 32 -78 73z" />
    <glyph glyph-name="Aring" unicode="&#xc5;" horiz-adv-x="667" 
d="M443 158h-217l-58 -158h-179l254 689h182l253 -689h-177zM271 302h129l-67 227zM206 873c0 36 12 66 36 91c25 25 55 38 90 38c36 0 66 -13 91 -38s37 -55 37 -91c0 -35 -12 -65 -37 -90s-55 -37 -91 -37c-35 0 -65 12 -90 37c-24 25 -36 55 -36 90zM268 873
c0 -37 28 -65 64 -65c37 0 67 28 67 65s-30 68 -67 68c-36 0 -64 -29 -64 -68z" />
    <glyph glyph-name="AE" unicode="&#xc6;" horiz-adv-x="936" 
d="M333 296h96v188zM174 0h-202l435 689h472v-146h-281v-132h246v-141h-246v-124h289v-146h-457v1l-1 -1v152h-160z" />
    <glyph glyph-name="Ccedilla" unicode="&#xc7;" horiz-adv-x="708" 
d="M367 -86l-41 83c-83 15 -151 55 -206 120s-82 141 -82 227c0 98 34 181 102 250c69 69 152 104 249 104c121 0 230 -61 294 -158l-139 -97c-32 53 -91 87 -155 87c-51 0 -94 -18 -129 -55c-35 -36 -53 -80 -53 -131s18 -95 53 -131s78 -54 129 -54c65 0 123 33 156 86
l137 -96c-63 -93 -166 -154 -282 -158l34 -51c7 -13 11 -30 11 -51c0 -29 -10 -54 -31 -74c-21 -21 -45 -31 -73 -31c-61 0 -112 45 -109 129l70 -4c-3 -28 6 -45 25 -52c16 -5 29 -1 38 13c8 11 9 26 2 44z" />
    <glyph glyph-name="Egrave" unicode="&#xc8;" horiz-adv-x="581" 
d="M533 146v-146h-456v689h447v-146h-280v-132h246v-143h-246v-122h289zM269 749l-138 174h148l93 -174h-103z" />
    <glyph glyph-name="Eacute" unicode="&#xc9;" horiz-adv-x="581" 
d="M77 0v689h447v-146h-280v-132h246v-143h-246v-122h289v-146h-456zM209 749l93 174h148l-138 -174h-103z" />
    <glyph glyph-name="Ecircumflex" unicode="&#xca;" horiz-adv-x="581" 
d="M533 146v-146h-456v689h447v-146h-280v-132h246v-143h-246v-122h289zM205 757h-107l109 173h156l110 -173h-108l-80 89z" />
    <glyph glyph-name="Edieresis" unicode="&#xcb;" horiz-adv-x="581" 
d="M77 0v689h447v-146h-280v-132h246v-143h-246v-122h289v-146h-456zM115 841c0 40 34 72 77 72c41 0 75 -32 75 -72c0 -41 -32 -73 -75 -73s-77 32 -77 73zM303 841c0 40 35 72 78 72c41 0 74 -32 74 -72c0 -41 -33 -73 -74 -73c-43 0 -78 32 -78 73z" />
    <glyph glyph-name="Igrave" unicode="&#xcc;" horiz-adv-x="321" 
d="M244 0h-167v689h167v-689zM142 749l-138 174h148l93 -174h-103z" />
    <glyph glyph-name="Iacute" unicode="&#xcd;" horiz-adv-x="321" 
d="M77 689h167v-689h-167v689zM76 749l93 174h148l-138 -174h-103z" />
    <glyph glyph-name="Icircumflex" unicode="&#xce;" horiz-adv-x="321" 
d="M244 0h-167v689h167v-689zM80 757h-107l109 173h156l110 -173h-108l-80 89z" />
    <glyph glyph-name="Idieresis" unicode="&#xcf;" horiz-adv-x="321" 
d="M77 689h167v-689h-167v689zM-9 841c0 40 34 72 77 72c41 0 75 -32 75 -72c0 -41 -32 -73 -75 -73s-77 32 -77 73zM179 841c0 40 35 72 78 72c41 0 74 -32 74 -72c0 -41 -33 -73 -74 -73c-43 0 -78 32 -78 73z" />
    <glyph glyph-name="Eth" unicode="&#xd0;" horiz-adv-x="722" 
d="M368 383v-101h-106v-133h105c46 0 82 19 107 56c26 38 39 84 39 138c0 55 -13 101 -39 139c-25 39 -61 58 -107 58h-105v-157h106zM94 0v282h-94v101h94v306h273c97 0 173 -33 229 -98s84 -147 84 -248c0 -100 -28 -182 -84 -247c-55 -64 -132 -96 -229 -96h-273z" />
    <glyph glyph-name="Ntilde" unicode="&#xd1;" horiz-adv-x="678" 
d="M295 797c-11 0 -25 -15 -26 -43h-75c4 89 52 130 101 130c15 0 32 -7 50 -21c18 -13 30 -20 37 -20c11 0 25 13 26 41h75c-4 -88 -52 -128 -101 -128c-15 0 -31 7 -50 20c-19 14 -31 21 -37 21zM434 318v371h167v-689h-146l-211 376v-376h-167v689h151z" />
    <glyph glyph-name="Ograve" unicode="&#xd2;" horiz-adv-x="779" 
d="M38 344c0 98 34 181 102 250c69 69 152 104 249 104c98 0 181 -35 249 -104c69 -69 103 -152 103 -250c0 -97 -34 -181 -103 -250c-68 -69 -151 -103 -249 -103c-97 0 -179 34 -248 103s-103 153 -103 250zM389 159c51 0 95 18 130 54c36 36 54 80 54 131s-18 95 -54 131
c-36 37 -79 55 -130 55s-94 -18 -129 -55c-35 -36 -53 -80 -53 -131s18 -95 53 -131s78 -54 129 -54zM321 749l-138 174h148l93 -174h-103z" />
    <glyph glyph-name="Oacute" unicode="&#xd3;" horiz-adv-x="779" 
d="M38 344c0 98 34 181 102 250c69 69 152 104 249 104c98 0 181 -35 249 -104c69 -69 103 -152 103 -250c0 -97 -34 -181 -103 -250c-68 -69 -151 -103 -249 -103c-97 0 -179 34 -248 103s-103 153 -103 250zM389 159c51 0 95 18 130 54c36 36 54 80 54 131s-18 95 -54 131
c-36 37 -79 55 -130 55s-94 -18 -129 -55c-35 -36 -53 -80 -53 -131s18 -95 53 -131s78 -54 129 -54zM343 749l93 174h148l-138 -174h-103z" />
    <glyph glyph-name="Ocircumflex" unicode="&#xd4;" horiz-adv-x="779" 
d="M38 344c0 98 34 181 102 250c69 69 152 104 249 104c98 0 181 -35 249 -104c69 -69 103 -152 103 -250c0 -97 -34 -181 -103 -250c-68 -69 -151 -103 -249 -103c-97 0 -179 34 -248 103s-103 153 -103 250zM389 159c51 0 95 18 130 54c36 36 54 80 54 131s-18 95 -54 131
c-36 37 -79 55 -130 55s-94 -18 -129 -55c-35 -36 -53 -80 -53 -131s18 -95 53 -131s78 -54 129 -54zM309 757h-107l109 173h156l110 -173h-108l-80 89z" />
    <glyph glyph-name="Otilde" unicode="&#xd5;" horiz-adv-x="779" 
d="M38 344c0 98 34 181 102 250c69 69 152 104 249 104c98 0 181 -35 249 -104c69 -69 103 -152 103 -250c0 -97 -34 -181 -103 -250c-68 -69 -151 -103 -249 -103c-97 0 -179 34 -248 103s-103 153 -103 250zM389 159c51 0 95 18 130 54c36 36 54 80 54 131s-18 95 -54 131
c-36 37 -79 55 -130 55s-94 -18 -129 -55c-35 -36 -53 -80 -53 -131s18 -95 53 -131s78 -54 129 -54zM346 797c-11 0 -25 -15 -26 -43h-75c4 89 52 130 101 130c15 0 32 -7 50 -21c18 -13 30 -20 37 -20c11 0 25 13 26 41h75c-4 -88 -52 -128 -101 -128c-14 0 -30 7 -49 20
c-19 14 -31 21 -38 21z" />
    <glyph glyph-name="Odieresis" unicode="&#xd6;" horiz-adv-x="779" 
d="M38 344c0 98 34 181 102 250c69 69 152 104 249 104c98 0 181 -35 249 -104c69 -69 103 -152 103 -250c0 -97 -34 -181 -103 -250c-68 -69 -151 -103 -249 -103c-97 0 -179 34 -248 103s-103 153 -103 250zM389 159c51 0 95 18 130 54c36 36 54 80 54 131s-18 95 -54 131
c-36 37 -79 55 -130 55s-94 -18 -129 -55c-35 -36 -53 -80 -53 -131s18 -95 53 -131s78 -54 129 -54zM219 841c0 40 34 72 77 72c41 0 75 -32 75 -72c0 -41 -32 -73 -75 -73s-77 32 -77 73zM407 841c0 40 35 72 78 72c41 0 74 -32 74 -72c0 -41 -33 -73 -74 -73
c-43 0 -78 32 -78 73z" />
    <glyph glyph-name="multiply" unicode="&#xd7;" horiz-adv-x="486" 
d="M356 444l76 -76l-114 -115l114 -112l-76 -77l-114 113l-112 -110l-76 77l111 109l-112 113l76 77l113 -113z" />
    <glyph glyph-name="Oslash" unicode="&#xd8;" horiz-adv-x="778" 
d="M388 158c51 0 94 18 130 54c36 37 54 81 54 132c0 38 -11 73 -33 104l-253 -259c31 -21 65 -31 102 -31zM206 344c0 -40 11 -76 33 -109l255 261c-29 23 -65 35 -106 35c-51 0 -94 -18 -129 -55c-35 -36 -53 -80 -53 -132zM170 68l15 15l-96 -98l-47 47l80 82
c-57 67 -85 144 -85 230c0 98 34 181 102 250c69 69 152 104 249 104c85 0 160 -27 223 -81l79 81l47 -46l-80 -82c55 -67 83 -143 83 -226c0 -97 -34 -181 -103 -250c-68 -69 -151 -103 -249 -103c-82 0 -155 26 -218 77z" />
    <glyph glyph-name="Ugrave" unicode="&#xd9;" horiz-adv-x="682" 
d="M69 251v438h168v-438c0 -30 10 -55 31 -74s46 -29 73 -29s51 10 72 29s32 44 32 74v438h168v-438c0 -77 -27 -139 -81 -188c-53 -48 -117 -72 -191 -72s-138 24 -192 72c-53 49 -80 111 -80 188zM309 749l-138 174h148l93 -174h-103z" />
    <glyph glyph-name="Uacute" unicode="&#xda;" horiz-adv-x="682" 
d="M613 251c0 -77 -27 -139 -81 -188c-53 -48 -117 -72 -191 -72s-138 24 -192 72c-53 49 -80 111 -80 188v438h168v-438c0 -30 10 -55 31 -74s46 -29 73 -29s51 10 72 29s32 44 32 74v438h168v-438zM276 749l93 174h148l-138 -174h-103z" />
    <glyph glyph-name="Ucircumflex" unicode="&#xdb;" horiz-adv-x="682" 
d="M69 251v438h168v-438c0 -30 10 -55 31 -74s46 -29 73 -29s51 10 72 29s32 44 32 74v438h168v-438c0 -77 -27 -139 -81 -188c-53 -48 -117 -72 -191 -72s-138 24 -192 72c-53 49 -80 111 -80 188zM260 757h-107l109 173h156l110 -173h-108l-80 89z" />
    <glyph glyph-name="Udieresis" unicode="&#xdc;" horiz-adv-x="682" 
d="M613 251c0 -77 -27 -139 -81 -188c-53 -48 -117 -72 -191 -72s-138 24 -192 72c-53 49 -80 111 -80 188v438h168v-438c0 -30 10 -55 31 -74s46 -29 73 -29s51 10 72 29s32 44 32 74v438h168v-438zM171 841c0 40 34 72 77 72c41 0 75 -32 75 -72c0 -41 -32 -73 -75 -73
s-77 32 -77 73zM359 841c0 40 35 72 78 72c41 0 74 -32 74 -72c0 -41 -33 -73 -74 -73c-43 0 -78 32 -78 73z" />
    <glyph glyph-name="Yacute" unicode="&#xdd;" horiz-adv-x="663" 
d="M415 307v-307h-168v310l-269 379h199l153 -250l156 250h198zM262 749l93 174h148l-138 -174h-103z" />
    <glyph glyph-name="Thorn" unicode="&#xde;" horiz-adv-x="575" 
d="M324 118h-80v-118h-167v689h167v-111h80c65 0 119 -21 162 -63c44 -41 66 -96 66 -165s-22 -125 -66 -168c-43 -43 -97 -64 -162 -64zM389 347c0 57 -32 93 -80 93h-65v-184h65c48 0 80 35 80 91z" />
    <glyph glyph-name="germandbls" unicode="&#xdf;" horiz-adv-x="591" 
d="M252 1l37 141c17 -2 30 -3 40 -3c45 0 80 40 80 83c0 19 -10 87 -90 87h-37v135h21c32 0 49 22 49 55c0 24 -19 52 -66 52c-45 0 -67 -32 -67 -96v-455h-159v455c0 161 74 242 221 242c65 0 118 -18 159 -54s61 -77 61 -122c0 -73 -23 -117 -68 -134
c73 -17 125 -88 125 -169c0 -135 -77 -227 -230 -227c-29 0 -54 3 -76 10z" />
    <glyph glyph-name="agrave" unicode="&#xe0;" horiz-adv-x="608" 
d="M389 416v50h159v-466h-159v53c-29 -41 -72 -62 -129 -62c-61 0 -114 22 -159 67s-68 103 -68 176s23 131 68 176s98 68 159 68c49 0 101 -22 129 -62zM223 301c-37 -37 -37 -98 0 -137c39 -37 100 -37 137 0c39 39 39 100 0 137c-37 39 -98 39 -137 0zM289 549l-138 174
h148l93 -174h-103z" />
    <glyph glyph-name="aacute" unicode="&#xe1;" horiz-adv-x="608" 
d="M389 466h159v-466h-159v53c-29 -41 -72 -62 -129 -62c-61 0 -114 22 -159 67s-68 103 -68 176s23 131 68 176s98 68 159 68c49 0 101 -22 129 -62v50zM223 164c39 -37 100 -37 137 0c39 39 39 100 0 137c-37 39 -98 39 -137 0c-37 -37 -37 -98 0 -137zM227 549l93 174
h148l-138 -174h-103z" />
    <glyph glyph-name="acircumflex" unicode="&#xe2;" horiz-adv-x="608" 
d="M389 416v50h159v-466h-159v53c-29 -41 -72 -62 -129 -62c-61 0 -114 22 -159 67s-68 103 -68 176s23 131 68 176s98 68 159 68c49 0 101 -22 129 -62zM223 301c-37 -37 -37 -98 0 -137c39 -37 100 -37 137 0c39 39 39 100 0 137c-37 39 -98 39 -137 0zM225 557h-107
l109 173h156l110 -173h-108l-80 89z" />
    <glyph glyph-name="atilde" unicode="&#xe3;" horiz-adv-x="608" 
d="M389 416v50h159v-466h-159v53c-29 -41 -72 -62 -129 -62c-61 0 -114 22 -159 67s-68 103 -68 176s23 131 68 176s98 68 159 68c49 0 101 -22 129 -62zM223 301c-37 -37 -37 -98 0 -137c39 -37 100 -37 137 0c39 39 39 100 0 137c-37 39 -98 39 -137 0zM262 597
c-11 0 -25 -15 -26 -43h-75c4 89 52 130 101 130c15 0 32 -7 50 -21c18 -13 30 -20 37 -20c11 0 25 13 26 41h75c-4 -88 -52 -128 -101 -128c-14 0 -30 7 -49 20c-19 14 -31 21 -38 21z" />
    <glyph glyph-name="adieresis" unicode="&#xe4;" horiz-adv-x="608" 
d="M389 466h159v-466h-159v53c-29 -41 -72 -62 -129 -62c-61 0 -114 22 -159 67s-68 103 -68 176s23 131 68 176s98 68 159 68c49 0 101 -22 129 -62v50zM223 164c39 -37 100 -37 137 0c39 39 39 100 0 137c-37 39 -98 39 -137 0c-37 -37 -37 -98 0 -137zM135 641
c0 40 34 72 77 72c41 0 75 -32 75 -72c0 -41 -32 -73 -75 -73s-77 32 -77 73zM323 641c0 40 35 72 78 72c41 0 74 -32 74 -72c0 -41 -33 -73 -74 -73c-43 0 -78 32 -78 73z" />
    <glyph glyph-name="aring" unicode="&#xe5;" horiz-adv-x="608" 
d="M389 466h159v-466h-159v53c-29 -41 -72 -62 -129 -62c-61 0 -114 22 -159 67s-68 103 -68 176s23 131 68 176s98 68 159 68c49 0 101 -22 129 -62v50zM223 164c39 -37 100 -37 137 0c39 39 39 100 0 137c-37 39 -98 39 -137 0c-37 -37 -37 -98 0 -137zM178 673
c0 36 12 66 36 91c25 25 55 38 90 38c36 0 66 -13 91 -38s37 -55 37 -91c0 -35 -12 -65 -37 -90s-55 -37 -91 -37c-35 0 -65 12 -90 37c-24 25 -36 55 -36 90zM240 673c0 -37 28 -65 64 -65c37 0 67 28 67 65s-30 68 -67 68c-36 0 -64 -29 -64 -68z" />
    <glyph glyph-name="ae" unicode="&#xe6;" horiz-adv-x="984" 
d="M957 240c0 -8 -1 -25 -3 -51h-334c5 -43 54 -71 107 -71c37 0 67 13 89 39c7 -6 26 -20 56 -41c31 -21 49 -34 54 -38c-44 -58 -114 -87 -211 -87c-65 0 -121 20 -167 60v-51h-159v53c-29 -41 -72 -62 -129 -62c-61 0 -114 22 -159 67s-68 103 -68 176s23 131 68 176
s98 68 159 68c49 0 101 -22 129 -62v50h159v-47c45 39 101 59 167 59c69 0 126 -22 172 -66c47 -43 70 -101 70 -172zM223 301c-37 -37 -37 -98 0 -137c39 -37 100 -37 137 0c39 39 39 100 0 137c-37 39 -98 39 -137 0zM620 278h186c-13 52 -57 69 -93 69
c-11 0 -22 -1 -33 -4c-21 -5 -53 -29 -60 -65z" />
    <glyph glyph-name="ccedilla" unicode="&#xe7;" horiz-adv-x="526" 
d="M305 -8l36 -52c7 -12 11 -29 11 -51c0 -29 -10 -54 -31 -74c-21 -21 -45 -31 -73 -31c-61 0 -112 45 -109 129l70 -4c-3 -28 6 -45 25 -52c16 -5 29 -1 38 13c8 11 9 26 2 44l-43 84c-57 12 -105 39 -142 81s-56 94 -56 155c0 72 25 131 76 176s112 68 183 68
c85 0 154 -38 205 -115l-139 -84c-15 28 -40 42 -77 42c-47 0 -86 -40 -86 -87s39 -87 86 -87c36 0 61 13 75 38l142 -79c-48 -72 -112 -110 -193 -114z" />
    <glyph glyph-name="egrave" unicode="&#xe8;" horiz-adv-x="550" 
d="M523 240c0 -8 -1 -25 -3 -51h-334c5 -43 54 -71 107 -71c37 0 67 13 89 39c7 -6 26 -20 56 -41c31 -21 49 -34 54 -38c-44 -58 -114 -87 -211 -87c-69 0 -127 23 -176 68c-48 46 -72 105 -72 177c0 71 24 129 72 174c49 45 107 68 176 68s126 -22 172 -66
c47 -43 70 -101 70 -172zM186 278h186c-13 52 -57 69 -93 69c-11 0 -22 -1 -33 -4c-21 -5 -53 -29 -60 -65zM240 549l-138 174h148l93 -174h-103z" />
    <glyph glyph-name="eacute" unicode="&#xe9;" horiz-adv-x="550" 
d="M222 549l93 174h148l-138 -174h-103zM523 240c0 -8 -1 -25 -3 -51h-334c5 -43 54 -71 107 -71c37 0 67 13 89 39c7 -6 26 -20 56 -41c31 -21 49 -34 54 -38c-44 -58 -114 -87 -211 -87c-69 0 -127 23 -176 68c-48 46 -72 105 -72 177c0 71 24 129 72 174
c49 45 107 68 176 68s126 -22 172 -66c47 -43 70 -101 70 -172zM186 278h186c-18 57 -67 71 -93 69c-37 0 -82 -17 -93 -69z" />
    <glyph glyph-name="ecircumflex" unicode="&#xea;" horiz-adv-x="550" 
d="M523 240c0 -8 -1 -25 -3 -51h-334c5 -43 54 -71 107 -71c37 0 67 13 89 39c7 -6 26 -20 56 -41c31 -21 49 -34 54 -38c-44 -58 -114 -87 -211 -87c-69 0 -127 23 -176 68c-48 46 -72 105 -72 177c0 71 24 129 72 174c49 45 107 68 176 68s126 -22 172 -66
c47 -43 70 -101 70 -172zM186 278h186c-13 52 -57 69 -93 69c-11 0 -22 -1 -33 -4c-21 -5 -53 -29 -60 -65zM198 557h-107l109 173h156l110 -173h-108l-80 89z" />
    <glyph glyph-name="edieresis" unicode="&#xeb;" horiz-adv-x="550" 
d="M108 641c0 40 34 72 77 72c41 0 75 -32 75 -72c0 -41 -32 -73 -75 -73s-77 32 -77 73zM296 641c0 40 35 72 78 72c41 0 74 -32 74 -72c0 -41 -33 -73 -74 -73c-43 0 -78 32 -78 73zM523 240c0 -8 -1 -25 -3 -51h-334c5 -43 54 -71 107 -71c37 0 67 13 89 39
c7 -6 26 -20 56 -41c31 -21 49 -34 54 -38c-44 -58 -114 -87 -211 -87c-69 0 -127 23 -176 68c-48 46 -72 105 -72 177c0 71 24 129 72 174c49 45 107 68 176 68s126 -22 172 -66c47 -43 70 -101 70 -172zM186 278h186c-18 57 -67 71 -93 69c-37 0 -82 -17 -93 -69z" />
    <glyph glyph-name="igrave" unicode="&#xec;" horiz-adv-x="277" 
d="M60 0v467h157v-467h-157zM114 549l-138 174h148l93 -174h-103z" />
    <glyph glyph-name="iacute" unicode="&#xed;" horiz-adv-x="277" 
d="M217 467v-467h-157v467h157zM61 549l93 174h148l-138 -174h-103z" />
    <glyph glyph-name="icircumflex" unicode="&#xee;" horiz-adv-x="277" 
d="M60 0v467h157v-467h-157zM57 557h-107l109 173h156l110 -173h-108l-80 89z" />
    <glyph glyph-name="idieresis" unicode="&#xef;" horiz-adv-x="277" 
d="M217 467v-467h-157v467h157zM-32 641c0 40 34 72 77 72c41 0 75 -32 75 -72c0 -41 -32 -73 -75 -73s-77 32 -77 73zM156 641c0 40 35 72 78 72c41 0 74 -32 74 -72c0 -41 -33 -73 -74 -73c-43 0 -78 32 -78 73z" />
    <glyph glyph-name="eth" unicode="&#xf0;" horiz-adv-x="552" 
d="M275 147c48 0 85 34 85 86c0 49 -37 83 -85 83c-47 0 -84 -34 -84 -83c0 -52 37 -86 84 -86zM379 661l34 -46l-81 -34l140 -203c31 -44 46 -92 46 -145c0 -72 -24 -130 -71 -175s-104 -67 -172 -67c-67 0 -124 22 -171 67s-70 103 -70 175c0 113 69 201 173 225
c21 4 43 6 64 7l-52 71l-85 -33l-27 49l81 31l-74 106h145l42 -62z" />
    <glyph glyph-name="ntilde" unicode="&#xf1;" horiz-adv-x="590" 
d="M219 245v-245h-159v466h159v-73c7 27 25 47 52 62c28 15 54 23 79 23c123 0 186 -82 186 -230v-248h-159v243c0 56 -36 81 -76 81c-43 0 -82 -24 -82 -79zM252 597c-11 0 -25 -15 -26 -43h-75c4 89 52 130 101 130c15 0 32 -7 50 -21c18 -13 30 -20 37 -20
c11 0 25 13 26 41h75c-4 -88 -52 -128 -101 -128c-14 0 -30 7 -49 20c-19 14 -31 21 -38 21z" />
    <glyph glyph-name="ograve" unicode="&#xf2;" horiz-adv-x="563" 
d="M280 -9c-68 0 -126 23 -175 68c-48 45 -72 104 -72 175c0 72 24 131 72 176c49 45 107 68 175 68c69 0 127 -23 176 -68s74 -104 74 -176c0 -71 -25 -130 -74 -175s-107 -68 -176 -68zM211 302c-37 -37 -37 -98 0 -137c39 -37 100 -37 137 0c39 39 39 100 0 137
c-37 39 -98 39 -137 0zM223 549l-138 174h148l93 -174h-103z" />
    <glyph glyph-name="oacute" unicode="&#xf3;" horiz-adv-x="563" 
d="M280 -9c-68 0 -126 23 -175 68c-48 45 -72 104 -72 175c0 72 24 131 72 176c49 45 107 68 175 68c69 0 127 -23 176 -68s74 -104 74 -176c0 -71 -25 -130 -74 -175s-107 -68 -176 -68zM211 165c39 -37 100 -37 137 0c39 39 39 100 0 137c-37 39 -98 39 -137 0
c-37 -37 -37 -98 0 -137zM218 549l93 174h148l-138 -174h-103z" />
    <glyph glyph-name="ocircumflex" unicode="&#xf4;" horiz-adv-x="563" 
d="M280 -9c-68 0 -126 23 -175 68c-48 45 -72 104 -72 175c0 72 24 131 72 176c49 45 107 68 175 68c69 0 127 -23 176 -68s74 -104 74 -176c0 -71 -25 -130 -74 -175s-107 -68 -176 -68zM211 302c-37 -37 -37 -98 0 -137c39 -37 100 -37 137 0c39 39 39 100 0 137
c-37 39 -98 39 -137 0zM201 557h-107l109 173h156l110 -173h-108l-80 89z" />
    <glyph glyph-name="otilde" unicode="&#xf5;" horiz-adv-x="563" 
d="M280 -9c-68 0 -126 23 -175 68c-48 45 -72 104 -72 175c0 72 24 131 72 176c49 45 107 68 175 68c69 0 127 -23 176 -68s74 -104 74 -176c0 -71 -25 -130 -74 -175s-107 -68 -176 -68zM211 302c-37 -37 -37 -98 0 -137c39 -37 100 -37 137 0c39 39 39 100 0 137
c-37 39 -98 39 -137 0zM238 597c-11 0 -25 -15 -26 -43h-75c4 89 52 130 101 130c15 0 32 -7 50 -21c18 -13 30 -20 37 -20c11 0 25 13 26 41h75c-4 -88 -52 -128 -101 -128c-14 0 -30 7 -49 20c-19 14 -31 21 -38 21z" />
    <glyph glyph-name="odieresis" unicode="&#xf6;" horiz-adv-x="563" 
d="M280 -9c-68 0 -126 23 -175 68c-48 45 -72 104 -72 175c0 72 24 131 72 176c49 45 107 68 175 68c69 0 127 -23 176 -68s74 -104 74 -176c0 -71 -25 -130 -74 -175s-107 -68 -176 -68zM211 165c39 -37 100 -37 137 0c39 39 39 100 0 137c-37 39 -98 39 -137 0
c-37 -37 -37 -98 0 -137zM112 641c0 40 34 72 77 72c41 0 75 -32 75 -72c0 -41 -32 -73 -75 -73s-77 32 -77 73zM300 641c0 40 35 72 78 72c41 0 74 -32 74 -72c0 -41 -33 -73 -74 -73c-43 0 -78 32 -78 73z" />
    <glyph glyph-name="divide" unicode="&#xf7;" horiz-adv-x="621" 
d="M250 14c-32 32 -32 87 0 116c32 31 86 31 118 0c33 -29 33 -84 0 -116c-32 -31 -86 -31 -118 0zM226 460c0 45 36 80 83 80s84 -35 84 -80c0 -48 -37 -81 -84 -81s-83 33 -83 81zM571 320v-102h-521v102h521z" />
    <glyph glyph-name="oslash" unicode="&#xf8;" horiz-adv-x="563" 
d="M132 37l-55 -56l-41 41l53 54c-37 44 -56 97 -56 158c0 72 24 131 72 176c49 45 107 68 175 68c57 0 108 -16 153 -49l51 52l41 -40l-50 -51c37 -44 55 -96 55 -156c0 -71 -25 -130 -74 -175s-107 -68 -176 -68c-56 0 -105 15 -148 46zM183 234c0 -19 4 -35 13 -48
l130 133c-16 8 -31 12 -46 12c-53 0 -97 -44 -97 -97zM280 137c53 0 97 44 97 97c0 15 -4 29 -11 44l-128 -132c13 -6 27 -9 42 -9z" />
    <glyph glyph-name="ugrave" unicode="&#xf9;" horiz-adv-x="590" 
d="M371 221v245h159v-466h-159v73c-7 -27 -25 -47 -52 -61s-54 -21 -79 -21c-123 0 -186 82 -186 230v245h159v-240c0 -56 36 -81 76 -81c44 0 82 21 82 76zM263 549l-138 174h148l93 -174h-103z" />
    <glyph glyph-name="uacute" unicode="&#xfa;" horiz-adv-x="590" 
d="M371 221v245h159v-466h-159v73c-7 -27 -25 -47 -52 -61s-54 -21 -79 -21c-123 0 -186 82 -186 230v245h159v-240c0 -56 36 -81 76 -81c44 0 82 21 82 76zM231 549l93 174h148l-138 -174h-103z" />
    <glyph glyph-name="ucircumflex" unicode="&#xfb;" horiz-adv-x="590" 
d="M371 221v245h159v-466h-159v73c-7 -27 -25 -47 -52 -61s-54 -21 -79 -21c-123 0 -186 82 -186 230v245h159v-240c0 -56 36 -81 76 -81c44 0 82 21 82 76zM209 557h-107l109 173h156l110 -173h-108l-80 89z" />
    <glyph glyph-name="udieresis" unicode="&#xfc;" horiz-adv-x="590" 
d="M371 221v245h159v-466h-159v73c-7 -27 -25 -47 -52 -61s-54 -21 -79 -21c-123 0 -186 82 -186 230v245h159v-240c0 -56 36 -81 76 -81c44 0 82 21 82 76zM132 641c0 40 34 72 77 72c41 0 75 -32 75 -72c0 -41 -32 -73 -75 -73s-77 32 -77 73zM320 641c0 40 35 72 78 72
c41 0 74 -32 74 -72c0 -41 -33 -73 -74 -73c-43 0 -78 32 -78 73z" />
    <glyph glyph-name="yacute" unicode="&#xfd;" horiz-adv-x="518" 
d="M517 466l-288 -696h-167l117 292l-183 404h174l91 -226l87 226h169zM183 549l93 174h148l-138 -174h-103z" />
    <glyph glyph-name="thorn" unicode="&#xfe;" horiz-adv-x="609" 
d="M60 711h159v-288c33 37 76 55 129 55c61 0 114 -23 159 -68s68 -103 68 -176s-23 -131 -68 -176s-98 -67 -159 -67c-57 0 -113 25 -138 76v-297h-150v941zM384 164c39 39 39 100 0 137c-37 39 -98 39 -137 0c-37 -37 -37 -98 0 -137c39 -37 100 -37 137 0z" />
    <glyph glyph-name="ydieresis" unicode="&#xff;" horiz-adv-x="518" 
d="M517 466l-288 -696h-167l117 292l-183 404h174l91 -226l87 226h169zM89 641c0 40 34 72 77 72c41 0 75 -32 75 -72c0 -41 -32 -73 -75 -73s-77 32 -77 73zM277 641c0 40 35 72 78 72c41 0 74 -32 74 -72c0 -41 -33 -73 -74 -73c-43 0 -78 32 -78 73z" />
    <glyph glyph-name="Amacron" unicode="&#x100;" horiz-adv-x="667" 
d="M678 0h-177l-58 158h-217l-58 -158h-179l254 689h182zM400 302l-67 227l-62 -227h129zM477 866v-87h-288v87h288z" />
    <glyph glyph-name="amacron" unicode="&#x101;" horiz-adv-x="608" 
d="M389 416v50h159v-466h-159v53c-29 -41 -72 -62 -129 -62c-61 0 -114 22 -159 67s-68 103 -68 176s23 131 68 176s98 68 159 68c49 0 101 -22 129 -62zM223 301c-37 -37 -37 -98 0 -137c39 -37 100 -37 137 0c39 39 39 100 0 137c-37 39 -98 39 -137 0zM449 666v-87h-288
v87h288z" />
    <glyph glyph-name="Abreve" unicode="&#x102;" horiz-adv-x="667" 
d="M443 158h-217l-58 -158h-179l254 689h182l253 -689h-177zM271 302h129l-67 227zM197 896h89c0 -35 12 -50 47 -50c30 0 45 17 45 50h91c0 -79 -56 -132 -136 -132c-87 0 -136 60 -136 132z" />
    <glyph glyph-name="abreve" unicode="&#x103;" horiz-adv-x="608" 
d="M389 466h159v-466h-159v53c-29 -41 -72 -62 -129 -62c-61 0 -114 22 -159 67s-68 103 -68 176s23 131 68 176s98 68 159 68c49 0 101 -22 129 -62v50zM223 164c39 -37 100 -37 137 0c39 39 39 100 0 137c-37 39 -98 39 -137 0c-37 -37 -37 -98 0 -137zM169 696h89
c0 -35 12 -50 47 -50c30 0 45 17 45 50h91c0 -79 -56 -132 -136 -132c-87 0 -136 60 -136 132z" />
    <glyph glyph-name="Aogonek" unicode="&#x104;" horiz-adv-x="667" 
d="M400 302l-67 227l-62 -227h129zM425 689l253 -689l-44 -86c-9 -25 -5 -43 12 -54c15 -9 28 -7 41 5c10 10 14 25 12 44l70 4c3 -84 -48 -129 -109 -129c-28 0 -52 10 -73 31c-21 20 -31 45 -31 74c0 21 4 38 11 51l40 60h-106l-58 158h-217l-58 -158h-179l254 689h182z
" />
    <glyph glyph-name="aogonek" unicode="&#x105;" horiz-adv-x="608" 
d="M548 466v-466l-44 -86c-9 -25 -5 -43 12 -54c15 -9 28 -7 41 5c10 10 14 25 12 44l70 4c3 -84 -48 -129 -109 -129c-28 0 -52 10 -73 31c-21 20 -31 45 -31 74c0 21 4 38 11 51l40 60h-88v53c-29 -41 -72 -62 -129 -62c-61 0 -114 22 -159 67s-68 103 -68 176
s23 131 68 176s98 68 159 68c49 0 101 -22 129 -62v50h159zM223 301c-37 -37 -37 -98 0 -137c39 -37 100 -37 137 0c39 39 39 100 0 137c-37 39 -98 39 -137 0z" />
    <glyph glyph-name="Cacute" unicode="&#x106;" horiz-adv-x="707" 
d="M682 149c-64 -97 -173 -158 -293 -158c-97 0 -179 34 -248 103s-103 153 -103 250c0 98 34 181 102 250c69 69 152 104 249 104c121 0 230 -61 294 -158c5 4 -23 -16 -67 -47c-43 -29 -59 -41 -72 -50c-32 53 -91 87 -155 87c-51 0 -94 -18 -129 -55
c-35 -36 -53 -80 -53 -131s18 -95 53 -131s78 -54 129 -54c65 0 123 33 156 86zM326 772l93 174h148l-138 -174h-103z" />
    <glyph glyph-name="cacute" unicode="&#x107;" horiz-adv-x="526" 
d="M281 147c36 0 61 13 75 38l142 -79c-51 -77 -120 -115 -206 -115c-72 0 -133 22 -184 67c-50 45 -75 104 -75 176s25 131 76 176s112 68 183 68c85 0 154 -38 205 -115l-139 -84c-15 28 -40 42 -77 42c-47 0 -86 -40 -86 -87s39 -87 86 -87zM226 549l93 174h148
l-138 -174h-103z" />
    <glyph glyph-name="Ccircumflex" unicode="&#x108;" horiz-adv-x="707" 
d="M545 245l137 -96c-64 -97 -173 -158 -293 -158c-97 0 -179 34 -248 103s-103 153 -103 250c0 98 34 181 102 250c69 69 152 104 249 104c121 0 230 -61 294 -158c-93 -65 -139 -97 -139 -97c-32 53 -91 87 -155 87c-51 0 -94 -18 -129 -55c-35 -36 -53 -80 -53 -131
s18 -95 53 -131s78 -54 129 -54c65 0 123 33 156 86zM307 780h-107l109 173h156l110 -173h-108l-80 89z" />
    <glyph glyph-name="ccircumflex" unicode="&#x109;" horiz-adv-x="526" 
d="M281 147c36 0 61 13 75 38l142 -79c-51 -77 -120 -115 -206 -115c-72 0 -133 22 -184 67c-50 45 -75 104 -75 176s25 131 76 176s112 68 183 68c85 0 154 -38 205 -115l-139 -84c-15 28 -40 42 -77 42c-47 0 -86 -40 -86 -87s39 -87 86 -87zM203 557h-107l109 173h156
l110 -173h-108l-80 89z" />
    <glyph glyph-name="Cdotaccent" unicode="&#x10a;" horiz-adv-x="707" 
d="M682 149c-64 -97 -173 -158 -293 -158c-97 0 -179 34 -248 103s-103 153 -103 250c0 98 34 181 102 250c69 69 152 104 249 104c121 0 230 -61 294 -158c5 4 -23 -16 -67 -47c-43 -29 -59 -41 -72 -50c-32 53 -91 87 -155 87c-51 0 -94 -18 -129 -55
c-35 -36 -53 -80 -53 -131s18 -95 53 -131s78 -54 129 -54c65 0 123 33 156 86zM278 870c0 45 36 80 83 80s83 -35 83 -80c0 -47 -36 -81 -83 -81c-48 0 -83 33 -83 81z" />
    <glyph glyph-name="cdotaccent" unicode="&#x10b;" horiz-adv-x="526" 
d="M281 147c36 0 61 13 75 38l142 -79c-51 -77 -120 -115 -206 -115c-72 0 -133 22 -184 67c-50 45 -75 104 -75 176s25 131 76 176s112 68 183 68c85 0 154 -38 205 -115l-139 -84c-15 28 -40 42 -77 42c-47 0 -86 -40 -86 -87s39 -87 86 -87zM197 647c0 45 36 80 83 80
s83 -35 83 -80c0 -47 -36 -81 -83 -81c-48 0 -83 33 -83 81z" />
    <glyph glyph-name="Ccaron" unicode="&#x10c;" horiz-adv-x="707" 
d="M682 149c-64 -97 -173 -158 -293 -158c-97 0 -179 34 -248 103s-103 153 -103 250c0 98 34 181 102 250c69 69 152 104 249 104c121 0 230 -61 294 -158c5 4 -23 -16 -67 -47c-43 -29 -59 -41 -72 -50c-32 53 -91 87 -155 87c-51 0 -94 -18 -129 -55
c-35 -36 -53 -80 -53 -131s18 -95 53 -131s78 -54 129 -54c65 0 123 33 156 86zM579 946l-110 -173h-156l-109 173h107l80 -90l80 90h108z" />
    <glyph glyph-name="ccaron" unicode="&#x10d;" horiz-adv-x="526" 
d="M281 147c36 0 61 13 75 38l142 -79c-51 -77 -120 -115 -206 -115c-72 0 -133 22 -184 67c-50 45 -75 104 -75 176s25 131 76 176s112 68 183 68c85 0 154 -38 205 -115l-139 -84c-15 28 -40 42 -77 42c-47 0 -86 -40 -86 -87s39 -87 86 -87zM462 723l-110 -173h-156
l-109 173h107l80 -90l80 90h108z" />
    <glyph glyph-name="Dcaron" unicode="&#x10e;" horiz-adv-x="705" 
d="M245 149h105c46 0 82 19 107 56c26 38 39 84 39 138c0 55 -13 101 -39 139c-25 39 -61 58 -107 58h-105v-391zM77 689h273c97 0 173 -33 229 -98s84 -147 84 -248c0 -100 -28 -182 -84 -247c-55 -64 -132 -96 -229 -96h-273v689zM550 923l-110 -173h-156l-109 173h107
l80 -90l80 90h108z" />
    <glyph glyph-name="dcaron" unicode="&#x10f;" horiz-adv-x="608" 
d="M647 465l-72 41c23 31 39 62 48 91c9 30 14 68 15 114h128c-11 -107 -51 -189 -119 -246zM389 711h159v-711h-150v67c-25 -51 -81 -76 -138 -76c-61 0 -114 22 -159 67s-68 103 -68 176s23 131 68 176s98 68 159 68c53 0 96 -18 129 -55v288zM223 164
c39 -37 100 -37 137 0c39 39 39 100 0 137c-37 39 -98 39 -137 0c-37 -37 -37 -98 0 -137z" />
    <glyph glyph-name="Dcroat" unicode="&#x110;" horiz-adv-x="722" 
d="M368 383v-101h-106v-133h105c46 0 82 19 107 56c26 38 39 84 39 138c0 55 -13 101 -39 139c-25 39 -61 58 -107 58h-105v-157h106zM94 0v282h-94v101h94v306h273c97 0 173 -33 229 -98s84 -147 84 -248c0 -100 -28 -182 -84 -247c-55 -64 -132 -96 -229 -96h-273z" />
    <glyph glyph-name="dslash" unicode="&#x111;" horiz-adv-x="608" 
d="M389 423v120h-132v80h132v88h159v-88h66v-80h-66v-543h-150v67c-25 -51 -81 -76 -138 -76c-61 0 -114 22 -159 67s-68 103 -68 176s23 131 68 176s98 68 159 68c53 0 96 -18 129 -55zM223 301c-37 -37 -37 -98 0 -137c39 -37 100 -37 137 0c39 39 39 100 0 137
c-37 39 -98 39 -137 0z" />
    <glyph glyph-name="Emacron" unicode="&#x112;" horiz-adv-x="581" 
d="M533 146v-146h-456v689h447v-146h-280v-132h246v-143h-246v-122h289zM429 866v-87h-288v87h288z" />
    <glyph glyph-name="emacron" unicode="&#x113;" horiz-adv-x="550" 
d="M523 240c0 -8 -1 -25 -3 -51h-334c5 -43 54 -71 107 -71c37 0 67 13 89 39c7 -6 26 -20 56 -41c31 -21 49 -34 54 -38c-44 -58 -114 -87 -211 -87c-69 0 -127 23 -176 68c-48 46 -72 105 -72 177c0 71 24 129 72 174c49 45 107 68 176 68s126 -22 172 -66
c47 -43 70 -101 70 -172zM186 278h186c-13 52 -57 69 -93 69c-11 0 -22 -1 -33 -4c-21 -5 -53 -29 -60 -65zM422 666v-87h-288v87h288z" />
    <glyph glyph-name="Ebreve" unicode="&#x114;" horiz-adv-x="581" 
d="M77 0v689h447v-146h-280v-132h246v-143h-246v-122h289v-146h-456zM149 896h89c0 -35 12 -50 47 -50c30 0 45 17 45 50h91c0 -79 -56 -132 -136 -132c-87 0 -136 60 -136 132z" />
    <glyph glyph-name="ebreve" unicode="&#x115;" horiz-adv-x="550" 
d="M142 696h89c0 -35 12 -50 47 -50c30 0 45 17 45 50h91c0 -79 -56 -132 -136 -132c-87 0 -136 60 -136 132zM523 240c0 -8 -1 -25 -3 -51h-334c5 -43 54 -71 107 -71c37 0 67 13 89 39c7 -6 26 -20 56 -41c31 -21 49 -34 54 -38c-44 -58 -114 -87 -211 -87
c-69 0 -127 23 -176 68c-48 46 -72 105 -72 177c0 71 24 129 72 174c49 45 107 68 176 68s126 -22 172 -66c47 -43 70 -101 70 -172zM186 278h186c-18 57 -67 71 -93 69c-37 0 -82 -17 -93 -69z" />
    <glyph glyph-name="Edotaccent" unicode="&#x116;" horiz-adv-x="581" 
d="M77 0v689h447v-146h-280v-132h246v-143h-246v-122h289v-146h-456zM202 847c0 45 36 80 83 80s83 -35 83 -80c0 -47 -36 -81 -83 -81c-48 0 -83 33 -83 81z" />
    <glyph glyph-name="edotaccent" unicode="&#x117;" horiz-adv-x="550" 
d="M195 647c0 45 36 80 83 80s83 -35 83 -80c0 -47 -36 -81 -83 -81c-48 0 -83 33 -83 81zM523 240c0 -8 -1 -25 -3 -51h-334c5 -43 54 -71 107 -71c37 0 67 13 89 39c7 -6 26 -20 56 -41c31 -21 49 -34 54 -38c-44 -58 -114 -87 -211 -87c-69 0 -127 23 -176 68
c-48 46 -72 105 -72 177c0 71 24 129 72 174c49 45 107 68 176 68s126 -22 172 -66c47 -43 70 -101 70 -172zM186 278h186c-18 57 -67 71 -93 69c-37 0 -82 -17 -93 -69z" />
    <glyph glyph-name="Eogonek" unicode="&#x118;" horiz-adv-x="581" 
d="M244 146h289v-146l-44 -86c-9 -25 -5 -43 12 -54c15 -9 28 -7 41 5c10 10 14 25 12 44l70 4c3 -84 -48 -129 -109 -129c-28 0 -52 10 -73 31c-21 20 -31 45 -31 74c0 21 4 38 11 51l40 60h-385v689h447v-146h-280v-132h246v-143h-246v-122z" />
    <glyph glyph-name="eogonek" unicode="&#x119;" horiz-adv-x="551" 
d="M283 -9c-69 0 -128 23 -177 68c-49 46 -73 105 -73 177c0 71 24 129 72 174c49 45 107 68 176 68s126 -22 172 -66c47 -43 70 -101 70 -172c0 -8 -1 -25 -3 -51h-334c5 -43 54 -71 107 -71c37 0 67 13 89 39c7 -6 26 -20 56 -41c31 -21 49 -34 54 -38
c-3 -4 -14 -15 -31 -33c-33 -36 -66 -78 -89 -131c-9 -25 -5 -43 12 -54c15 -9 28 -7 41 5c10 10 14 25 12 44l70 4c3 -84 -48 -129 -109 -129c-28 0 -52 10 -73 31c-21 20 -31 45 -31 74c0 21 4 38 11 51l36 56c-22 -3 -41 -5 -58 -5zM186 278h186c-13 52 -57 69 -93 69
c-11 0 -22 -1 -33 -4c-21 -5 -53 -29 -60 -65z" />
    <glyph glyph-name="Ecaron" unicode="&#x11a;" horiz-adv-x="581" 
d="M77 0v689h447v-146h-280v-132h246v-143h-246v-122h289v-146h-456zM473 923l-110 -173h-156l-109 173h107l80 -90l80 90h108z" />
    <glyph glyph-name="ecaron" unicode="&#x11b;" horiz-adv-x="550" 
d="M466 723l-110 -173h-156l-109 173h107l80 -90l80 90h108zM523 240c0 -8 -1 -25 -3 -51h-334c5 -43 54 -71 107 -71c37 0 67 13 89 39c7 -6 26 -20 56 -41c31 -21 49 -34 54 -38c-44 -58 -114 -87 -211 -87c-69 0 -127 23 -176 68c-48 46 -72 105 -72 177
c0 71 24 129 72 174c49 45 107 68 176 68s126 -22 172 -66c47 -43 70 -101 70 -172zM186 278h186c-18 57 -67 71 -93 69c-37 0 -82 -17 -93 -69z" />
    <glyph glyph-name="Gcircumflex" unicode="&#x11c;" horiz-adv-x="756" 
d="M662 576l-124 -105c-39 48 -88 72 -145 72c-52 0 -96 -19 -132 -58s-54 -86 -54 -141s18 -102 54 -142c36 -39 80 -59 132 -59c91 0 143 31 158 92h-193v134h375c0 -127 -31 -221 -92 -284s-144 -94 -248 -94c-99 0 -183 34 -252 103s-103 153 -103 250
c0 98 34 181 103 250s153 104 252 104c109 0 208 -46 269 -122zM301 757h-107l109 173h156l110 -173h-108l-80 89z" />
    <glyph glyph-name="gcircumflex" unicode="&#x11d;" horiz-adv-x="608" 
d="M223 301c-37 -37 -37 -98 0 -137c39 -37 100 -37 137 0c39 39 39 100 0 137c-37 39 -98 39 -137 0zM43 -84l134 54c16 -37 55 -62 103 -62c79 0 123 51 123 150c-25 -45 -73 -67 -143 -67c-61 0 -114 22 -159 67s-68 103 -68 176s23 131 68 176s98 68 159 68
c49 0 101 -22 129 -62v50h159v-407c0 -193 -96 -296 -268 -296c-108 0 -200 62 -237 153zM225 557h-107l109 173h156l110 -173h-108l-80 89z" />
    <glyph glyph-name="Gbreve" unicode="&#x11e;" horiz-adv-x="756" 
d="M255 896h89c0 -35 12 -50 47 -50c30 0 45 17 45 50h91c0 -79 -56 -132 -136 -132c-87 0 -136 60 -136 132zM662 576l-124 -105c-39 48 -88 72 -145 72c-52 0 -96 -19 -132 -58s-54 -86 -54 -141s18 -102 54 -142c36 -39 80 -59 132 -59c91 0 143 31 158 92h-193v134h375
c0 -127 -31 -221 -92 -284s-144 -94 -248 -94c-99 0 -183 34 -252 103s-103 153 -103 250c0 98 34 181 103 250s153 104 252 104c109 0 208 -46 269 -122z" />
    <glyph glyph-name="gbreve" unicode="&#x11f;" horiz-adv-x="608" 
d="M223 301c-37 -37 -37 -98 0 -137c39 -37 100 -37 137 0c39 39 39 100 0 137c-37 39 -98 39 -137 0zM43 -84l134 54c16 -37 55 -62 103 -62c79 0 123 51 123 150c-25 -45 -73 -67 -143 -67c-61 0 -114 22 -159 67s-68 103 -68 176s23 131 68 176s98 68 159 68
c49 0 101 -22 129 -62v50h159v-407c0 -193 -96 -296 -268 -296c-108 0 -200 62 -237 153zM169 696h89c0 -35 12 -50 47 -50c30 0 45 17 45 50h91c0 -79 -56 -132 -136 -132c-87 0 -136 60 -136 132z" />
    <glyph glyph-name="Gdotaccent" unicode="&#x120;" horiz-adv-x="756" 
d="M298 847c0 45 36 80 83 80s83 -35 83 -80c0 -47 -36 -81 -83 -81c-48 0 -83 33 -83 81zM662 576l-124 -105c-39 48 -88 72 -145 72c-52 0 -96 -19 -132 -58s-54 -86 -54 -141s18 -102 54 -142c36 -39 80 -59 132 -59c91 0 143 31 158 92h-193v134h375
c0 -127 -31 -221 -92 -284s-144 -94 -248 -94c-99 0 -183 34 -252 103s-103 153 -103 250c0 98 34 181 103 250s153 104 252 104c109 0 208 -46 269 -122z" />
    <glyph glyph-name="gdotaccent" unicode="&#x121;" horiz-adv-x="608" 
d="M223 301c-37 -37 -37 -98 0 -137c39 -37 100 -37 137 0c39 39 39 100 0 137c-37 39 -98 39 -137 0zM43 -84l134 54c16 -37 55 -62 103 -62c79 0 123 51 123 150c-25 -45 -73 -67 -143 -67c-61 0 -114 22 -159 67s-68 103 -68 176s23 131 68 176s98 68 159 68
c49 0 101 -22 129 -62v50h159v-407c0 -193 -96 -296 -268 -296c-108 0 -200 62 -237 153zM222 647c0 45 36 80 83 80s83 -35 83 -80c0 -47 -36 -81 -83 -81c-48 0 -83 33 -83 81z" />
    <glyph glyph-name="Gcommaaccent" unicode="&#x122;" horiz-adv-x="756" 
d="M662 576l-124 -105c-39 48 -88 72 -145 72c-52 0 -96 -19 -132 -58s-54 -86 -54 -141s18 -102 54 -142c36 -39 80 -59 132 -59c91 0 143 31 158 92h-193v134h375c0 -127 -31 -221 -92 -284s-144 -94 -248 -94c-99 0 -183 34 -252 103s-103 153 -103 250
c0 98 34 181 103 250s153 104 252 104c109 0 208 -46 269 -122zM339 -302l-72 42c23 31 39 62 48 91s14 67 15 113h128c-11 -107 -51 -189 -119 -246z" />
    <glyph glyph-name="gcommaaccent" unicode="&#x123;" horiz-adv-x="608" 
d="M223 301c-37 -37 -37 -98 0 -137c39 -37 100 -37 137 0c39 39 39 100 0 137c-37 39 -98 39 -137 0zM43 -84l134 54c16 -37 55 -62 103 -62c79 0 123 51 123 150c-25 -45 -73 -67 -143 -67c-61 0 -114 22 -159 67s-68 103 -68 176s23 131 68 176s98 68 159 68
c49 0 101 -22 129 -62v50h159v-407c0 -193 -96 -296 -268 -296c-108 0 -200 62 -237 153zM319 777l72 -42c-23 -31 -39 -62 -48 -91s-14 -67 -15 -113h-128c11 107 51 189 119 246z" />
    <glyph glyph-name="Hcircumflex" unicode="&#x124;" horiz-adv-x="701" 
d="M244 417h210v272h170v-689h-170v268h-210v-268h-167v689h167v-272zM270 757h-107l109 173h156l110 -173h-108l-80 89z" />
    <glyph glyph-name="hcircumflex" unicode="&#x125;" horiz-adv-x="590" 
d="M219 245v-245h-159v711h159v-318c7 27 25 47 52 62c28 15 54 23 79 23c123 0 186 -82 186 -230v-248h-159v243c0 51 -39 81 -76 81c-43 0 -82 -26 -82 -79zM60 759h-107l109 173h156l110 -173h-108l-80 89z" />
    <glyph glyph-name="Hbar" unicode="&#x126;" horiz-adv-x="716" 
d="M462 510h-210v-93h210v93zM252 0h-168v510h-73v80h73v99h168v-99h210v99h170v-99h73v-80h-73v-510h-170v269h-210v-269z" />
    <glyph glyph-name="hbar" unicode="&#x127;" horiz-adv-x="590" 
d="M219 0h-159v543h-72v80h72v88h159v-88h126v-80h-126v-150c7 27 25 47 52 62c28 15 54 23 79 23c123 0 186 -82 186 -230v-248h-159v243c0 51 -39 81 -76 81c-43 0 -82 -26 -82 -79v-245z" />
    <glyph glyph-name="Itilde" unicode="&#x128;" horiz-adv-x="321" 
d="M117 797c-11 0 -25 -15 -26 -43h-75c4 89 52 130 101 130c15 0 32 -7 50 -21c18 -13 30 -20 37 -20c11 0 25 13 26 41h75c-4 -88 -52 -128 -101 -128c-15 0 -31 7 -50 20c-19 14 -31 21 -37 21zM244 0h-167v689h167v-689z" />
    <glyph glyph-name="itilde" unicode="&#x129;" horiz-adv-x="277" 
d="M60 0v467h157v-467h-157zM94 597c-11 0 -25 -15 -26 -43h-75c4 89 52 130 101 130c15 0 32 -7 50 -21c18 -13 30 -20 37 -20c11 0 25 13 26 41h75c-4 -88 -52 -128 -101 -128c-14 0 -30 7 -49 20c-19 14 -31 21 -38 21z" />
    <glyph glyph-name="Imacron" unicode="&#x12a;" horiz-adv-x="321" 
d="M305 866v-87h-288v87h288zM244 0h-167v689h167v-689z" />
    <glyph glyph-name="imacron" unicode="&#x12b;" horiz-adv-x="277" 
d="M60 0v467h157v-467h-157zM282 666v-87h-288v87h288z" />
    <glyph glyph-name="Ibreve" unicode="&#x12c;" horiz-adv-x="321" 
d="M77 689h167v-689h-167v689zM25 896h89c0 -35 12 -50 47 -50c30 0 45 17 45 50h91c0 -79 -56 -132 -136 -132c-87 0 -136 60 -136 132z" />
    <glyph glyph-name="ibreve" unicode="&#x12d;" horiz-adv-x="277" 
d="M217 467v-467h-157v467h157zM2 696h89c0 -35 12 -50 47 -50c30 0 45 17 45 50h91c0 -79 -56 -132 -136 -132c-87 0 -136 60 -136 132z" />
    <glyph glyph-name="Iogonek" unicode="&#x12e;" horiz-adv-x="321" 
d="M133 -70l40 70h-96v689h167v-689l-44 -96c-9 -25 -5 -43 12 -54c15 -9 28 -7 41 5c10 10 14 25 12 44l70 4c3 -84 -48 -129 -109 -129c-28 0 -52 10 -73 31c-21 20 -31 45 -31 74c0 21 4 38 11 51z" />
    <glyph glyph-name="iogonek" unicode="&#x12f;" horiz-adv-x="279" 
d="M43 621c0 51 44 90 96 90c53 0 95 -39 95 -90s-42 -91 -95 -91c-52 0 -96 42 -96 91zM108 -70l40 70h-88v466h159v-466h-1l-43 -96c-9 -25 -5 -43 12 -54c15 -9 28 -7 41 5c10 10 14 25 12 44l70 4c3 -84 -48 -129 -109 -129c-28 0 -52 10 -73 31c-21 20 -31 45 -31 74
c0 21 4 38 11 51z" />
    <glyph glyph-name="Idot" unicode="&#x130;" horiz-adv-x="321" 
d="M77 689h167v-689h-167v689zM78 847c0 45 36 80 83 80s83 -35 83 -80c0 -47 -36 -81 -83 -81c-48 0 -83 33 -83 81z" />
    <glyph glyph-name="dotlessi" unicode="&#x131;" horiz-adv-x="279" 
d="M219 0h-159v466h159v-466z" />
    <glyph glyph-name="IJ" unicode="&#x132;" horiz-adv-x="644" 
d="M224 -211l15 150c23 -8 55 -12 96 -12c43 0 63 32 63 80v682h169v-682c0 -70 -19 -127 -57 -171c-37 -44 -96 -66 -175 -66c-37 0 -74 6 -111 19zM244 0h-167v689h167v-689z" />
    <glyph glyph-name="ij" unicode="&#x133;" horiz-adv-x="558" 
d="M274 -237h-60v151h60c39 0 64 26 65 77v17v458h159v-458v-17c0 -148 -84 -228 -224 -228zM323 621c0 51 44 90 96 90c53 0 95 -39 95 -90s-42 -91 -95 -91c-52 0 -96 42 -96 91zM60 466h159v-466h-159v466zM43 621c0 51 44 90 96 90c53 0 95 -39 95 -90s-42 -91 -95 -91
c-52 0 -96 42 -96 91z" />
    <glyph glyph-name="Jcircumflex" unicode="&#x134;" horiz-adv-x="323" 
d="M-97 -211l15 150c23 -8 55 -12 96 -12c43 0 63 32 63 80v682h169v-682c0 -70 -19 -127 -57 -171c-37 -44 -96 -66 -175 -66c-37 0 -74 6 -111 19zM84 757h-107l109 173h156l110 -173h-108l-80 89z" />
    <glyph glyph-name="jcircumflex" unicode="&#x135;" horiz-adv-x="279" 
d="M-5 -237h-60v151h60c39 0 64 26 65 77v17v458h159v-458v-17c0 -148 -84 -228 -224 -228zM70 557h-107l109 173h156l110 -173h-108l-80 89z" />
    <glyph glyph-name="Kcommaaccent" unicode="&#x136;" horiz-adv-x="633" 
d="M590 689l-259 -340l322 -349h-229l-180 210v-210h-167v689h167v-197l137 197h209zM306 -302l-72 42c23 31 39 62 48 91s14 67 15 113h128c-11 -107 -51 -189 -119 -246z" />
    <glyph glyph-name="kcommaaccent" unicode="&#x137;" horiz-adv-x="538" 
d="M542 0h-190l-133 168v-168h-159v711h159v-358l91 113h195l-172 -207zM225 -302l-72 42c23 31 39 62 48 91s14 67 15 113h128c-11 -107 -51 -189 -119 -246z" />
    <glyph glyph-name="kgreenlandic" unicode="&#x138;" horiz-adv-x="517" 
d="M314 237l206 -237h-203l-101 146v-146h-156v467h156v-130l88 130h180z" />
    <glyph glyph-name="Lacute" unicode="&#x139;" horiz-adv-x="518" 
d="M77 0v689h169v-543h248v-146h-417zM78 749l93 174h148l-138 -174h-103z" />
    <glyph glyph-name="lacute" unicode="&#x13a;" horiz-adv-x="279" 
d="M60 711h159v-711h-159v711zM71 749l93 174h148l-138 -174h-103z" />
    <glyph glyph-name="Lcommaaccent" unicode="&#x13b;" horiz-adv-x="518" 
d="M494 146v-146h-417v689h169v-543h248zM224 -302l-72 42c23 31 39 62 48 91s14 67 15 113h128c-11 -107 -51 -189 -119 -246z" />
    <glyph glyph-name="lcommaaccent" unicode="&#x13c;" horiz-adv-x="279" 
d="M89 -302l-72 42c23 31 39 62 48 91s14 67 15 113h128c-11 -107 -51 -189 -119 -246zM219 0h-159v711h159v-711z" />
    <glyph glyph-name="Lcaron" unicode="&#x13d;" horiz-adv-x="527" 
d="M494 146v-146h-417v689h169v-543h248zM399 446l-62 38c22 32 38 63 47 92c10 29 15 67 16 113h116c-11 -106 -50 -187 -117 -243z" />
    <glyph glyph-name="lcaron" unicode="&#x13e;" horiz-adv-x="279" 
d="M219 0h-159v711h159v-711zM308 468l-62 38c22 32 38 63 47 92c10 29 15 67 16 113h116c-11 -106 -50 -187 -117 -243z" />
    <glyph glyph-name="Ldot" unicode="&#x13f;" horiz-adv-x="519" 
d="M291 296c0 52 42 91 94 91s95 -39 95 -91c0 -53 -43 -92 -95 -92c-53 0 -94 39 -94 92zM494 146v-146h-417v689h169v-543h248z" />
    <glyph glyph-name="ldot" unicode="&#x140;" horiz-adv-x="508" 
d="M299 296c0 52 42 91 94 91s95 -39 95 -91c0 -53 -43 -92 -95 -92c-53 0 -94 39 -94 92zM219 0h-159v711h159v-711z" />
    <glyph glyph-name="Lslash" unicode="&#x141;" horiz-adv-x="527" 
d="M503 146v-146h-417v265l-75 -46v93l75 46v331h169v-226l99 62v-93l-99 -62v-224h248z" />
    <glyph glyph-name="lslash" unicode="&#x142;" horiz-adv-x="346" 
d="M108 0v276l-92 -57v93l92 57v320h167v-216l84 52v-93l-84 -52v-380h-167z" />
    <glyph glyph-name="Nacute" unicode="&#x143;" horiz-adv-x="678" 
d="M601 689v-689h-146l-211 376v-376h-167v689h151l206 -371v371h167zM270 749l93 174h148l-138 -174h-103z" />
    <glyph glyph-name="nacute" unicode="&#x144;" horiz-adv-x="590" 
d="M219 245v-245h-159v466h159v-73c7 27 25 47 52 62c28 15 54 23 79 23c123 0 186 -82 186 -230v-248h-159v243c0 56 -36 81 -76 81c-43 0 -82 -24 -82 -79zM213 549l93 174h148l-138 -174h-103z" />
    <glyph glyph-name="Ncommaaccent" unicode="&#x145;" horiz-adv-x="678" 
d="M434 318v371h167v-689h-146l-211 376v-376h-167v689h151zM315 -302l-72 42c23 31 39 62 48 91s14 67 15 113h128c-11 -107 -51 -189 -119 -246z" />
    <glyph glyph-name="ncommaaccent" unicode="&#x146;" horiz-adv-x="590" 
d="M219 245v-245h-159v466h159v-73c7 27 25 47 52 62c28 15 54 23 79 23c123 0 186 -82 186 -230v-248h-159v243c0 56 -36 81 -76 81c-43 0 -82 -24 -82 -79zM249 -302l-72 42c23 31 39 62 48 91s14 67 15 113h128c-11 -107 -51 -189 -119 -246z" />
    <glyph glyph-name="Ncaron" unicode="&#x147;" horiz-adv-x="678" 
d="M601 689v-689h-146l-211 376v-376h-167v689h151l206 -371v371h167zM526 923l-110 -173h-156l-109 173h107l80 -90l80 90h108z" />
    <glyph glyph-name="ncaron" unicode="&#x148;" horiz-adv-x="590" 
d="M219 245v-245h-159v466h159v-73c7 27 25 47 52 62c28 15 54 23 79 23c123 0 186 -82 186 -230v-248h-159v243c0 56 -36 81 -76 81c-43 0 -82 -24 -82 -79zM483 723l-110 -173h-156l-109 173h107l80 -90l80 90h108z" />
    <glyph glyph-name="napostrophe" unicode="&#x149;" horiz-adv-x="645" 
d="M274 245v-245h-159v466h159v-73c7 27 25 47 52 62c28 15 54 23 79 23c123 0 186 -82 186 -230v-248h-159v243c0 56 -36 81 -76 81c-43 0 -82 -24 -82 -79zM6 452l-72 42c23 31 39 62 48 91s14 67 15 113h128c-11 -107 -51 -189 -119 -246z" />
    <glyph glyph-name="Eng" unicode="&#x14a;" horiz-adv-x="678" 
d="M445 7v11l-201 358v-376h-167v689h151l206 -371v371h167v-689c-3 -136 -76 -230 -232 -230c-37 0 -74 6 -111 19l15 140c23 -8 55 -12 96 -12c43 0 76 43 76 90z" />
    <glyph glyph-name="eng" unicode="&#x14b;" horiz-adv-x="590" 
d="M378 8v235c0 56 -37 81 -77 81c-43 0 -82 -24 -82 -79v-245h-159v466h159v-73c7 27 25 47 52 62c28 15 54 23 79 23c123 0 186 -82 186 -230v-248c-3 -136 -76 -230 -232 -230c-37 0 -74 6 -111 19l15 129c23 -8 55 -12 96 -12c45 0 74 39 74 102z" />
    <glyph glyph-name="Omacron" unicode="&#x14c;" horiz-adv-x="779" 
d="M38 344c0 98 34 181 102 250c69 69 152 104 249 104c98 0 181 -35 249 -104c69 -69 103 -152 103 -250c0 -97 -34 -181 -103 -250c-68 -69 -151 -103 -249 -103c-97 0 -179 34 -248 103s-103 153 -103 250zM389 159c51 0 95 18 130 54c36 36 54 80 54 131s-18 95 -54 131
c-36 37 -79 55 -130 55s-94 -18 -129 -55c-35 -36 -53 -80 -53 -131s18 -95 53 -131s78 -54 129 -54zM533 866v-87h-288v87h288z" />
    <glyph glyph-name="omacron" unicode="&#x14d;" horiz-adv-x="563" 
d="M280 -9c-68 0 -126 23 -175 68c-48 45 -72 104 -72 175c0 72 24 131 72 176c49 45 107 68 175 68c69 0 127 -23 176 -68s74 -104 74 -176c0 -71 -25 -130 -74 -175s-107 -68 -176 -68zM211 302c-37 -37 -37 -98 0 -137c39 -37 100 -37 137 0c39 39 39 100 0 137
c-37 39 -98 39 -137 0zM425 666v-87h-288v87h288z" />
    <glyph glyph-name="Obreve" unicode="&#x14e;" horiz-adv-x="779" 
d="M38 344c0 98 34 181 102 250c69 69 152 104 249 104c98 0 181 -35 249 -104c69 -69 103 -152 103 -250c0 -97 -34 -181 -103 -250c-68 -69 -151 -103 -249 -103c-97 0 -179 34 -248 103s-103 153 -103 250zM389 159c51 0 95 18 130 54c36 36 54 80 54 131s-18 95 -54 131
c-36 37 -79 55 -130 55s-94 -18 -129 -55c-35 -36 -53 -80 -53 -131s18 -95 53 -131s78 -54 129 -54zM253 896h89c0 -35 12 -50 47 -50c30 0 45 17 45 50h91c0 -79 -56 -132 -136 -132c-87 0 -136 60 -136 132z" />
    <glyph glyph-name="obreve" unicode="&#x14f;" horiz-adv-x="563" 
d="M280 -9c-68 0 -126 23 -175 68c-48 45 -72 104 -72 175c0 72 24 131 72 176c49 45 107 68 175 68c69 0 127 -23 176 -68s74 -104 74 -176c0 -71 -25 -130 -74 -175s-107 -68 -176 -68zM211 165c39 -37 100 -37 137 0c39 39 39 100 0 137c-37 39 -98 39 -137 0
c-37 -37 -37 -98 0 -137zM145 696h89c0 -35 12 -50 47 -50c30 0 45 17 45 50h91c0 -79 -56 -132 -136 -132c-87 0 -136 60 -136 132z" />
    <glyph glyph-name="Ohungarumlaut" unicode="&#x150;" horiz-adv-x="779" 
d="M38 344c0 98 34 181 102 250c69 69 152 104 249 104c98 0 181 -35 249 -104c69 -69 103 -152 103 -250c0 -97 -34 -181 -103 -250c-68 -69 -151 -103 -249 -103c-97 0 -179 34 -248 103s-103 153 -103 250zM389 159c51 0 95 18 130 54c36 36 54 80 54 131s-18 95 -54 131
c-36 37 -79 55 -130 55s-94 -18 -129 -55c-35 -36 -53 -80 -53 -131s18 -95 53 -131s78 -54 129 -54zM261 747l93 173h105l-105 -173h-93zM404 747l107 173h108l-115 -173h-100z" />
    <glyph glyph-name="ohungarumlaut" unicode="&#x151;" horiz-adv-x="563" 
d="M280 -9c-68 0 -126 23 -175 68c-48 45 -72 104 -72 175c0 72 24 131 72 176c49 45 107 68 175 68c69 0 127 -23 176 -68s74 -104 74 -176c0 -71 -25 -130 -74 -175s-107 -68 -176 -68zM211 165c39 -37 100 -37 137 0c39 39 39 100 0 137c-37 39 -98 39 -137 0
c-37 -37 -37 -98 0 -137zM160 547l93 173h105l-105 -173h-93zM303 547l107 173h108l-115 -173h-100z" />
    <glyph glyph-name="OE" unicode="&#x152;" horiz-adv-x="1078" 
d="M1030 146v-146h-456v43c-57 -35 -118 -52 -185 -52c-97 0 -179 34 -248 103s-103 153 -103 250c0 98 34 181 102 250c69 69 152 104 249 104c65 0 127 -18 185 -53v44h447v-146h-280v-132h246v-143h-246v-122h289zM389 159c51 0 95 18 130 54c36 36 54 80 54 131
s-18 95 -54 131c-36 37 -79 55 -130 55s-94 -18 -129 -55c-35 -36 -53 -80 -53 -131s18 -95 53 -131s78 -54 129 -54z" />
    <glyph glyph-name="oe" unicode="&#x153;" horiz-adv-x="896" 
d="M869 240c0 -8 -1 -25 -3 -51h-334c5 -43 54 -71 107 -71c37 0 67 13 89 39c7 -6 26 -20 56 -41c31 -21 49 -34 54 -38c-44 -58 -114 -87 -211 -87c-68 0 -126 22 -173 66c-48 -44 -106 -66 -174 -66s-126 23 -175 68c-48 45 -72 104 -72 175c0 72 24 131 72 176
c49 45 107 68 175 68s126 -22 173 -65c47 43 105 65 174 65s126 -22 172 -66c47 -43 70 -101 70 -172zM211 302c-37 -37 -37 -98 0 -137c39 -37 100 -37 137 0c39 39 39 100 0 137c-37 39 -98 39 -137 0zM532 278h186c-13 52 -57 69 -93 69c-11 0 -22 -1 -33 -4
c-21 -5 -53 -29 -60 -65z" />
    <glyph glyph-name="Racute" unicode="&#x154;" horiz-adv-x="642" 
d="M77 0v689h285c76 0 134 -23 175 -68s61 -99 61 -162c0 -52 -14 -99 -43 -140c-28 -41 -69 -68 -122 -81l168 -238h-194l-148 230h-15v-230h-167zM354 543h-110v-169h110c100 -5 100 175 0 169zM220 749l93 174h148l-138 -174h-103z" />
    <glyph glyph-name="racute" unicode="&#x155;" horiz-adv-x="429" 
d="M71 549l93 174h148l-138 -174h-103zM219 153v-153h-159v466h151v-115c23 84 82 127 147 127c27 0 50 -4 69 -13l-39 -150c-22 8 -46 12 -72 12c-65 0 -97 -42 -97 -174z" />
    <glyph glyph-name="Rcommaaccent" unicode="&#x156;" horiz-adv-x="642" 
d="M244 230v-230h-167v689h285c76 0 134 -23 175 -68s61 -99 61 -162c0 -52 -14 -99 -43 -140c-28 -41 -69 -68 -122 -81l168 -238h-194l-148 230h-15zM354 543h-110v-169h110c100 -5 100 175 0 169zM275 -302l-72 42c23 31 39 62 48 91s14 67 15 113h128
c-11 -107 -51 -189 -119 -246z" />
    <glyph glyph-name="rcommaaccent" unicode="&#x157;" horiz-adv-x="429" 
d="M219 153v-153h-159v466h151v-115c23 84 82 127 147 127c27 0 50 -4 69 -13l-39 -150c-22 8 -46 12 -72 12c-65 0 -97 -42 -97 -174zM85 -302l-72 42c23 31 39 62 48 91s14 67 15 113h128c-11 -107 -51 -189 -119 -246z" />
    <glyph glyph-name="Rcaron" unicode="&#x158;" horiz-adv-x="642" 
d="M77 0v689h285c76 0 134 -23 175 -68s61 -99 61 -162c0 -52 -14 -99 -43 -140c-28 -41 -69 -68 -122 -81l168 -238h-194l-148 230h-15v-230h-167zM354 543h-110v-169h110c100 -5 100 175 0 169zM501 923l-110 -173h-156l-109 173h107l80 -90l80 90h108z" />
    <glyph glyph-name="rcaron" unicode="&#x159;" horiz-adv-x="429" 
d="M404 723l-110 -173h-156l-109 173h107l80 -90l80 90h108zM219 153v-153h-159v466h151v-115c23 84 82 127 147 127c27 0 50 -4 69 -13l-39 -150c-22 8 -46 12 -72 12c-65 0 -97 -42 -97 -174z" />
    <glyph glyph-name="Sacute" unicode="&#x15a;" horiz-adv-x="586" 
d="M40 205h169c3 -40 30 -67 85 -67c47 0 85 22 85 62c0 12 2 17 -21 34c-11 9 -27 16 -48 23l-81 27c-155 42 -179 140 -180 203c0 63 23 113 68 152s103 59 173 59s127 -19 171 -58c44 -38 66 -90 66 -157h-167c0 43 -24 64 -72 64c-45 0 -73 -22 -73 -55
c0 -25 21 -43 64 -56l79 -25c127 -39 191 -109 191 -210c0 -48 -14 -89 -41 -122s-59 -56 -96 -69s-76 -19 -118 -19c-77 0 -139 19 -185 58s-69 91 -69 156zM213 749l93 174h148l-138 -174h-103z" />
    <glyph glyph-name="sacute" unicode="&#x15b;" horiz-adv-x="481" 
d="M244 166l-59 16c-55 15 -95 42 -114 62c-9 10 -17 22 -22 37c-9 29 -8 37 -8 58c0 36 19 68 56 96c38 29 83 43 134 43c98 0 204 -41 204 -161h-149c0 28 -16 42 -47 42c-26 0 -39 -9 -39 -26c0 -15 12 -25 35 -30l83 -23c56 -15 95 -43 110 -72c16 -29 20 -49 20 -69
c0 -48 -21 -85 -64 -110s-92 -38 -147 -38c-53 0 -101 15 -142 44c-41 30 -61 70 -61 121h149c0 -24 18 -48 54 -48c27 0 49 12 49 31c0 13 -7 18 -42 27zM179 549l93 174h148l-138 -174h-103z" />
    <glyph glyph-name="Scircumflex" unicode="&#x15c;" horiz-adv-x="586" 
d="M40 205h169c3 -40 30 -67 85 -67c47 0 85 22 85 62c0 6 -1 11 -2 15c-3 8 -26 29 -67 42l-81 27c-155 42 -179 140 -180 203c0 63 23 113 68 152s103 59 173 59s127 -19 171 -58c44 -38 66 -90 66 -157h-167c0 43 -24 64 -72 64c-45 0 -73 -22 -73 -55
c0 -25 21 -43 64 -56l79 -25c127 -39 191 -109 191 -210c0 -48 -14 -89 -41 -122c-55 -65 -130 -88 -214 -88c-77 0 -139 19 -185 58s-69 91 -69 156zM214 757h-107l109 173h156l110 -173h-108l-80 89z" />
    <glyph glyph-name="scircumflex" unicode="&#x15d;" horiz-adv-x="481" 
d="M244 166l-59 16c-55 15 -95 42 -114 62c-9 10 -17 22 -22 37c-9 29 -8 37 -8 58c0 36 19 68 56 96c38 29 83 43 134 43c98 0 204 -41 204 -161h-149c0 28 -16 42 -47 42c-26 0 -39 -9 -39 -26c0 -15 12 -25 35 -30l83 -23c56 -15 95 -43 110 -72c16 -29 20 -49 20 -69
c0 -48 -21 -85 -64 -110s-92 -38 -147 -38c-53 0 -101 15 -142 44c-41 30 -61 70 -61 121h149c0 -24 18 -48 54 -48c27 0 49 12 49 31c0 13 -7 18 -42 27zM161 557h-107l109 173h156l110 -173h-108l-80 89z" />
    <glyph glyph-name="Scedilla" unicode="&#x15e;" horiz-adv-x="587" 
d="M324 -86l-40 77c-148 4 -244 86 -244 214h169c3 -40 30 -67 85 -67c47 0 85 22 85 62c0 6 -1 11 -2 15c-3 8 -26 29 -67 42l-81 27c-155 42 -179 140 -180 203c0 63 23 113 68 152s103 59 173 59s127 -19 171 -58c44 -38 66 -90 66 -157h-167c0 43 -24 64 -72 64
c-45 0 -73 -22 -73 -55c0 -25 21 -43 64 -56l79 -25c127 -39 191 -109 191 -210c0 -59 -19 -106 -57 -140c-37 -34 -84 -56 -140 -65l39 -56c7 -13 11 -30 11 -51c0 -29 -10 -54 -31 -74c-21 -21 -45 -31 -73 -31c-61 0 -112 45 -109 129l70 -4c-3 -28 6 -45 25 -52
c16 -5 29 -1 38 13c8 11 9 26 2 44z" />
    <glyph glyph-name="scedilla" unicode="&#x15f;" horiz-adv-x="483" 
d="M284 -6l36 -54c7 -13 11 -30 11 -51c0 -29 -10 -54 -31 -74c-21 -21 -45 -31 -73 -31c-61 0 -112 45 -109 129l70 -4c-3 -28 6 -45 25 -52c16 -5 29 -1 38 13c8 11 9 26 2 44l-39 78c-49 4 -92 21 -127 50s-52 67 -52 114h149c0 -24 18 -48 54 -48c27 0 49 12 49 31
c0 13 -7 18 -42 27l-59 16c-55 15 -95 42 -114 62c-9 10 -17 22 -22 37c-9 29 -8 37 -8 58c0 36 19 68 56 96c38 29 83 43 134 43c98 0 204 -41 204 -161h-149c0 28 -16 42 -47 42c-26 0 -39 -9 -39 -26c0 -15 12 -25 35 -30l83 -23c56 -15 95 -43 110 -72
c16 -29 20 -49 20 -69c0 -81 -72 -132 -165 -145z" />
    <glyph glyph-name="Scaron" unicode="&#x160;" horiz-adv-x="586" 
d="M40 205h169c3 -40 30 -67 85 -67c47 0 85 22 85 62c0 12 2 17 -21 34c-11 9 -27 16 -48 23l-81 27c-155 42 -179 140 -180 203c0 63 23 113 68 152s103 59 173 59s127 -19 171 -58c44 -38 66 -90 66 -157h-167c0 43 -24 64 -72 64c-45 0 -73 -22 -73 -55
c0 -25 21 -43 64 -56l79 -25c127 -39 191 -109 191 -210c0 -48 -14 -89 -41 -122s-59 -56 -96 -69s-76 -19 -118 -19c-77 0 -139 19 -185 58s-69 91 -69 156zM482 923l-110 -173h-156l-109 173h107l80 -90l80 90h108z" />
    <glyph glyph-name="scaron" unicode="&#x161;" horiz-adv-x="481" 
d="M244 166l-59 16c-55 15 -95 42 -114 62c-9 10 -17 22 -22 37c-9 29 -8 37 -8 58c0 36 19 68 56 96c38 29 83 43 134 43c98 0 204 -41 204 -161h-149c0 28 -16 42 -47 42c-26 0 -39 -9 -39 -26c0 -15 12 -25 35 -30l83 -23c56 -15 95 -43 110 -72c16 -29 20 -49 20 -69
c0 -48 -21 -85 -64 -110s-92 -38 -147 -38c-53 0 -101 15 -142 44c-41 30 -61 70 -61 121h149c0 -24 18 -48 54 -48c27 0 49 12 49 31c0 13 -7 18 -42 27zM429 723l-110 -173h-156l-109 173h107l80 -90l80 90h108z" />
    <glyph glyph-name="Tcommaaccent" unicode="&#x162;" horiz-adv-x="577" 
d="M205 0v543h-178v146h523v-146h-178v-543h-167zM228 -302l-72 42c23 31 39 62 48 91s14 67 15 113h128c-11 -107 -51 -189 -119 -246z" />
    <glyph glyph-name="tcommaaccent" unicode="&#x163;" horiz-adv-x="378" 
d="M105 633h157v-167h98v-117h-98v-349h-157v349h-85v117h85v167zM125 -302l-72 42c23 31 39 62 48 91s14 67 15 113h128c-11 -107 -51 -189 -119 -246z" />
    <glyph glyph-name="Tcaron" unicode="&#x164;" horiz-adv-x="577" 
d="M27 543v146h523v-146h-178v-543h-167v543h-178zM476 923l-110 -173h-156l-109 173h107l80 -90l80 90h108z" />
    <glyph glyph-name="tcaron" unicode="&#x165;" horiz-adv-x="378" 
d="M376 523l-62 38c22 32 38 63 47 92c10 29 15 67 16 113h116c-11 -106 -50 -187 -117 -243zM262 466h98v-117h-98v-349h-157v349h-85v117h85v167h157v-167z" />
    <glyph glyph-name="Tbar" unicode="&#x166;" horiz-adv-x="577" 
d="M205 0v283h-95v75h95v185h-178v146h523v-146h-178v-185h95v-75h-95v-283h-167z" />
    <glyph glyph-name="tbar" unicode="&#x167;" horiz-adv-x="378" 
d="M105 0v174h-54v75h54v100h-85v117h85v167h157v-167h98v-117h-98v-100h60v-75h-60v-174h-157z" />
    <glyph glyph-name="Utilde" unicode="&#x168;" horiz-adv-x="682" 
d="M297 797c-11 0 -25 -15 -26 -43h-75c4 89 52 130 101 130c15 0 32 -7 50 -21c18 -13 30 -20 37 -20c11 0 25 13 26 41h75c-4 -88 -52 -128 -101 -128c-15 0 -31 7 -50 20c-19 14 -31 21 -37 21zM69 251v438h168v-438c0 -30 10 -55 31 -74s46 -29 73 -29s51 10 72 29
s32 44 32 74v438h168v-438c0 -77 -27 -139 -81 -188c-53 -48 -117 -72 -191 -72s-138 24 -192 72c-53 49 -80 111 -80 188z" />
    <glyph glyph-name="utilde" unicode="&#x169;" horiz-adv-x="590" 
d="M258 597c-11 0 -25 -15 -26 -43h-75c4 89 52 130 101 130c15 0 32 -7 50 -21c18 -13 30 -20 37 -20c11 0 25 13 26 41h75c-4 -88 -52 -128 -101 -128c-14 0 -30 7 -49 20c-19 14 -31 21 -38 21zM371 221v245h159v-466h-159v73c-7 -27 -25 -47 -52 -61s-54 -21 -79 -21
c-123 0 -186 82 -186 230v245h159v-240c0 -56 36 -81 76 -81c44 0 82 21 82 76z" />
    <glyph glyph-name="Umacron" unicode="&#x16a;" horiz-adv-x="682" 
d="M69 251v438h168v-438c0 -30 10 -55 31 -74s46 -29 73 -29s51 10 72 29s32 44 32 74v438h168v-438c0 -77 -27 -139 -81 -188c-53 -48 -117 -72 -191 -72s-138 24 -192 72c-53 49 -80 111 -80 188zM485 866v-87h-288v87h288z" />
    <glyph glyph-name="umacron" unicode="&#x16b;" horiz-adv-x="590" 
d="M371 221v245h159v-466h-159v73c-7 -27 -25 -47 -52 -61s-54 -21 -79 -21c-123 0 -186 82 -186 230v245h159v-240c0 -56 36 -81 76 -81c44 0 82 21 82 76zM446 666v-87h-288v87h288z" />
    <glyph glyph-name="Ubreve" unicode="&#x16c;" horiz-adv-x="682" 
d="M613 251c0 -77 -27 -139 -81 -188c-53 -48 -117 -72 -191 -72s-138 24 -192 72c-53 49 -80 111 -80 188v438h168v-438c0 -30 10 -55 31 -74s46 -29 73 -29s51 10 72 29s32 44 32 74v438h168v-438zM205 896h89c0 -35 12 -50 47 -50c30 0 45 17 45 50h91
c0 -79 -56 -132 -136 -132c-87 0 -136 60 -136 132z" />
    <glyph glyph-name="ubreve" unicode="&#x16d;" horiz-adv-x="590" 
d="M371 221v245h159v-466h-159v73c-7 -27 -25 -47 -52 -61s-54 -21 -79 -21c-123 0 -186 82 -186 230v245h159v-240c0 -56 36 -81 76 -81c44 0 82 21 82 76zM166 696h89c0 -35 12 -50 47 -50c30 0 45 17 45 50h91c0 -79 -56 -132 -136 -132c-87 0 -136 60 -136 132z" />
    <glyph glyph-name="Uring" unicode="&#x16e;" horiz-adv-x="682" 
d="M613 251c0 -77 -27 -139 -81 -188c-53 -48 -117 -72 -191 -72s-138 24 -192 72c-53 49 -80 111 -80 188v438h168v-438c0 -30 10 -55 31 -74s46 -29 73 -29s51 10 72 29s32 44 32 74v438h168v-438zM214 873c0 36 12 66 36 91c25 25 55 38 90 38c36 0 66 -13 91 -38
s37 -55 37 -91c0 -35 -12 -65 -37 -90s-55 -37 -91 -37c-35 0 -65 12 -90 37c-24 25 -36 55 -36 90zM276 873c0 -37 28 -65 64 -65c37 0 67 28 67 65s-30 68 -67 68c-36 0 -64 -29 -64 -68z" />
    <glyph glyph-name="uring" unicode="&#x16f;" horiz-adv-x="590" 
d="M175 673c0 36 12 66 36 91c25 25 55 38 90 38c36 0 66 -13 91 -38s37 -55 37 -91c0 -35 -12 -65 -37 -90s-55 -37 -91 -37c-35 0 -65 12 -90 37c-24 25 -36 55 -36 90zM237 673c0 -37 28 -65 64 -65c37 0 67 28 67 65s-30 68 -67 68c-36 0 -64 -29 -64 -68zM371 221v245
h159v-466h-159v73c-7 -27 -25 -47 -52 -61s-54 -21 -79 -21c-123 0 -186 82 -186 230v245h159v-240c0 -56 36 -81 76 -81c44 0 82 21 82 76z" />
    <glyph glyph-name="Uhungarumlaut" unicode="&#x170;" horiz-adv-x="682" 
d="M613 251c0 -77 -27 -139 -81 -188c-53 -48 -117 -72 -191 -72s-138 24 -192 72c-53 49 -80 111 -80 188v438h168v-438c0 -30 10 -55 31 -74s46 -29 73 -29s51 10 72 29s32 44 32 74v438h168v-438zM198 747l93 173h105l-105 -173h-93zM341 747l107 173h108l-115 -173h-100
z" />
    <glyph glyph-name="uhungarumlaut" unicode="&#x171;" horiz-adv-x="590" 
d="M371 221v245h159v-466h-159v73c-7 -27 -25 -47 -52 -61s-54 -21 -79 -21c-123 0 -186 82 -186 230v245h159v-240c0 -56 36 -81 76 -81c44 0 82 21 82 76zM150 547l93 173h105l-105 -173h-93zM293 547l107 173h108l-115 -173h-100z" />
    <glyph glyph-name="Uogonek" unicode="&#x172;" horiz-adv-x="684" 
d="M379 -6l-39 -80c-9 -25 -5 -43 12 -54c15 -9 28 -7 41 5c10 10 14 25 12 44l70 4c3 -84 -48 -129 -109 -129c-28 0 -52 10 -73 31c-21 20 -31 45 -31 74c0 21 4 38 11 51l34 53c-67 8 -123 35 -169 82c-45 47 -68 105 -68 176v438h168v-438c0 -30 10 -55 31 -74
s46 -29 73 -29s51 10 72 29s32 44 32 74v438h168v-438c0 -70 -23 -128 -68 -175s-100 -74 -167 -82z" />
    <glyph glyph-name="uogonek" unicode="&#x173;" horiz-adv-x="590" 
d="M530 0l-43 -86c-9 -25 -5 -43 12 -54c15 -9 28 -7 41 5c10 10 14 25 12 44l70 4c3 -84 -48 -129 -109 -129c-28 0 -52 10 -73 31c-21 20 -31 45 -31 74c0 21 4 38 11 51l39 60h-88v73c-7 -27 -25 -47 -52 -61s-54 -21 -79 -21c-124 0 -186 80 -186 227v248h159v-243
c0 -56 36 -78 76 -78c44 0 82 21 82 76v245h159v-466z" />
    <glyph glyph-name="Wcircumflex" unicode="&#x174;" horiz-adv-x="883" 
d="M372 590h139l77 -293l120 392h182l-234 -689h-129l-87 335l-84 -335h-130l-232 689h181l119 -392zM361 757h-107l109 173h156l110 -173h-108l-80 89z" />
    <glyph glyph-name="wcircumflex" unicode="&#x175;" horiz-adv-x="759" 
d="M512 209l70 257h170l-160 -466h-135l-78 279l-74 -279h-135l-165 466h170l70 -257l71 257h125zM298 557h-107l109 173h156l110 -173h-108l-80 89z" />
    <glyph glyph-name="Ycircumflex" unicode="&#x176;" horiz-adv-x="663" 
d="M415 307v-307h-168v310l-269 379h199l153 -250l156 250h198zM250 757h-107l109 173h156l110 -173h-108l-80 89z" />
    <glyph glyph-name="ycircumflex" unicode="&#x177;" horiz-adv-x="518" 
d="M261 240l87 226h169l-288 -696h-167l117 292l-183 404h174zM179 557h-107l109 173h156l110 -173h-108l-80 89z" />
    <glyph glyph-name="Ydieresis" unicode="&#x178;" horiz-adv-x="663" 
d="M161 841c0 40 34 72 77 72c41 0 75 -32 75 -72c0 -41 -32 -73 -75 -73s-77 32 -77 73zM349 841c0 40 35 72 78 72c41 0 74 -32 74 -72c0 -41 -33 -73 -74 -73c-43 0 -78 32 -78 73zM415 307v-307h-168v310l-269 379h199l153 -250l156 250h198z" />
    <glyph glyph-name="Zacute" unicode="&#x179;" horiz-adv-x="602" 
d="M41 0v123l295 421h-282v145h501v-123l-299 -420h299v-146h-514zM240 749l93 174h148l-138 -174h-103z" />
    <glyph glyph-name="zacute" unicode="&#x17a;" horiz-adv-x="512" 
d="M53 466h412v-116l-200 -206h200v-144h-425v114l197 208h-184v144zM192 549l93 174h148l-138 -174h-103z" />
    <glyph glyph-name="Zdotaccent" unicode="&#x17b;" horiz-adv-x="602" 
d="M41 0v123l295 421h-282v145h501v-123l-299 -420h299v-146h-514zM215 847c0 45 36 80 83 80s83 -35 83 -80c0 -47 -36 -81 -83 -81c-48 0 -83 33 -83 81z" />
    <glyph glyph-name="zdotaccent" unicode="&#x17c;" horiz-adv-x="512" 
d="M53 466h412v-116l-200 -206h200v-144h-425v114l197 208h-184v144zM169 647c0 45 36 80 83 80s83 -35 83 -80c0 -47 -36 -81 -83 -81c-48 0 -83 33 -83 81z" />
    <glyph glyph-name="Zcaron" unicode="&#x17d;" horiz-adv-x="602" 
d="M41 0v123l295 421h-282v145h501v-123l-299 -420h299v-146h-514zM485 923l-110 -173h-156l-109 173h107l80 -90l80 90h108z" />
    <glyph glyph-name="zcaron" unicode="&#x17e;" horiz-adv-x="512" 
d="M53 466h412v-116l-200 -206h200v-144h-425v114l197 208h-184v144zM440 723l-110 -173h-156l-109 173h107l80 -90l80 90h108z" />
    <glyph glyph-name="longs" unicode="&#x17f;" horiz-adv-x="346" 
d="M331 711h60v-151h-60c-39 0 -64 -26 -65 -77v-483h-159v349h-87v117h87v17c0 148 84 228 224 228z" />
    <glyph glyph-name="florin" unicode="&#x192;" horiz-adv-x="631" 
d="M80 -194l-51 -1l31 153h48c45 0 72 26 82 78l62 313h-89l22 117h89l6 30c27 147 128 229 264 232h57l-30 -152h-48c-49 0 -77 -33 -90 -110h89l-22 -117h-88l-71 -360c-11 -57 -41 -102 -92 -133c-50 -32 -106 -49 -169 -50z" />
    <glyph glyph-name="Aringacute" unicode="&#x1fa;" horiz-adv-x="667" 
d="M443 158h-217l-58 -158h-179l254 689h182l253 -689h-177zM271 302h129l-67 227zM283 994l77 144h148l-118 -148c43 -21 70 -64 70 -115c0 -35 -12 -65 -37 -90s-55 -37 -91 -37c-35 0 -65 12 -90 37c-24 25 -36 55 -36 90c0 53 30 99 77 119zM268 875
c0 -37 28 -65 64 -65c37 0 67 28 67 65s-30 68 -67 68c-36 0 -64 -29 -64 -68z" />
    <glyph glyph-name="aringacute" unicode="&#x1fb;" horiz-adv-x="608" 
d="M389 466h159v-466h-159v53c-29 -41 -72 -62 -129 -62c-61 0 -114 22 -159 67s-68 103 -68 176s23 131 68 176s98 68 159 68c49 0 101 -22 129 -62v50zM255 792l77 144h148l-118 -148c43 -21 70 -64 70 -115c0 -35 -12 -65 -37 -90s-55 -37 -91 -37c-35 0 -65 12 -90 37
c-24 25 -36 55 -36 90c0 53 30 99 77 119zM223 164c39 -37 100 -37 137 0c39 39 39 100 0 137c-37 39 -98 39 -137 0c-37 -37 -37 -98 0 -137zM240 673c0 -37 28 -65 64 -65c37 0 67 28 67 65s-30 68 -67 68c-36 0 -64 -29 -64 -68z" />
    <glyph glyph-name="AEacute" unicode="&#x1fc;" horiz-adv-x="936" 
d="M429 484l-96 -188h96v188zM407 689h472v-146h-281v-132h246v-141h-246v-124h289v-146h-457v1l-1 -1v152h-160l-95 -152h-202zM431 749l93 174h148l-138 -174h-103z" />
    <glyph glyph-name="aeacute" unicode="&#x1fd;" horiz-adv-x="985" 
d="M415 549l93 174h148l-138 -174h-103zM958 240c0 -8 -1 -25 -3 -51h-334c5 -43 54 -71 107 -71c37 0 67 13 89 39c7 -6 26 -20 56 -41c31 -21 49 -34 54 -38c-44 -58 -114 -87 -211 -87c-65 0 -121 20 -167 60v-51h-159v53c-29 -41 -72 -62 -129 -62
c-61 0 -114 22 -159 67s-68 103 -68 176s23 131 68 176s98 68 159 68c49 0 101 -22 129 -62v50h159v-47c45 39 101 59 167 59c69 0 126 -22 172 -66c47 -43 70 -101 70 -172zM224 164c39 -37 100 -37 137 0c39 39 39 100 0 137c-37 39 -98 39 -137 0c-37 -37 -37 -98 0 -137
zM621 278h186c-18 57 -67 71 -93 69c-37 0 -82 -17 -93 -69z" />
    <glyph glyph-name="Oslashacute" unicode="&#x1fe;" horiz-adv-x="778" 
d="M342 749l93 174h148l-138 -174h-103zM388 158c51 0 94 18 130 54c36 37 54 81 54 132c0 38 -11 73 -33 104l-253 -259c31 -21 65 -31 102 -31zM206 344c0 -40 11 -76 33 -109l255 261c-29 23 -65 35 -106 35c-51 0 -94 -18 -129 -55c-35 -36 -53 -80 -53 -132zM170 68
l15 15l-96 -98l-47 47l80 82c-57 67 -85 144 -85 230c0 98 34 181 102 250c69 69 152 104 249 104c85 0 160 -27 223 -81l79 81l47 -46l-80 -82c55 -67 83 -143 83 -226c0 -97 -34 -181 -103 -250c-68 -69 -151 -103 -249 -103c-82 0 -155 26 -218 77z" />
    <glyph glyph-name="oslashacute" unicode="&#x1ff;" horiz-adv-x="563" 
d="M215 549l93 174h148l-138 -174h-103zM77 -19l-41 41l53 54c-37 44 -56 97 -56 158c0 72 24 131 72 176c49 45 107 68 175 68c57 0 108 -16 153 -49l51 52l41 -40l-50 -51c37 -44 55 -96 55 -156c0 -71 -25 -130 -74 -175s-107 -68 -176 -68c-56 0 -105 15 -148 46z
M183 234c0 -19 4 -35 13 -48l130 133c-16 8 -31 12 -46 12c-53 0 -97 -44 -97 -97zM280 137c53 0 97 44 97 97c0 15 -4 29 -11 44l-128 -132c13 -6 27 -9 42 -9z" />
    <glyph glyph-name="Scommaaccent" unicode="&#x218;" horiz-adv-x="586" 
d="M40 205h169c3 -40 30 -67 85 -67c47 0 85 22 85 62c0 6 -1 11 -2 15c-3 8 -26 29 -67 42l-81 27c-155 42 -179 140 -180 203c0 63 23 113 68 152s103 59 173 59s127 -19 171 -58c44 -38 66 -90 66 -157h-167c0 43 -24 64 -72 64c-45 0 -73 -22 -73 -55
c0 -25 21 -43 64 -56l79 -25c127 -39 191 -109 191 -210c0 -48 -14 -89 -41 -122c-55 -65 -130 -88 -214 -88c-77 0 -139 19 -185 58s-69 91 -69 156zM252 -302l-72 42c23 31 39 62 48 91s14 67 15 113h128c-11 -107 -51 -189 -119 -246z" />
    <glyph glyph-name="scommaaccent" unicode="&#x219;" horiz-adv-x="481" 
d="M244 166l-59 16c-55 15 -95 42 -114 62c-9 10 -17 22 -22 37c-9 29 -8 37 -8 58c0 36 19 68 56 96c38 29 83 43 134 43c98 0 204 -41 204 -161h-149c0 28 -16 42 -47 42c-26 0 -39 -9 -39 -26c0 -15 12 -25 35 -30l83 -23c56 -15 95 -43 110 -72c16 -29 20 -49 20 -69
c0 -48 -21 -85 -64 -110s-92 -38 -147 -38c-53 0 -101 15 -142 44c-41 30 -61 70 -61 121h149c0 -24 18 -48 54 -48c27 0 49 12 49 31c0 13 -7 18 -42 27zM196 -302l-72 42c23 31 39 62 48 91s14 67 15 113h128c-11 -107 -51 -189 -119 -246z" />
    <glyph glyph-name="circumflex" unicode="&#x2c6;" horiz-adv-x="585" 
d="M212 557h-107l109 173h156l110 -173h-108l-80 89z" />
    <glyph glyph-name="caron" unicode="&#x2c7;" horiz-adv-x="585" 
d="M480 723l-110 -173h-156l-109 173h107l80 -90l80 90h108z" />
    <glyph glyph-name="breve" unicode="&#x2d8;" horiz-adv-x="520" 
d="M124 696h89c0 -35 12 -50 47 -50c30 0 45 17 45 50h91c0 -79 -56 -132 -136 -132c-87 0 -136 60 -136 132z" />
    <glyph glyph-name="dotaccent" unicode="&#x2d9;" horiz-adv-x="330" 
d="M82 647c0 45 36 80 83 80s83 -35 83 -80c0 -47 -36 -81 -83 -81c-48 0 -83 33 -83 81z" />
    <glyph glyph-name="ring" unicode="&#x2da;" horiz-adv-x="574" 
d="M160 673c0 36 12 66 36 91c25 25 55 38 90 38c36 0 66 -13 91 -38s37 -55 37 -91c0 -35 -12 -65 -37 -90s-55 -37 -91 -37c-35 0 -65 12 -90 37c-24 25 -36 55 -36 90zM222 673c0 -37 28 -65 64 -65c37 0 67 28 67 65s-30 68 -67 68c-36 0 -64 -29 -64 -68z" />
    <glyph glyph-name="ogonek" unicode="&#x2db;" horiz-adv-x="534" 
d="M292 23l-54 -109c-9 -25 -5 -43 12 -54c15 -9 28 -7 41 5c10 10 14 25 12 44l70 4c3 -84 -48 -129 -109 -129c-28 0 -52 10 -73 31c-21 20 -31 45 -31 74c0 21 4 38 11 51l54 83h67z" />
    <glyph glyph-name="tilde" unicode="&#x2dc;" horiz-adv-x="449" 
d="M181 597c-11 0 -25 -15 -26 -43h-75c4 89 52 130 101 130c15 0 32 -7 50 -21c18 -13 30 -20 37 -20c11 0 25 13 26 41h75c-4 -88 -52 -128 -101 -128c-15 0 -31 7 -50 20c-19 14 -31 21 -37 21z" />
    <glyph glyph-name="hungarumlaut" unicode="&#x2dd;" horiz-adv-x="571" 
d="M80 547l93 173h105l-105 -173h-93zM223 547l107 173h108l-115 -173h-100z" />
    <glyph glyph-name="Wgrave" unicode="&#x1e80;" horiz-adv-x="883" 
d="M372 590h139l77 -293l120 392h182l-234 -689h-129l-87 335l-84 -335h-130l-232 689h181l119 -392zM374 749l-138 174h148l93 -174h-103z" />
    <glyph glyph-name="wgrave" unicode="&#x1e81;" horiz-adv-x="759" 
d="M512 209l70 257h170l-160 -466h-135l-78 279l-74 -279h-135l-165 466h170l70 -257l71 257h125zM326 549l-138 174h148l93 -174h-103z" />
    <glyph glyph-name="Wacute" unicode="&#x1e82;" horiz-adv-x="883" 
d="M588 297l120 392h182l-234 -689h-129l-87 335l-84 -335h-130l-232 689h181l119 -392l78 293h139zM396 749l93 174h148l-138 -174h-103z" />
    <glyph glyph-name="wacute" unicode="&#x1e83;" horiz-adv-x="759" 
d="M752 466l-160 -466h-135l-78 279l-74 -279h-135l-165 466h170l70 -257l71 257h125l71 -257l70 257h170zM322 549l93 174h148l-138 -174h-103z" />
    <glyph glyph-name="Wdieresis" unicode="&#x1e84;" horiz-adv-x="883" 
d="M588 297l120 392h182l-234 -689h-129l-87 335l-84 -335h-130l-232 689h181l119 -392l78 293h139zM272 841c0 40 34 72 77 72c41 0 75 -32 75 -72c0 -41 -32 -73 -75 -73s-77 32 -77 73zM460 841c0 40 35 72 78 72c41 0 74 -32 74 -72c0 -41 -33 -73 -74 -73
c-43 0 -78 32 -78 73z" />
    <glyph glyph-name="wdieresis" unicode="&#x1e85;" horiz-adv-x="759" 
d="M752 466l-160 -466h-135l-78 279l-74 -279h-135l-165 466h170l70 -257l71 257h125l71 -257l70 257h170zM208 641c0 40 34 72 77 72c41 0 75 -32 75 -72c0 -41 -32 -73 -75 -73s-77 32 -77 73zM396 641c0 40 35 72 78 72c41 0 74 -32 74 -72c0 -41 -33 -73 -74 -73
c-43 0 -78 32 -78 73z" />
    <glyph glyph-name="Ygrave" unicode="&#x1ef2;" horiz-adv-x="663" 
d="M415 307v-307h-168v310l-269 379h199l153 -250l156 250h198zM286 749l-138 174h148l93 -174h-103z" />
    <glyph glyph-name="ygrave" unicode="&#x1ef3;" horiz-adv-x="518" 
d="M261 240l87 226h169l-288 -696h-167l117 292l-183 404h174zM219 549l-138 174h148l93 -174h-103z" />
    <glyph glyph-name="thinspace" unicode="&#x2009;" horiz-adv-x="14" 
 />
    <glyph glyph-name="endash" unicode="&#x2013;" horiz-adv-x="654" 
d="M596 307v-135h-538v135h538z" />
    <glyph glyph-name="emdash" unicode="&#x2014;" horiz-adv-x="870" 
d="M812 306v-135h-754v135h754z" />
    <glyph glyph-name="quoteleft" unicode="&#x2018;" horiz-adv-x="266" 
d="M174 729l65 -40c-43 -59 -64 -134 -64 -227h-124c0 60 12 113 37 158s54 82 86 109z" />
    <glyph glyph-name="quoteright" unicode="&#x2019;" horiz-adv-x="257" 
d="M100 423l-65 40c43 59 64 134 64 227h124c0 -60 -13 -113 -38 -158s-53 -82 -85 -109z" />
    <glyph glyph-name="quotesinglbase" unicode="&#x201a;" horiz-adv-x="260" 
d="M73 -138l-65 40c43 59 64 134 64 227h124c0 -60 -13 -113 -38 -158s-53 -82 -85 -109z" />
    <glyph glyph-name="quotedblleft" unicode="&#x201c;" horiz-adv-x="441" 
d="M349 729l65 -40c-43 -59 -64 -134 -64 -227h-124c0 60 12 113 37 158s54 82 86 109zM174 729l65 -40c-43 -59 -64 -134 -64 -227h-124c0 60 12 113 37 158s54 82 86 109z" />
    <glyph glyph-name="quotedblright" unicode="&#x201d;" horiz-adv-x="432" 
d="M100 423l-65 40c43 59 64 134 64 227h124c0 -60 -13 -113 -38 -158s-53 -82 -85 -109zM275 423l-65 40c43 59 64 134 64 227h124c0 -60 -13 -113 -38 -158s-53 -82 -85 -109z" />
    <glyph glyph-name="quotedblbase" unicode="&#x201e;" horiz-adv-x="435" 
d="M73 -138l-65 40c43 59 64 134 64 227h124c0 -60 -13 -113 -38 -158s-53 -82 -85 -109zM248 -138l-65 40c43 59 64 134 64 227h124c0 -60 -13 -113 -38 -158s-53 -82 -85 -109z" />
    <glyph glyph-name="dagger" unicode="&#x2020;" horiz-adv-x="438" 
d="M150 533v156h138v-156h114v-102h-114v-545h-138v545h-114v102h114z" />
    <glyph glyph-name="daggerdbl" unicode="&#x2021;" horiz-adv-x="466" 
d="M164 533v156h138v-156h114v-102h-114v-213h114v-100h-114v-232h-138v232h-114v100h114v213h-114v102h114z" />
    <glyph glyph-name="bullet" unicode="&#x2022;" horiz-adv-x="490" 
d="M81 238c0 45 16 82 48 112c32 31 71 46 116 46s84 -15 116 -46c32 -30 48 -67 48 -112s-16 -83 -48 -114c-32 -30 -71 -45 -116 -45s-84 15 -116 45c-32 31 -48 69 -48 114z" />
    <glyph glyph-name="ellipsis" unicode="&#x2026;" horiz-adv-x="927" 
d="M49 84c0 52 42 91 94 91c53 0 96 -39 96 -91c0 -53 -43 -93 -96 -93c-52 0 -94 40 -94 93zM369 84c0 52 42 91 94 91c53 0 96 -39 96 -91c0 -53 -43 -93 -96 -93c-52 0 -94 40 -94 93zM689 84c0 52 42 91 94 91s95 -39 95 -91c0 -53 -43 -93 -95 -93s-94 40 -94 93z" />
    <glyph glyph-name="perthousand" unicode="&#x2030;" horiz-adv-x="1011" 
d="M468 656h95l-330 -656h-94zM171 669c37 0 68 -13 94 -40c27 -26 40 -57 40 -94s-13 -69 -39 -95c-26 -25 -58 -38 -95 -38s-69 13 -95 38c-25 26 -38 58 -38 95s13 69 38 95c26 26 58 39 95 39zM219 535c0 25 -23 48 -48 48c-42 0 -62 -52 -34 -82c30 -28 82 -8 82 34z
M533 258c37 0 68 -13 94 -39c27 -26 40 -58 40 -95s-13 -69 -39 -95c-26 -25 -58 -38 -95 -38s-69 13 -95 38c-25 26 -38 58 -38 95s13 69 38 95c26 26 58 39 95 39zM533 172c-27 0 -47 -21 -47 -48s20 -47 47 -47s48 20 48 47s-23 48 -48 48zM843 258c37 0 68 -13 94 -39
c27 -26 40 -58 40 -95s-13 -69 -39 -95c-26 -25 -58 -38 -95 -38s-69 13 -95 38c-25 26 -38 58 -38 95s13 69 38 95c26 26 58 39 95 39zM843 172c-27 0 -47 -21 -47 -48s20 -47 47 -47s48 20 48 47s-23 48 -48 48z" />
    <glyph glyph-name="guilsinglleft" unicode="&#x2039;" horiz-adv-x="333" 
d="M174 26l-138 207l138 207h119l-138 -207l138 -207h-119z" />
    <glyph glyph-name="guilsinglright" unicode="&#x203a;" horiz-adv-x="333" 
d="M159 440l138 -207l-138 -207h-119l138 207l-138 207h119z" />
    <glyph glyph-name="fraction" unicode="&#x2044;" horiz-adv-x="180" 
d="M-186 -9l452 676h93l-451 -676h-94z" />
    <glyph glyph-name="zerosuperior" unicode="&#x2070;" horiz-adv-x="361" 
d="M31 681c0 135 50 203 151 203c99 0 148 -68 148 -203c0 -134 -49 -201 -148 -201c-101 0 -151 67 -151 201zM134 681c0 -68 16 -102 48 -102c29 0 44 34 44 102c0 69 -15 103 -44 103c-32 0 -48 -34 -48 -103z" />
    <glyph glyph-name="foursuperior" unicode="&#x2074;" horiz-adv-x="380" 
d="M141 665h62v122zM308 879v-214h45v-87h-45v-93h-105v93h-197l161 301h141z" />
    <glyph glyph-name="fivesuperior" unicode="&#x2075;" horiz-adv-x="363" 
d="M239 631c0 29 -27 52 -63 52c-37 0 -73 -13 -108 -40l-34 20l30 216h244v-87h-162l-8 -54c21 15 45 23 73 23c35 0 65 -12 90 -36s38 -55 38 -94c0 -43 -16 -80 -47 -109s-73 -43 -125 -43c-53 0 -110 29 -145 72l77 60c25 -27 48 -40 68 -40c41 0 72 28 72 60z" />
    <glyph glyph-name="sixsuperior" unicode="&#x2076;" horiz-adv-x="362" 
d="M144 613c0 -25 17 -45 48 -45s50 21 50 45c0 21 -18 42 -50 42c-28 0 -48 -21 -48 -42zM217 737c28 0 56 -10 83 -30c27 -19 41 -49 41 -88c0 -81 -55 -139 -155 -139c-76 0 -131 54 -146 138c-13 60 -4 127 16 179c21 53 76 90 149 87c61 -3 103 -28 127 -77l-78 -40
c-10 21 -27 31 -52 31c-52 0 -71 -52 -74 -104c4 19 34 43 89 43z" />
    <glyph glyph-name="sevensuperior" unicode="&#x2077;" horiz-adv-x="321" 
d="M58 485l114 301h-152v93h298l-147 -394h-113z" />
    <glyph glyph-name="eightsuperior" unicode="&#x2078;" horiz-adv-x="370" 
d="M238 612c0 24 -20 45 -52 45c-51 5 -68 -50 -39 -80c9 -9 22 -13 39 -13c33 0 52 20 52 48zM50 778c0 31 13 57 40 76c27 20 59 30 96 30c72 0 129 -43 129 -106c0 -31 -15 -66 -39 -74c18 -3 34 -14 47 -35c14 -21 21 -42 21 -64c0 -38 -15 -68 -46 -91
c-30 -23 -67 -34 -112 -34s-82 11 -113 34s-46 53 -46 91c0 45 24 90 64 99c-24 12 -41 46 -41 74zM145 774c0 -21 16 -37 41 -37s40 16 40 37c0 17 -16 34 -40 34c-27 0 -41 -11 -41 -34z" />
    <glyph glyph-name="ninesuperior" unicode="&#x2079;" horiz-adv-x="361" 
d="M222 751c0 24 -17 44 -48 44s-49 -20 -49 -44c0 -21 17 -42 49 -42c28 0 48 21 48 42zM149 627c-35 0 -124 23 -124 118c0 81 55 139 155 139c77 0 131 -53 146 -138c13 -60 4 -127 -17 -180c-20 -52 -75 -89 -148 -86c-61 3 -103 28 -127 77l78 39c9 -20 27 -30 52 -30
c52 0 71 52 74 104c-4 -19 -38 -43 -89 -43z" />
    <glyph glyph-name="zeroinferior" unicode="&#x2080;" horiz-adv-x="361" 
d="M31 6c0 135 50 203 151 203c99 0 148 -68 148 -203c0 -134 -49 -201 -148 -201c-101 0 -151 67 -151 201zM134 6c0 -68 16 -102 48 -102c29 0 44 34 44 102c0 69 -15 103 -44 103c-32 0 -48 -34 -48 -103z" />
    <glyph glyph-name="oneinferior" unicode="&#x2081;" horiz-adv-x="242" 
d="M19 37v87l176 91v-405h-106v259z" />
    <glyph glyph-name="twoinferior" unicode="&#x2082;" horiz-adv-x="341" 
d="M28 -190v61l166 187c17 27 2 51 -27 51c-23 0 -37 -13 -41 -40l-98 14c13 84 62 126 147 126c36 0 67 -12 93 -35s39 -52 39 -87c-1 -38 -14 -71 -41 -98l-85 -88h128v-91h-281z" />
    <glyph glyph-name="threeinferior" unicode="&#x2083;" horiz-adv-x="338" 
d="M146 -23h-42v74h42c30 0 45 12 45 37c0 16 -15 31 -44 31c-25 0 -45 -8 -60 -25l-55 57c27 39 72 58 133 58c36 0 66 -11 91 -34c25 -22 38 -48 37 -77c0 -32 -19 -57 -56 -76c47 -17 71 -47 73 -88s-12 -73 -43 -95c-31 -23 -68 -34 -113 -34c-69 0 -115 23 -137 68
l54 54c18 -25 44 -37 79 -37c40 0 60 20 60 47c0 24 -29 40 -64 40z" />
    <glyph glyph-name="fourinferior" unicode="&#x2084;" horiz-adv-x="379" 
d="M141 -10h62v122zM308 204v-214h45v-87h-45v-93h-105v93h-197l161 301h141z" />
    <glyph glyph-name="fiveinferior" unicode="&#x2085;" horiz-adv-x="362" 
d="M239 -44c0 29 -27 52 -63 52c-37 0 -73 -13 -108 -40l-34 20l30 216h244v-87h-162l-8 -54c21 15 45 23 73 23c35 0 65 -12 90 -36s38 -55 38 -94c0 -43 -16 -79 -47 -108s-73 -44 -125 -44c-53 0 -110 29 -145 72l77 60c71 -80 140 -23 140 20z" />
    <glyph glyph-name="sixinferior" unicode="&#x2086;" horiz-adv-x="361" 
d="M144 -62c0 -25 17 -45 48 -45s50 21 50 45c0 21 -18 42 -50 42c-28 0 -48 -21 -48 -42zM217 62c28 0 56 -10 83 -30c27 -19 41 -49 41 -88c0 -81 -55 -139 -155 -139c-76 0 -131 54 -146 138c-13 60 -4 127 16 179c21 53 76 90 149 87c61 -3 103 -28 127 -77l-78 -40
c-10 21 -27 31 -52 31c-52 0 -71 -52 -74 -104c4 19 34 43 89 43z" />
    <glyph glyph-name="seveninferior" unicode="&#x2087;" horiz-adv-x="322" 
d="M58 -190l114 301h-152v93h298l-147 -394h-113z" />
    <glyph glyph-name="eightinferior" unicode="&#x2088;" horiz-adv-x="370" 
d="M238 -63c0 24 -20 45 -52 45c-51 5 -68 -51 -39 -79c9 -9 22 -14 39 -14c33 0 52 20 52 48zM50 103c0 31 13 57 40 76c27 20 59 30 96 30c72 0 129 -43 129 -106c0 -31 -15 -66 -39 -74c18 -3 34 -14 47 -35c14 -21 21 -42 21 -64c0 -38 -15 -68 -46 -91
c-30 -23 -67 -34 -112 -34s-82 11 -113 34s-46 53 -46 91c0 45 24 90 64 99c-24 12 -41 46 -41 74zM145 99c0 -21 16 -37 41 -37s40 16 40 37c0 17 -16 34 -40 34c-27 0 -41 -11 -41 -34z" />
    <glyph glyph-name="nineinferior" unicode="&#x2089;" horiz-adv-x="362" 
d="M223 76c0 24 -17 44 -48 44s-49 -20 -49 -44c0 -21 17 -42 49 -42c28 0 48 21 48 42zM150 -48c-35 0 -124 23 -124 118c0 81 55 139 155 139c77 0 131 -53 146 -138c13 -60 4 -127 -17 -179c-20 -53 -75 -90 -148 -87c-61 3 -103 28 -127 77l78 39c9 -20 27 -30 52 -30
c52 0 71 52 74 104c-4 -19 -38 -43 -89 -43z" />
    <glyph glyph-name="colonmonetary" unicode="&#x20a1;" horiz-adv-x="719" 
d="M206 343c0 -39 8 -73 23 -102l103 292c-76 -23 -126 -98 -126 -190zM407 538l-128 -356c16 -14 34 -23 53 -28l132 367c-32 11 -51 16 -57 17zM344 -8l-36 -105l-62 22l34 96c-21 5 -40 12 -57 20l-37 -104l-63 23l43 121c-81 65 -129 167 -129 278c0 100 34 185 102 254
s152 103 252 101l39 107l63 -24l-33 -91c21 -5 41 -12 58 -19l35 100l62 -25l-37 -104c41 -27 75 -61 102 -103l-139 -91c-8 14 -15 25 -21 33l-120 -336c-8 1 -14 2 -18 2c68 0 131 39 164 98l137 -91c-60 -100 -172 -164 -301 -164c-17 0 -29 1 -38 2z" />
    <glyph glyph-name="lira" unicode="&#x20a4;" horiz-adv-x="702" 
d="M150 133v89h-78v64h78v43h-78v64h78v85c0 67 20 120 59 160c40 40 92 60 157 60c159 0 239 -80 239 -241h-158c0 54 -24 81 -71 81c-40 0 -66 -33 -66 -76v-69h100v-64h-100v-43h100v-64h-100v-89h167c23 0 28 14 28 41v50h156v-86c0 -39 -14 -71 -42 -98
c-27 -27 -59 -40 -96 -40h-485v133h112z" />
    <glyph glyph-name="uni20A6" unicode="&#x20a6;" horiz-adv-x="770" 
d="M122 0v242h-72v71h72v56h-72v71h72v249h151l206 -371v371h167v-249h74v-71h-74v-56h74v-71h-74v-242h-146l-211 376v-376h-167z" />
    <glyph glyph-name="peseta" unicode="&#x20a7;" horiz-adv-x="761" 
d="M295 230v-230h-167v361h-80v71h80v56h-80v71h80v130h285c108 0 180 -51 215 -130h95v-71h-76c3 -27 3 -32 0 -56h76v-71h-94c-33 -79 -108 -131 -216 -131h-118zM405 543h-110v-169h110c100 -5 100 175 0 169z" />
    <glyph glyph-name="rupee" unicode="&#x20a8;" horiz-adv-x="660" 
d="M216 230h-158v144h253c36 0 59 17 70 51h-323v71h322c-12 31 -35 47 -69 47h-253v146h558v-71h-119c30 -33 48 -74 55 -122h64v-71h-63c-12 -91 -68 -164 -163 -187l168 -238h-194z" />
    <glyph glyph-name="uni20A9" unicode="&#x20a9;" horiz-adv-x="984" 
d="M938 689l-85 -249h78v-71h-102l-19 -56h121v-71h-145l-82 -242h-129l-87 335l-84 -335h-130l-82 242h-137v71h113l-19 56h-94v71h70l-83 249h181l119 -392l78 293h139l77 -293l120 392h182z" />
    <glyph glyph-name="afii57636" unicode="&#x20aa;" horiz-adv-x="1024" 
d="M720 332v-102h-161v66c0 45 -37 82 -94 82h-223v-378h-160v542h398c149 0 240 -85 240 -210zM304 210v102h161v-66c0 -45 37 -82 94 -82h223v378h160v-542h-398c-149 0 -240 85 -240 210z" />
    <glyph glyph-name="Euro" unicode="&#x20ac;" horiz-adv-x="834" 
d="M41 323h486v-66h-211c29 -68 92 -109 167 -109c72 0 134 37 166 96l140 -89c-57 -101 -171 -164 -306 -164c-83 0 -157 25 -220 74c-63 50 -104 114 -123 192h-99v66zM320 439h207v-66h-486v66h101c19 76 60 138 123 186c63 49 136 73 218 73c133 0 245 -61 302 -158
l-141 -89c-32 56 -90 89 -161 89c-73 0 -132 -38 -163 -101z" />
    <glyph glyph-name="uni2113" unicode="&#x2113;" horiz-adv-x="404" 
d="M264 111h75v-111h-129c-103 0 -154 58 -154 174v349c0 116 51 174 154 174c101 0 152 -61 152 -184v-185c0 -51 -6 -80 -29 -109s-68 -42 -140 -42c0 -28 4 -66 71 -66zM188 526v-240h9c33 0 33 22 33 44v197c0 34 -6 51 -19 51c-23 -4 -23 -22 -23 -52z" />
    <glyph glyph-name="afii61352" unicode="&#x2116;" horiz-adv-x="977" 
d="M606 689v-689h-146l-211 376v-376h-167v689h151l206 -371v371h167zM801 697c37 0 68 -13 94 -40c27 -26 40 -57 40 -94s-13 -69 -39 -95c-26 -25 -58 -38 -95 -38s-69 13 -95 38c-25 26 -38 58 -38 95s13 69 38 95c26 26 58 39 95 39zM743 563c0 -33 25 -58 58 -58
c51 0 79 63 41 99c-36 38 -99 10 -99 -41zM928 318h-254v67h254v-67z" />
    <glyph glyph-name="trademark" unicode="&#x2122;" horiz-adv-x="842" 
d="M420 323h-92l35 283h-95v-283h-92v283h-116v83h388l105 -215l103 215h79l44 -366h-93l-23 203l-76 -163h-66l-78 164z" />
    <glyph glyph-name="estimated" unicode="&#x212e;" horiz-adv-x="641" 
d="M602 279h-429v-193c44 -42 95 -63 152 -63c101 0 157 46 210 127l31 -19c-59 -91 -125 -141 -241 -141c-79 0 -144 28 -195 84c-51 57 -76 125 -76 206c0 82 25 151 75 206c50 56 117 84 200 84s149 -28 198 -85c50 -56 75 -125 75 -206zM173 312h309v163
c-45 41 -96 62 -153 62c-64 0 -116 -21 -156 -62v-163z" />
    <glyph glyph-name="minus" unicode="&#x2212;" horiz-adv-x="502" 
d="M66 315h370v-110h-370v110z" />
    <glyph glyph-name="notequal" unicode="&#x2260;" horiz-adv-x="596" 
d="M527 267v-102h-267l-50 -103h-70l50 103h-123v102h173l49 102h-222v102h273l44 91h71l-44 -91h116v-102h-166l-51 -102h217z" />
    <glyph glyph-name="lessequal" unicode="&#x2264;" horiz-adv-x="631" 
d="M561 271v-116l-500 192v122l500 191v-115l-353 -138zM562 0h-501v101h501v-101z" />
    <glyph glyph-name="greaterequal" unicode="&#x2265;" horiz-adv-x="631" 
d="M570 469v-122l-500 -192v116l353 136l-353 138v115zM570 0h-501v101h501v-101z" />
    <glyph glyph-name="commaaccent" unicode="&#xf6c3;" horiz-adv-x="330" 
d="M142 -302l-72 42c23 31 39 62 48 91s14 67 15 113h128c-11 -107 -51 -189 -119 -246z" />
    <glyph glyph-name="rupiah" unicode="&#xf6dd;" horiz-adv-x="1240" 
d="M851 43v-273h-159v696h150v-67c25 52 82 79 138 79c61 0 114 -22 159 -67s68 -103 68 -176s-23 -132 -68 -177s-98 -67 -159 -67c-55 0 -98 17 -129 52zM948 333c-26 0 -49 -10 -68 -30s-29 -43 -29 -70c-5 -81 111 -127 165 -66c64 56 15 171 -68 166zM235 230v-230
h-167v689h285c76 0 134 -23 175 -68s61 -99 61 -162c0 -52 -14 -99 -43 -140c-28 -41 -69 -68 -122 -81l168 -238h-194l-148 230h-15zM345 543h-110v-169h110c100 -5 100 175 0 169z" />
    <glyph glyph-name="apple" unicode="&#xf8ff;" horiz-adv-x="847" 
d="M80 687h687v-687h-687v687zM426 332l-262 263v-377h81l-74 75v178l255 -253l256 253v-178l-74 -75h84v377zM193 96l-14 36h-15v-53h9v37l13 -37h10l11 37v-37h9v53h-14zM248 132c-17 0 -25 -9 -25 -27c0 -15 9 -26 25 -26c15 0 23 13 23 26c0 15 -8 27 -23 27zM248 89
c-9 0 -17 9 -17 16c0 8 8 17 17 17c8 0 12 -6 12 -17s-4 -16 -12 -16zM284 99h-13c0 -13 7 -20 22 -20s22 6 22 17c0 7 -5 12 -15 14c-11 2 -16 4 -16 6c0 4 3 6 9 6c7 0 10 -2 10 -6h9c0 11 -6 16 -19 16s-19 -5 -19 -16c0 -5 5 -10 16 -15c9 0 13 -2 13 -5
c0 -5 -3 -7 -10 -7c-6 0 -9 3 -9 10zM315 132v-10h17v-43h8v43h15v10h-40zM398 79l-21 53h-9l-22 -53h12l4 13h22l3 -13h11zM371 119h3l7 -18h-16zM426 132h-28v-53h9v22h13c6 0 9 -3 9 -9v-13h13c-2 2 -3 6 -3 13c0 6 -2 10 -7 13c5 2 7 6 7 11c0 11 -4 16 -13 16zM420 108
h-13v14h13c6 0 9 -2 9 -6c0 -5 -3 -8 -9 -8zM466 132h-20v-53h20c17 0 25 10 25 29c0 16 -8 24 -25 24zM466 89h-8v33h4c11 0 17 -6 17 -17c0 -8 -6 -16 -13 -16zM531 122v10h-37v-53h40v10h-28v12h25v9h-25v12h25zM543 99h-9c0 -13 7 -20 22 -20s22 6 22 17
c0 7 -5 12 -15 14c-11 2 -17 4 -17 6c0 4 2 6 7 6c8 0 12 -2 12 -6h10c0 11 -6 16 -19 16s-41 -15 -3 -31c8 0 12 -2 12 -5c0 -5 -3 -7 -9 -7c-9 0 -13 3 -13 10zM589 79v53h-7v-53h7zM633 86l4 -7h6v29h-22v-9h12c-3 -7 -7 -10 -12 -10c-9 0 -16 9 -16 16c0 8 7 17 16 17
c6 0 9 -3 9 -10h13c-3 13 -10 20 -22 20c-15 0 -25 -12 -25 -27c0 -13 10 -26 25 -26c6 0 10 2 12 7zM679 99l-22 33h-8v-53h8v33l22 -33h13v53h-13v-33z" />
    <glyph glyph-name="published" horiz-adv-x="792" 
d="M366 428v-81h55c49 0 48 81 2 81h-57zM282 503h142c76 0 117 -51 117 -115c0 -63 -41 -115 -117 -115h-58v-106h-84v336zM148 93c-67 69 -101 152 -101 250s34 181 101 250c68 69 151 104 248 104s180 -35 248 -104s102 -152 102 -250s-34 -181 -102 -250
s-151 -103 -248 -103s-180 34 -248 103zM204 537c-53 -53 -79 -118 -79 -194s26 -141 79 -194s117 -80 192 -80s139 27 192 80s79 118 79 194s-26 141 -79 194c-53 54 -117 81 -192 81s-139 -27 -192 -81z" />
    <glyph glyph-name="frenchfranc" horiz-adv-x="754" 
d="M507 127v-127h-148v300h-102v-300h-170v689h446v-146h-276v-106h250v-106c23 81 70 115 119 115c39 0 70 -6 93 -17l-29 -143c-21 11 -45 16 -72 16c-76 0 -111 -52 -111 -175z" />
    <glyph glyph-name="parenleft.case" horiz-adv-x="397" 
d="M34 344c0 132 32 243 97 334s144 137 237 137v-116c-30 0 -61 -18 -93 -54c-32 -35 -59 -81 -80 -137c-21 -55 -31 -110 -31 -164c0 -53 10 -107 31 -161s48 -98 79 -132c32 -34 63 -51 94 -51v-115c-93 0 -172 44 -237 131c-65 88 -97 197 -97 328z" />
    <glyph glyph-name="parenright.case" horiz-adv-x="397" 
d="M363 344c0 -131 -32 -240 -97 -328c-65 -87 -144 -131 -237 -131v115c31 0 62 17 93 51c32 34 58 78 79 132s32 108 32 161c0 54 -11 109 -32 164c-21 56 -47 102 -79 137c-32 36 -63 54 -93 54v116c93 0 171 -46 236 -137s98 -202 98 -334z" />
    <glyph glyph-name="hyphen.case" horiz-adv-x="471" 
d="M413 428v-135h-355v135h355z" />
    <glyph glyph-name="at.case" horiz-adv-x="963" 
d="M577 224v125c0 31 -11 58 -33 79c-21 22 -47 33 -78 33c-30 0 -56 -11 -78 -33c-22 -21 -33 -48 -33 -79c0 -29 11 -55 33 -77s48 -33 78 -33c29 0 52 5 71 16v-98c-17 -9 -41 -13 -71 -13c-57 0 -106 20 -147 60c-40 40 -60 88 -60 145c0 58 20 107 60 147
c41 40 90 60 147 60s105 -19 145 -58c40 -38 61 -84 63 -139v-140c0 -40 27 -61 56 -61c39 0 68 30 81 75s19 86 19 129c0 93 -35 170 -104 232c-69 63 -153 94 -250 94c-94 0 -174 -34 -239 -101s-97 -148 -97 -243s32 -175 97 -240s144 -98 239 -98h61v-97h-61
c-121 0 -224 42 -307 126s-125 187 -125 309s42 226 125 311c84 86 186 129 307 129c239 6 455 -186 451 -422c0 -64 -14 -131 -43 -192s-85 -104 -154 -104c-88 0 -153 49 -153 158z" />
    <glyph glyph-name="bracketleft.case" horiz-adv-x="342" 
d="M311 -112h-243v919h243v-108h-114v-700h114v-111z" />
    <glyph glyph-name="bracketright.case" horiz-adv-x="342" 
d="M31 699v108h243v-919h-243v111h114v700h-114z" />
    <glyph glyph-name="braceleft.case" horiz-adv-x="414" 
d="M27 305v85c31 0 61 22 61 61v154c-1 60 19 109 58 146c40 37 89 56 146 56h93v-108h-80c-61 0 -88 -42 -88 -101v-136c0 -33 -10 -59 -30 -79c-19 -20 -40 -32 -61 -36c21 -3 42 -15 61 -35c20 -20 30 -46 30 -79v-136c0 -59 27 -101 88 -101h80v-108h-93
c-57 0 -106 19 -146 56c-39 37 -59 86 -58 146v154c0 39 -30 61 -61 61z" />
    <glyph glyph-name="braceright.case" horiz-adv-x="414" 
d="M387 390v-85c-31 0 -61 -22 -61 -61v-154c1 -60 -19 -109 -59 -146c-39 -37 -88 -56 -145 -56h-93v108h80c61 0 88 42 88 101v136c0 33 10 59 29 79c20 20 41 32 62 35c-21 4 -42 16 -62 36c-19 20 -29 46 -29 79v136c0 59 -27 101 -88 101h-80v108h93
c57 0 106 -19 145 -56c40 -37 60 -86 59 -146v-154c0 -39 30 -61 61 -61z" />
    <glyph glyph-name="exclamdown.case" horiz-adv-x="295" 
d="M231 0h-167l18 458h131zM52 606c0 53 42 93 94 93c53 0 96 -40 96 -93c0 -52 -43 -91 -96 -91c-52 0 -94 39 -94 91z" />
    <glyph glyph-name="guillemotleft.case" horiz-adv-x="550" 
d="M183 144l-138 207l138 207h119l-138 -207l138 -207h-119zM378 144l-138 207l138 207h119l-138 -207l138 -207h-119z" />
    <glyph glyph-name="periodcentered.case" horiz-adv-x="289" 
d="M50 332c0 52 42 91 94 91s95 -39 95 -91c0 -53 -43 -92 -95 -92c-53 0 -94 39 -94 92z" />
    <glyph glyph-name="guillemotright.case" horiz-adv-x="550" 
d="M367 558l138 -207l-138 -207h-119l138 207l-138 207h119zM172 558l138 -207l-138 -207h-119l138 207l-138 207h119z" />
    <glyph glyph-name="questiondown.case" horiz-adv-x="496" 
d="M216 459h143v-12c0 -47 -2 -70 -15 -105s-42 -60 -89 -80l-37 -16c-23 -9 -34 -26 -34 -50c0 -35 26 -54 66 -54c35 0 64 27 64 64h144c0 -139 -82 -215 -211 -215c-63 0 -114 18 -153 53s-58 83 -58 142c0 95 48 160 128 189c40 15 52 36 52 84zM380 605
c0 -52 -42 -91 -94 -91c-53 0 -96 39 -96 91c0 53 43 93 96 93c52 0 94 -40 94 -93z" />
    <glyph glyph-name="endash.case" horiz-adv-x="656" 
d="M597 417v-135h-538v135h538z" />
    <glyph glyph-name="emdash.case" horiz-adv-x="872" 
d="M813 417v-135h-754v135h754z" />
    <glyph glyph-name="bullet.case" horiz-adv-x="472" 
d="M72 344c0 45 16 82 48 112c32 31 71 46 116 46s84 -15 116 -46c32 -30 48 -67 48 -112s-16 -83 -48 -114c-32 -30 -71 -45 -116 -45s-84 15 -116 45c-32 31 -48 69 -48 114z" />
    <glyph glyph-name="guilsinglleft.case" horiz-adv-x="355" 
d="M183 144l-138 207l138 207h119l-138 -207l138 -207h-119z" />
    <glyph glyph-name="guilsinglright.case" horiz-adv-x="355" 
d="M172 558l138 -207l-138 -207h-119l138 207l-138 207h119z" />
    <glyph glyph-name="cent.case" horiz-adv-x="542" 
d="M245 581v118h77v-115c73 -7 133 -45 179 -113l-130 -78c-19 31 -46 46 -82 46c-53 0 -97 -44 -97 -97s44 -97 97 -97c33 0 60 14 80 43l133 -74c-47 -69 -107 -106 -180 -113v-110h-77v113c-60 10 -110 36 -149 79s-59 96 -59 159s20 115 59 158s89 70 149 81z" />
    <glyph glyph-name="zero.tnum" 
d="M203 327c0 -108 28 -182 89 -182c57 0 85 61 85 182c0 123 -28 184 -85 184c-61 0 -89 -75 -89 -184zM43 327c0 226 83 339 249 339c92 0 159 -35 194 -99c36 -64 51 -140 51 -240c0 -224 -82 -336 -245 -336c-166 0 -249 112 -249 336z" />
    <glyph glyph-name="one.tnum" 
d="M128 394v137l278 140v-671h-163v446z" />
    <glyph glyph-name="two.tnum" 
d="M302 144h213v-144h-461v90l271 314c20 23 30 43 30 60c0 28 -21 53 -69 53c-53 0 -74 -33 -83 -89l-144 22c21 135 107 216 239 216c59 0 110 -19 153 -57s64 -86 64 -145s-23 -114 -68 -164z" />
    <glyph glyph-name="three.tnum" 
d="M258 278h-67v123h67c31 0 52 13 60 32c8 20 9 30 9 41s-6 23 -18 37c-11 15 -28 22 -50 22c-33 0 -63 -14 -89 -41l-94 77c41 63 121 102 210 97c58 -3 106 -22 144 -59c38 -36 56 -78 55 -126c0 -53 -29 -96 -86 -127c72 -27 115 -86 115 -158c0 -63 -25 -113 -74 -150
c-49 -36 -109 -54 -179 -54c-96 0 -176 45 -212 121l102 90c16 -36 54 -72 110 -72c63 0 95 34 95 75c0 40 -34 72 -98 72z" />
    <glyph glyph-name="four.tnum" 
d="M479 283h78v-131h-78v-152h-162v152h-323l283 504h202v-373zM317 283v219l-117 -219h117z" />
    <glyph glyph-name="five.tnum" 
d="M388 239c0 57 -45 92 -109 92c-62 0 -116 -23 -162 -70l-69 39l52 356h398v-139h-272l-14 -89c35 24 76 36 121 36c59 0 110 -21 151 -62s62 -96 62 -163c0 -72 -26 -132 -77 -179s-118 -70 -203 -70c-45 0 -89 11 -132 34s-79 54 -106 91l124 90c36 -43 74 -64 114 -64
c34 0 63 10 86 31c24 21 36 43 36 67z" />
    <glyph glyph-name="six.tnum" 
d="M338 421c40 0 85 -15 129 -44s76 -89 76 -162c0 -66 -22 -120 -66 -162c-44 -41 -106 -62 -185 -62c-63 0 -117 21 -161 62c-43 41 -70 97 -79 167c-27 201 17 453 271 446c93 -4 163 -35 208 -128l-130 -62c-16 34 -44 51 -83 51c-47 0 -81 -25 -98 -64
c-16 -39 -24 -75 -24 -115c8 32 58 73 142 73zM219 212c0 -44 33 -79 82 -79s84 35 84 79c0 39 -33 76 -84 76c-47 0 -82 -37 -82 -76z" />
    <glyph glyph-name="seven.tnum" 
d="M314 511h-259v145h496l-262 -656h-180z" />
    <glyph glyph-name="eight.tnum" 
d="M194 220c0 -49 39 -86 96 -86s95 37 95 86c0 44 -39 84 -90 84h-8c-55 0 -93 -39 -93 -84zM73 487c0 51 21 94 64 128s94 51 153 51s108 -17 149 -51c41 -33 61 -76 61 -128c0 -49 -22 -101 -58 -118c29 -9 54 -30 75 -63s31 -67 31 -102c0 -63 -25 -114 -75 -154
c-50 -39 -111 -59 -183 -59s-133 20 -184 59c-50 40 -75 91 -75 154c0 75 38 142 102 165c-36 23 -60 73 -60 118zM223 481c0 -35 27 -60 67 -60c39 0 65 25 65 60c0 29 -26 58 -61 58h-6c-37 0 -65 -27 -65 -58z" />
    <glyph glyph-name="nine.tnum" 
d="M243 236c-40 0 -85 15 -129 44s-76 89 -76 162c0 66 22 120 66 161c44 42 106 63 185 63c63 0 117 -21 160 -62c44 -41 71 -97 80 -167c27 -201 -17 -453 -271 -446c-93 4 -163 35 -208 128l130 62c16 -34 44 -51 83 -51c47 0 81 25 97 64c17 39 25 75 25 115
c-8 -32 -58 -73 -142 -73zM362 445c0 44 -33 79 -82 79s-84 -35 -84 -79c0 -39 33 -76 84 -76c47 0 82 37 82 76z" />
    <glyph glyph-name="zero.taboldstyle" 
d="M290 -9c-68 0 -127 24 -177 72s-75 109 -75 184c0 76 25 138 75 185s109 71 177 71c69 0 128 -24 177 -71s74 -109 74 -185c0 -75 -25 -136 -74 -184s-108 -72 -177 -72zM290 131c28 0 53 11 76 33s34 50 34 83c0 34 -11 62 -34 83s-48 32 -76 32c-29 0 -54 -11 -76 -32
s-33 -49 -33 -83c0 -33 11 -61 33 -83s47 -33 76 -33z" />
    <glyph glyph-name="one.taboldstyle" 
d="M140 376l266 138v-514h-142v303l-124 -58v131z" />
    <glyph glyph-name="two.taboldstyle" 
d="M317 132h180v-132h-418v73l233 224c15 14 22 28 22 41c0 19 -20 36 -51 36c-33 0 -52 -19 -57 -56l-145 15c16 104 78 170 198 170c64 0 115 -15 154 -44s58 -64 58 -105c0 -55 -13 -81 -64 -125z" />
    <glyph glyph-name="six.taboldstyle" 
d="M338 421c40 0 85 -15 129 -44s76 -89 76 -162c0 -66 -22 -120 -66 -162c-44 -41 -106 -62 -185 -62c-63 0 -117 21 -161 62c-43 41 -70 97 -79 167c-27 201 17 453 271 446c93 -4 163 -35 208 -128l-130 -62c-16 34 -44 51 -83 51c-47 0 -81 -25 -98 -64
c-16 -39 -24 -75 -24 -115c8 32 58 73 142 73zM219 212c0 -44 33 -79 82 -79s84 35 84 79c0 39 -33 76 -84 76c-47 0 -82 -37 -82 -76z" />
    <glyph glyph-name="eight.taboldstyle" 
d="M195 220c0 -49 39 -86 96 -86s95 37 95 86c0 44 -39 84 -90 84h-8c-55 0 -93 -39 -93 -84zM74 487c0 51 21 94 64 128s94 51 153 51s108 -17 149 -51c41 -33 61 -76 61 -128c0 -49 -22 -101 -58 -118c29 -9 54 -30 75 -63s31 -67 31 -102c0 -63 -25 -114 -75 -154
c-50 -39 -111 -59 -183 -59s-133 20 -184 59c-50 40 -75 91 -75 154c0 75 38 142 102 165c-36 23 -60 73 -60 118zM224 481c0 -35 27 -60 67 -60c39 0 65 25 65 60c0 29 -26 58 -61 58h-6c-37 0 -65 -27 -65 -58z" />
    <glyph glyph-name="three.taboldstyle" 
d="M261 89h-67v123h67c31 0 52 13 60 32c8 20 9 30 9 41s-6 23 -18 37c-11 15 -28 22 -50 22c-33 0 -63 -14 -89 -41l-94 77c41 63 121 102 210 97c58 -3 106 -22 144 -59c38 -36 56 -78 55 -126c0 -53 -29 -96 -86 -127c72 -27 115 -86 115 -158c0 -63 -25 -113 -74 -149
c-49 -37 -109 -55 -179 -55c-96 0 -176 45 -212 121l102 90c16 -36 54 -72 110 -72c63 0 95 34 95 75c0 40 -34 72 -98 72z" />
    <glyph glyph-name="four.taboldstyle" 
d="M482 93h78v-131h-78v-152h-162v152h-323l283 504h202v-373zM320 93v219l-117 -219h117z" />
    <glyph glyph-name="five.taboldstyle" 
d="M389 49c0 57 -45 92 -109 92c-62 0 -116 -23 -162 -70l-69 39l52 356h398v-139h-272l-14 -89c35 24 76 36 121 36c59 0 110 -21 151 -62s62 -96 62 -163c0 -72 -26 -131 -77 -178s-118 -71 -203 -71c-45 0 -89 12 -132 35s-79 53 -106 90l124 90c36 -43 74 -64 114 -64
c34 0 63 10 86 31c24 21 36 43 36 67z" />
    <glyph glyph-name="seven.taboldstyle" 
d="M316 321h-259v145h496l-262 -656h-180z" />
    <glyph glyph-name="nine.taboldstyle" 
d="M245 48c-40 0 -85 15 -129 44s-76 89 -76 162c0 66 22 120 66 161c44 42 106 63 185 63c63 0 117 -21 160 -62c44 -41 71 -97 80 -167c27 -201 -17 -453 -271 -446c-93 4 -163 35 -208 128l130 62c16 -34 44 -51 83 -51c47 0 81 25 97 64c17 39 25 75 25 115
c-8 -32 -58 -73 -142 -73zM364 257c0 44 -33 79 -82 79s-84 -35 -84 -79c0 -39 33 -76 84 -76c47 0 82 37 82 76z" />
    <glyph glyph-name="zero.oldstyle" horiz-adv-x="592" 
d="M296 -9c-68 0 -127 24 -177 72s-75 109 -75 184c0 76 25 138 75 185s109 71 177 71c69 0 128 -24 177 -71s74 -109 74 -185c0 -75 -25 -136 -74 -184s-108 -72 -177 -72zM296 131c28 0 53 11 76 33s34 50 34 83c0 34 -11 62 -34 83s-48 32 -76 32c-29 0 -54 -11 -76 -32
s-33 -49 -33 -83c0 -33 11 -61 33 -83s47 -33 76 -33z" />
    <glyph glyph-name="one.oldstyle" horiz-adv-x="376" 
d="M38 376l266 138v-514h-142v303l-124 -58v131z" />
    <glyph glyph-name="two.oldstyle" horiz-adv-x="520" 
d="M287 132h180v-132h-418v73l233 224c15 14 22 28 22 41c0 19 -20 36 -51 36c-33 0 -52 -19 -57 -56l-145 15c16 104 78 170 198 170c64 0 115 -15 154 -44s58 -64 58 -105c0 -55 -13 -81 -64 -125z" />
    <glyph glyph-name="three.oldstyle" horiz-adv-x="528" 
d="M235 89h-67v123h67c31 0 52 13 60 32c8 20 9 30 9 41s-6 23 -18 37c-11 15 -28 22 -50 22c-33 0 -63 -14 -89 -41l-94 77c41 63 121 102 210 97c58 -3 106 -22 144 -59c38 -36 56 -78 55 -126c0 -53 -29 -96 -86 -127c72 -27 115 -86 115 -158c0 -63 -25 -113 -74 -149
c-49 -37 -109 -55 -179 -55c-96 0 -176 45 -212 121l102 90c16 -36 54 -72 110 -72c63 0 95 34 95 75c0 40 -34 72 -98 72z" />
    <glyph glyph-name="four.oldstyle" horiz-adv-x="612" 
d="M498 93h78v-131h-78v-152h-162v152h-323l283 504h202v-373zM336 93v219l-117 -219h117z" />
    <glyph glyph-name="five.oldstyle" horiz-adv-x="586" 
d="M392 49c0 57 -45 92 -109 92c-62 0 -116 -23 -162 -70l-69 39l52 356h398v-139h-272l-14 -89c35 24 76 36 121 36c59 0 110 -21 151 -62s62 -96 62 -163c0 -72 -26 -131 -77 -178s-118 -71 -203 -71c-45 0 -89 12 -132 35s-79 53 -106 90l124 90c36 -43 74 -64 114 -64
c34 0 63 10 86 31c24 21 36 43 36 67z" />
    <glyph glyph-name="six.oldstyle" horiz-adv-x="598" 
d="M347 421c40 0 85 -15 129 -44s76 -89 76 -162c0 -66 -22 -120 -66 -162c-44 -41 -106 -62 -185 -62c-63 0 -117 21 -161 62c-43 41 -70 97 -79 167c-27 201 17 453 271 446c93 -4 163 -35 208 -128l-130 -62c-16 34 -44 51 -83 51c-47 0 -81 -25 -98 -64
c-16 -39 -24 -75 -24 -115c8 32 58 73 142 73zM228 212c0 -44 33 -79 82 -79s84 35 84 79c0 39 -33 76 -84 76c-47 0 -82 -37 -82 -76z" />
    <glyph glyph-name="seven.oldstyle" horiz-adv-x="527" 
d="M290 321h-259v145h496l-262 -656h-180z" />
    <glyph glyph-name="eight.oldstyle" horiz-adv-x="611" 
d="M210 220c0 -49 39 -86 96 -86s95 37 95 86c0 44 -39 84 -90 84h-8c-55 0 -93 -39 -93 -84zM89 487c0 51 21 94 64 128s94 51 153 51s108 -17 149 -51c41 -33 61 -76 61 -128c0 -49 -22 -101 -58 -118c29 -9 54 -30 75 -63s31 -67 31 -102c0 -63 -25 -114 -75 -154
c-50 -39 -111 -59 -183 -59s-133 20 -184 59c-50 40 -75 91 -75 154c0 75 38 142 102 165c-36 23 -60 73 -60 118zM239 481c0 -35 27 -60 67 -60c39 0 65 25 65 60c0 29 -26 58 -61 58h-6c-37 0 -65 -27 -65 -58z" />
    <glyph glyph-name="nine.oldstyle" horiz-adv-x="579" 
d="M245 48c-40 0 -85 15 -129 44s-76 89 -76 162c0 66 22 120 66 161c44 42 106 63 185 63c63 0 117 -21 160 -62c44 -41 71 -97 80 -167c27 -201 -17 -453 -271 -446c-93 4 -163 35 -208 128l130 62c16 -34 44 -51 83 -51c47 0 81 25 97 64c17 39 25 75 25 115
c-8 -32 -58 -73 -142 -73zM364 257c0 44 -33 79 -82 79s-84 -35 -84 -79c0 -39 33 -76 84 -76c47 0 82 37 82 76z" />
    <glyph glyph-name="Lslash.sc" horiz-adv-x="455" 
d="M235 132h208v-132h-362v214l-64 -39v86l64 39v290h154v-195l86 55v-86l-86 -56v-176z" />
    <glyph glyph-name="Zcaron.sc" horiz-adv-x="536" 
d="M348 788h98l-96 -153h-140l-96 153h98l68 -76zM43 0v110l244 348h-233v132h433v-111l-249 -347h249v-132h-444z" />
    <glyph glyph-name="exclam.sc" horiz-adv-x="305" 
d="M213 204h-120l-15 386h149zM67 77c0 47 37 81 84 81c48 0 86 -34 86 -81c0 -48 -38 -84 -86 -84c-45 0 -84 36 -84 84z" />
    <glyph glyph-name="ampersand.sc" horiz-adv-x="622" 
d="M357 234v2h-81c-27 0 -45 -11 -56 -32c-15 -32 7 -72 63 -72c15 0 74 10 74 102zM231 -8c-113 0 -181 69 -181 170c0 71 42 121 95 140c-45 15 -83 71 -83 134c0 43 17 80 50 109c33 30 77 47 132 52c73 5 140 -24 184 -73l-106 -91c-11 17 -26 25 -43 25
c-37 0 -57 -26 -57 -46c0 -36 22 -54 65 -54h70v58h132v-64h75v-105h-75v-63c0 -57 12 -86 37 -86c12 0 31 9 57 27v-105c-39 -18 -74 -27 -103 -27c-54 0 -87 24 -100 71c-14 -22 -36 -40 -65 -53s-57 -19 -84 -19z" />
    <glyph glyph-name="question.sc" horiz-adv-x="437" 
d="M245 206h-126v30c0 56 25 98 76 126l21 12c50 26 49 38 49 52c0 25 -16 38 -49 38c-31 0 -55 -20 -54 -52l-128 2c1 121 72 186 181 186c108 0 182 -65 182 -168c0 -81 -41 -138 -109 -163c-32 -12 -44 -30 -43 -63zM99 77c0 47 37 81 84 81c48 0 86 -34 86 -81
c0 -48 -38 -84 -86 -84c-47 0 -84 36 -84 84z" />
    <glyph glyph-name="A.sc" horiz-adv-x="600" 
d="M598 0h-160l-49 133h-177l-48 -133h-162l216 590h164zM355 264l-56 186l-50 -186h106z" />
    <glyph glyph-name="B.sc" horiz-adv-x="571" 
d="M499 433c0 -44 -20 -98 -75 -118c33 -8 59 -26 78 -54s28 -57 28 -87c0 -48 -15 -89 -46 -123s-81 -51 -151 -51h-260v590h243c112 0 183 -62 183 -157zM225 458v-93h68c28 0 46 16 46 43c0 33 -14 50 -43 50h-71zM305 241h-80v-109h80c41 0 64 24 64 55
c0 29 -20 54 -64 54z" />
    <glyph glyph-name="C.sc" horiz-adv-x="623" 
d="M469 216l125 -86c-59 -85 -150 -139 -253 -139c-83 0 -154 30 -213 89s-89 130 -89 213c0 84 30 156 89 215s130 89 213 89c104 0 199 -54 254 -138l-128 -88c-25 41 -75 71 -126 71c-41 0 -76 -15 -105 -44s-43 -64 -43 -105s14 -76 43 -105s64 -43 105 -43
c55 0 97 24 128 71z" />
    <glyph glyph-name="D.sc" horiz-adv-x="619" 
d="M308 0h-235v590h235c83 0 148 -28 196 -84c48 -55 72 -126 72 -213c0 -86 -24 -156 -72 -211s-113 -82 -196 -82zM308 456h-83v-322h83c37 0 65 15 86 46s31 69 31 113c0 45 -10 83 -31 115s-49 48 -86 48z" />
    <glyph glyph-name="E.sc" horiz-adv-x="516" 
d="M224 132h243v-132h-394v590h386v-132h-235v-102h207v-130h-207v-94z" />
    <glyph glyph-name="F.sc" horiz-adv-x="481" 
d="M409 225h-183v-225h-153v590h383v-132h-230v-102h183v-131z" />
    <glyph glyph-name="G.sc" horiz-adv-x="662" 
d="M577 488l-112 -95c-32 42 -73 63 -122 63c-42 0 -78 -16 -107 -48c-29 -31 -44 -70 -44 -115c0 -44 15 -83 44 -116s65 -49 107 -49c67 0 108 26 124 77h-160v113h328c0 -220 -113 -327 -292 -327c-85 0 -157 29 -216 88s-88 131 -88 214c0 85 29 156 88 215
s131 89 216 89c96 0 181 -41 234 -109z" />
    <glyph glyph-name="H.sc" horiz-adv-x="617" 
d="M224 590v-229h166v229h154v-590h-154v225h-166v-225h-151v590h151z" />
    <glyph glyph-name="I.sc" horiz-adv-x="297" 
d="M224 0h-151v590h151v-590z" />
    <glyph glyph-name="J.sc" horiz-adv-x="299" 
d="M-74 -189l13 136c21 -7 49 -10 86 -10c32 0 48 21 48 62v591h153v-591c0 -120 -64 -205 -201 -205c-36 0 -69 6 -99 17z" />
    <glyph glyph-name="K.sc" horiz-adv-x="565" 
d="M523 590l-222 -291l276 -299h-209l-144 169v-169h-151v590h151v-157l107 157h192z" />
    <glyph glyph-name="L.sc" horiz-adv-x="446" 
d="M226 132h208v-132h-361v590h153v-458z" />
    <glyph glyph-name="M.sc" horiz-adv-x="797" 
d="M239 590l161 -347l157 347h127l72 -590h-157l-33 299l-110 -231h-114l-110 231l-35 -299h-156l72 590h126z" />
    <glyph glyph-name="N.sc" horiz-adv-x="598" 
d="M209 590l164 -299v299h152v-590h-132l-169 302v-302h-151v590h136z" />
    <glyph glyph-name="O.sc" horiz-adv-x="680" 
d="M192 293c0 -41 14 -77 43 -106s64 -44 105 -44s76 15 105 44s44 65 44 106s-15 77 -44 106c-29 30 -64 45 -105 45s-76 -15 -105 -44s-43 -65 -43 -107zM39 293c0 84 29 156 88 215s130 89 213 89c84 0 155 -30 213 -89c59 -59 88 -131 88 -215c0 -83 -29 -155 -88 -214
c-58 -59 -129 -88 -213 -88c-83 0 -154 29 -213 88s-88 131 -88 214z" />
    <glyph glyph-name="P.sc" horiz-adv-x="547" 
d="M309 458h-85v-134h87c39 0 58 22 58 67s-20 67 -60 67zM318 194h-94v-194h-151v590h245c66 0 117 -20 152 -59s53 -86 53 -140s-18 -100 -53 -139s-86 -58 -152 -58z" />
    <glyph glyph-name="Q.sc" horiz-adv-x="688" 
d="M528 54l54 -92l-107 -63l-61 101c-23 -5 -46 -7 -71 -7c-85 0 -157 29 -216 88s-88 131 -88 214c0 85 29 156 88 215s131 89 216 89s157 -30 216 -89s89 -130 89 -215c0 -93 -47 -184 -120 -241zM295 203l105 61l50 -82c30 30 45 68 45 113s-15 83 -45 114
c-29 32 -65 48 -107 48c-43 0 -79 -16 -108 -47s-43 -70 -43 -115c0 -84 57 -144 142 -159z" />
    <glyph glyph-name="R.sc" horiz-adv-x="568" 
d="M311 458h-87v-134h88c39 0 58 22 58 67s-20 67 -59 67zM229 194h-5v-194h-151v590h245c66 0 117 -20 152 -59s53 -86 53 -140c0 -87 -50 -164 -138 -189l143 -202h-174z" />
    <glyph glyph-name="S.sc" horiz-adv-x="520" 
d="M41 178h153c3 -36 25 -54 66 -54c40 0 67 15 67 42c0 18 -18 34 -55 47l-68 24c-113 36 -155 108 -155 176c0 55 19 99 58 132c39 34 89 51 150 51c121 0 205 -71 205 -188h-151c0 34 -19 51 -56 51c-35 0 -56 -16 -56 -41c0 -17 17 -31 51 -42l66 -21
c61 -19 108 -50 129 -74c11 -12 19 -26 24 -42c12 -31 12 -42 12 -65c0 -135 -122 -183 -221 -183c-133 0 -219 71 -219 187z" />
    <glyph glyph-name="T.sc" horiz-adv-x="480" 
d="M315 0h-150v458h-150v132h450v-132h-150v-458z" />
    <glyph glyph-name="U.sc" horiz-adv-x="603" 
d="M301 -9c-64 0 -119 21 -165 62c-46 42 -69 96 -69 162v373h151v-373c0 -47 40 -82 83 -82c44 0 83 35 83 82v373h152v-373c0 -67 -23 -121 -69 -162s-101 -62 -166 -62z" />
    <glyph glyph-name="V.sc" horiz-adv-x="525" 
d="M509 590l-181 -590h-132l-180 590h158l88 -342l87 342h160z" />
    <glyph glyph-name="W.sc" horiz-adv-x="776" 
d="M264 275l61 230h126l61 -231l96 316h165l-201 -590h-115l-70 271l-67 -271h-117l-199 590h163z" />
    <glyph glyph-name="X.sc" horiz-adv-x="603" 
d="M207 590l94 -156l95 156h182l-186 -276l203 -314h-179l-115 192l-115 -192h-178l202 314l-185 276h182z" />
    <glyph glyph-name="Y.sc" horiz-adv-x="592" 
d="M372 261v-261h-152v264l-231 326h181l125 -208l129 208h177z" />
    <glyph glyph-name="Z.sc" horiz-adv-x="536" 
d="M43 0v110l244 348h-233v132h433v-111l-249 -347h249v-132h-444z" />
    <glyph glyph-name="Scaron.sc" horiz-adv-x="520" 
d="M328 788h98l-96 -153h-140l-95 153h97l68 -76zM41 178h153c3 -36 25 -54 66 -54c40 0 67 15 67 42c0 18 -18 34 -55 47l-68 24c-113 36 -155 108 -155 176c0 55 19 99 58 132c39 34 89 51 150 51c121 0 205 -71 205 -188h-151c0 34 -19 51 -56 51c-35 0 -56 -16 -56 -41
c0 -17 17 -31 51 -42l66 -21c61 -19 108 -50 129 -74c11 -12 19 -26 24 -42c12 -31 12 -42 12 -65c0 -135 -122 -183 -221 -183c-133 0 -219 71 -219 187z" />
    <glyph glyph-name="OE.sc" horiz-adv-x="934" 
d="M340 143c41 0 77 15 106 44s44 65 44 106c0 42 -15 78 -44 107s-65 44 -106 44s-76 -15 -105 -45c-29 -29 -43 -65 -43 -106s14 -77 43 -106s64 -44 105 -44zM641 132h244v-132h-395v28c-48 -25 -98 -37 -150 -37c-83 0 -154 29 -213 88s-88 131 -88 214
c0 84 29 156 88 215s130 89 213 89c50 0 100 -13 150 -39v32h387v-132h-236v-102h208v-130h-208v-94z" />
    <glyph glyph-name="Ydieresis.sc" horiz-adv-x="592" 
d="M147 711c0 37 30 66 69 66c37 0 66 -29 66 -66c0 -36 -29 -64 -66 -64s-69 29 -69 64zM310 711c0 37 30 66 69 66c37 0 66 -29 66 -66c0 -35 -29 -64 -66 -64s-69 29 -69 64zM372 261v-261h-152v264l-231 326h181l125 -208l129 208h177z" />
    <glyph glyph-name="exclamdown.sc" horiz-adv-x="303" 
d="M226 0h-149l15 386h120zM66 513c0 48 39 84 84 84c48 0 86 -36 86 -84c0 -47 -38 -81 -86 -81c-47 0 -84 34 -84 81z" />
    <glyph glyph-name="questiondown.sc" horiz-adv-x="437" 
d="M191 385h126v-30c0 -56 -25 -98 -76 -126l-21 -12c-50 -26 -49 -38 -49 -52c0 -25 16 -38 49 -38c31 0 55 20 54 52l128 -2c-1 -121 -72 -186 -181 -186c-108 0 -182 65 -182 168c0 81 41 138 109 163c32 12 44 30 43 63zM337 514c0 -47 -37 -81 -84 -81
c-48 0 -86 34 -86 81c0 48 38 84 86 84c47 0 84 -36 84 -84z" />
    <glyph glyph-name="Agrave.sc" horiz-adv-x="600" 
d="M366 633h-91l-118 155h133zM598 0h-160l-49 133h-177l-48 -133h-162l216 590h164zM355 264l-56 186l-50 -186h106z" />
    <glyph glyph-name="Aacute.sc" horiz-adv-x="600" 
d="M228 633l76 155h134l-118 -155h-92zM598 0h-160l-49 133h-177l-48 -133h-162l216 590h164zM355 264l-56 186l-50 -186h106z" />
    <glyph glyph-name="Acircumflex.sc" horiz-adv-x="600" 
d="M300 717l-68 -76h-98l96 152h140l96 -152h-99zM598 0h-160l-49 133h-177l-48 -133h-162l216 590h164zM355 264l-56 186l-50 -186h106z" />
    <glyph glyph-name="Atilde.sc" horiz-adv-x="600" 
d="M598 0h-160l-49 133h-177l-48 -133h-162l216 590h164zM355 264l-56 186l-50 -186h106zM358 748h68c-4 -80 -44 -116 -88 -116c-11 0 -25 6 -41 18c-15 12 -26 18 -33 18c-5 0 -21 -8 -21 -36h-67c4 80 44 116 88 116c11 0 25 -6 40 -18c16 -12 27 -18 34 -18
c4 0 20 8 20 36z" />
    <glyph glyph-name="Adieresis.sc" horiz-adv-x="600" 
d="M154 711c0 37 31 66 68 66s67 -29 67 -66c0 -35 -30 -64 -67 -64s-68 29 -68 64zM316 711c0 37 31 66 70 66c37 0 65 -29 65 -66c0 -36 -28 -64 -65 -64c-39 0 -70 29 -70 64zM598 0h-160l-49 133h-177l-48 -133h-162l216 590h164zM355 264l-56 186l-50 -186h106z" />
    <glyph glyph-name="Aring.sc" horiz-adv-x="600" 
d="M192 742c0 31 10 57 31 78s46 32 75 32c61 0 109 -49 109 -110c0 -60 -48 -108 -109 -108c-59 0 -106 48 -106 108zM298 688c32 0 56 22 56 54s-25 56 -56 56c-29 0 -52 -24 -52 -56s23 -54 52 -54zM598 0h-160l-49 133h-177l-48 -133h-162l216 590h164zM355 264l-56 186
l-50 -186h106z" />
    <glyph glyph-name="AE.sc" horiz-adv-x="826" 
d="M254 127l-80 -127h-184l363 590h417v-132h-236v-102h206v-128h-206v-96h243v-132h-396v127h-127zM381 403l-76 -148h76v148z" />
    <glyph glyph-name="Ccedilla.sc" horiz-adv-x="625" 
d="M470 216l125 -86c-53 -79 -135 -130 -227 -138c22 -23 33 -49 33 -77c0 -56 -42 -92 -98 -92c-59 0 -92 54 -91 115l63 -3c-3 -25 3 -41 18 -48c20 -8 45 6 45 33c0 29 -15 54 -44 75c-72 11 -132 45 -181 101c-49 57 -73 122 -73 197c0 84 30 156 89 215s130 89 213 89
c104 0 199 -54 254 -138l-128 -88c-25 41 -75 71 -126 71c-41 0 -76 -15 -105 -44s-43 -64 -43 -105s14 -76 43 -105s64 -43 105 -43c55 0 97 24 128 71z" />
    <glyph glyph-name="Egrave.sc" horiz-adv-x="516" 
d="M327 633h-92l-118 155h134zM224 132h243v-132h-394v590h386v-132h-235v-102h207v-130h-207v-94z" />
    <glyph glyph-name="Eacute.sc" horiz-adv-x="516" 
d="M467 0h-394v590h386v-132h-235v-102h207v-130h-207v-94h243v-132zM265 788h134l-118 -155h-92z" />
    <glyph glyph-name="Ecircumflex.sc" horiz-adv-x="516" 
d="M253 716l-68 -75h-97l95 152h140l97 -152h-99zM224 132h243v-132h-394v590h386v-132h-235v-102h207v-130h-207v-94z" />
    <glyph glyph-name="Edieresis.sc" horiz-adv-x="516" 
d="M467 0h-394v590h386v-132h-235v-102h207v-130h-207v-94h243v-132zM109 711c0 37 31 66 68 66s67 -29 67 -66c0 -35 -30 -64 -67 -64s-68 29 -68 64zM271 711c0 37 31 66 70 66c37 0 65 -29 65 -66c0 -36 -29 -64 -65 -64c-39 0 -70 29 -70 64z" />
    <glyph glyph-name="Igrave.sc" horiz-adv-x="297" 
d="M227 633h-92l-118 155h133zM224 0h-151v590h151v-590z" />
    <glyph glyph-name="Iacute.sc" horiz-adv-x="297" 
d="M72 628l75 158h133l-117 -158h-91zM224 0h-151v590h151v-590z" />
    <glyph glyph-name="Icircumflex.sc" horiz-adv-x="297" 
d="M147 716l-68 -75h-97l95 152h140l96 -152h-98zM224 0h-151v590h151v-590z" />
    <glyph glyph-name="Idieresis.sc" horiz-adv-x="297" 
d="M0 711c0 37 31 66 68 66c39 0 67 -29 67 -66c0 -36 -28 -64 -67 -64c-37 0 -68 29 -68 64zM163 711c0 37 30 66 69 66c37 0 66 -29 66 -66c0 -35 -29 -64 -66 -64s-69 29 -69 64zM224 0h-151v590h151v-590z" />
    <glyph glyph-name="Eth.sc" horiz-adv-x="633" 
d="M322 0h-235v238h-80v93h80v259h235c83 0 148 -28 196 -84c48 -55 72 -126 72 -213c0 -86 -24 -156 -72 -211s-113 -82 -196 -82zM239 331h86v-93h-86v-104h83c37 0 65 15 86 46s31 69 31 113c0 45 -10 83 -31 115s-49 48 -86 48h-83v-125z" />
    <glyph glyph-name="Ntilde.sc" horiz-adv-x="598" 
d="M209 590l164 -299v299h152v-590h-132l-169 302v-302h-151v590h136zM357 748h68c-4 -80 -44 -116 -88 -116c-11 0 -25 6 -41 18c-15 12 -26 18 -33 18c-5 0 -21 -8 -21 -36h-67c4 80 44 116 88 116c11 0 25 -6 40 -18c16 -12 27 -18 34 -18c4 0 20 8 20 36z" />
    <glyph glyph-name="Ograve.sc" horiz-adv-x="680" 
d="M388 633h-92l-118 155h134zM192 293c0 -41 14 -77 43 -106s64 -44 105 -44s76 15 105 44s44 65 44 106s-15 77 -44 106c-29 30 -64 45 -105 45s-76 -15 -105 -44s-43 -65 -43 -107zM39 293c0 84 29 156 88 215s130 89 213 89c84 0 155 -30 213 -89
c59 -59 88 -131 88 -215c0 -83 -29 -155 -88 -214c-58 -59 -129 -88 -213 -88c-83 0 -154 29 -213 88s-88 131 -88 214z" />
    <glyph glyph-name="Oacute.sc" horiz-adv-x="680" 
d="M278 633l78 155h133l-118 -155h-93zM192 293c0 -41 14 -77 43 -106s64 -44 105 -44s76 15 105 44s44 65 44 106s-15 77 -44 106c-29 30 -64 45 -105 45s-76 -15 -105 -44s-43 -65 -43 -107zM39 293c0 84 29 156 88 215s130 89 213 89c84 0 155 -30 213 -89
c59 -59 88 -131 88 -215c0 -83 -29 -155 -88 -214c-58 -59 -129 -88 -213 -88c-83 0 -154 29 -213 88s-88 131 -88 214z" />
    <glyph glyph-name="Ocircumflex.sc" horiz-adv-x="680" 
d="M340 716l-68 -75h-98l96 152h139l97 -152h-99zM192 293c0 -41 14 -77 43 -106s64 -44 105 -44s76 15 105 44s44 65 44 106s-15 77 -44 106c-29 30 -64 45 -105 45s-76 -15 -105 -44s-43 -65 -43 -107zM39 293c0 84 29 156 88 215s130 89 213 89c84 0 155 -30 213 -89
c59 -59 88 -131 88 -215c0 -83 -29 -155 -88 -214c-58 -59 -129 -88 -213 -88c-83 0 -154 29 -213 88s-88 131 -88 214z" />
    <glyph glyph-name="Otilde.sc" horiz-adv-x="680" 
d="M192 293c0 -41 14 -77 43 -106s64 -44 105 -44s76 15 105 44s44 65 44 106s-15 77 -44 106c-29 30 -64 45 -105 45s-76 -15 -105 -44s-43 -65 -43 -107zM39 293c0 84 29 156 88 215s130 89 213 89c84 0 155 -30 213 -89c59 -59 88 -131 88 -215c0 -83 -29 -155 -88 -214
c-58 -59 -129 -88 -213 -88c-83 0 -154 29 -213 88s-88 131 -88 214zM398 748h68c-4 -80 -44 -116 -88 -116c-11 0 -25 6 -41 18c-15 12 -26 18 -33 18c-5 0 -21 -8 -21 -36h-67c4 80 44 116 88 116c11 0 25 -6 40 -18c16 -12 27 -18 34 -18c4 0 20 8 20 36z" />
    <glyph glyph-name="Odieresis.sc" horiz-adv-x="680" 
d="M190 711c0 37 31 66 68 66s67 -29 67 -66c0 -35 -30 -64 -67 -64s-68 29 -68 64zM353 711c0 37 30 66 69 66c37 0 66 -29 66 -66c0 -35 -29 -64 -66 -64c-39 0 -69 29 -69 64zM192 293c0 -41 14 -77 43 -106s64 -44 105 -44s76 15 105 44s44 65 44 106s-15 77 -44 106
c-29 30 -64 45 -105 45s-76 -15 -105 -44s-43 -65 -43 -107zM39 293c0 84 29 156 88 215s130 89 213 89c84 0 155 -30 213 -89c59 -59 88 -131 88 -215c0 -83 -29 -155 -88 -214c-58 -59 -129 -88 -213 -88c-83 0 -154 29 -213 88s-88 131 -88 214z" />
    <glyph glyph-name="Oslash.sc" horiz-adv-x="680" 
d="M340 -9c-69 0 -130 22 -185 65l-69 -71l-43 44l68 69c-48 57 -72 122 -72 195c0 84 29 156 88 215s130 89 213 89c69 0 133 -23 190 -68l67 68l42 -42l-68 -70c47 -57 70 -121 70 -192c0 -83 -29 -155 -88 -214c-58 -59 -129 -88 -213 -88zM192 293c0 -31 8 -59 24 -86
l208 212c-23 17 -51 26 -84 26c-41 0 -76 -15 -105 -45c-29 -29 -43 -65 -43 -107zM340 142c41 0 76 15 105 44c29 30 44 66 44 107c0 29 -8 56 -25 81l-204 -207c26 -17 53 -25 80 -25z" />
    <glyph glyph-name="Ugrave.sc" horiz-adv-x="603" 
d="M363 633h-91l-119 155h133zM301 -9c-64 0 -119 21 -165 62c-46 42 -69 96 -69 162v373h151v-373c0 -47 40 -82 83 -82c44 0 83 35 83 82v373h152v-373c0 -67 -23 -121 -69 -162s-101 -62 -166 -62z" />
    <glyph glyph-name="Uacute.sc" horiz-adv-x="603" 
d="M247 633l76 155h134l-118 -155h-92zM301 -9c-64 0 -119 21 -165 62c-46 42 -69 96 -69 162v373h151v-373c0 -47 40 -82 83 -82c44 0 83 35 83 82v373h152v-373c0 -67 -23 -121 -69 -162s-101 -62 -166 -62z" />
    <glyph glyph-name="Ucircumflex.sc" horiz-adv-x="603" 
d="M301 716l-68 -75h-97l95 152h140l96 -152h-99zM301 -9c-64 0 -119 21 -165 62c-46 42 -69 96 -69 162v373h151v-373c0 -47 40 -82 83 -82c44 0 83 35 83 82v373h152v-373c0 -67 -23 -121 -69 -162s-101 -62 -166 -62z" />
    <glyph glyph-name="Udieresis.sc" horiz-adv-x="603" 
d="M153 711c0 37 31 66 68 66s67 -29 67 -66c0 -35 -30 -64 -67 -64s-68 29 -68 64zM315 711c0 37 31 66 70 66c37 0 65 -29 65 -66c0 -36 -29 -64 -65 -64c-39 0 -70 29 -70 64zM301 -9c-64 0 -119 21 -165 62c-46 42 -69 96 -69 162v373h151v-373c0 -47 40 -82 83 -82
c44 0 83 35 83 82v373h152v-373c0 -67 -23 -121 -69 -162s-101 -62 -166 -62z" />
    <glyph glyph-name="Yacute.sc" horiz-adv-x="592" 
d="M236 633l77 155h133l-118 -155h-92zM372 261v-261h-152v264l-231 326h181l125 -208l129 208h177z" />
    <glyph glyph-name="Thorn.sc" horiz-adv-x="508" 
d="M336 296c0 47 -24 75 -65 75h-47v-148h55c36 0 57 33 57 73zM287 98h-63v-98h-151v590h151v-94h63c55 0 102 -18 139 -55c38 -36 57 -84 57 -143s-19 -107 -57 -144c-37 -37 -84 -56 -139 -56z" />
    <glyph glyph-name="Amacron.sc" horiz-adv-x="600" 
d="M174 733h252v-79h-252v79zM598 0h-160l-49 133h-177l-48 -133h-162l216 590h164zM355 264l-56 186l-50 -186h106z" />
    <glyph glyph-name="Abreve.sc" horiz-adv-x="600" 
d="M182 762h80c0 -29 9 -42 37 -42c24 0 36 14 36 42h82c0 -69 -49 -117 -118 -117c-75 0 -117 54 -117 117zM598 0h-160l-49 133h-177l-48 -133h-162l216 590h164zM355 264l-56 186l-50 -186h106z" />
    <glyph glyph-name="Cacute.sc" horiz-adv-x="623" 
d="M594 130c-59 -85 -150 -139 -253 -139c-83 0 -154 30 -213 89s-89 130 -89 213c0 84 30 156 89 215s130 89 213 89c104 0 199 -54 254 -138l-128 -88c-25 41 -75 71 -126 71c-41 0 -76 -15 -105 -44s-43 -64 -43 -105s14 -76 43 -105s64 -43 105 -43c55 0 97 24 128 71z
M283 633l76 155h134l-118 -155h-92z" />
    <glyph glyph-name="Ccircumflex.sc" horiz-adv-x="623" 
d="M340 743l-68 -76h-97l95 152h140l96 -152h-99zM469 216l125 -86c-59 -85 -150 -139 -253 -139c-83 0 -154 30 -213 89s-89 130 -89 213c0 84 30 156 89 215s130 89 213 89c104 0 199 -54 254 -138l-128 -88c-25 41 -75 71 -126 71c-41 0 -76 -15 -105 -44
s-43 -64 -43 -105s14 -76 43 -105s64 -43 105 -43c55 0 97 24 128 71z" />
    <glyph glyph-name="Cdotaccent.sc" horiz-adv-x="623" 
d="M594 130c-59 -85 -150 -139 -253 -139c-83 0 -154 30 -213 89s-89 130 -89 213c0 84 30 156 89 215s130 89 213 89c104 0 199 -54 254 -138l-128 -88c-25 41 -75 71 -126 71c-41 0 -76 -15 -105 -44s-43 -64 -43 -105s14 -76 43 -105s64 -43 105 -43c55 0 97 24 128 71z
M266 717c0 41 32 72 75 72c41 0 74 -31 74 -72c0 -43 -33 -73 -74 -73c-43 0 -75 30 -75 73z" />
    <glyph glyph-name="Ccaron.sc" horiz-adv-x="623" 
d="M414 813h99l-96 -152h-140l-96 152h98l68 -75zM469 216l125 -86c-59 -85 -150 -139 -253 -139c-83 0 -154 30 -213 89s-89 130 -89 213c0 84 30 156 89 215s130 89 213 89c104 0 199 -54 254 -138l-128 -88c-25 41 -75 71 -126 71c-41 0 -76 -15 -105 -44
s-43 -64 -43 -105s14 -76 43 -105s64 -43 105 -43c55 0 97 24 128 71z" />
    <glyph glyph-name="Dcaron.sc" horiz-adv-x="618" 
d="M370 788h98l-96 -153h-139l-96 153h98l67 -77zM307 0h-234v589h234c83 0 148 -28 196 -84c48 -55 72 -126 72 -212s-24 -156 -72 -211s-113 -82 -196 -82zM307 456h-83v-323h83c37 0 66 15 87 46s31 69 31 114c0 44 -11 82 -32 114c-21 33 -49 49 -86 49z" />
    <glyph glyph-name="Aogonek.sc" horiz-adv-x="600" 
d="M218 590h164l216 -590c-31 -26 -47 -53 -47 -80s25 -41 45 -33c15 7 21 23 18 48l63 3c1 -63 -28 -115 -91 -115c-56 0 -98 36 -98 92c0 30 12 57 35 80l5 5h-90l-49 133h-177l-48 -133h-162zM355 264l-56 186l-50 -186h106z" />
    <glyph glyph-name="Emacron.sc" horiz-adv-x="516" 
d="M127 733h252v-79h-252v79zM224 132h243v-132h-394v590h386v-132h-235v-102h207v-130h-207v-94z" />
    <glyph glyph-name="Ebreve.sc" horiz-adv-x="516" 
d="M467 0h-394v590h386v-132h-235v-102h207v-130h-207v-94h243v-132zM142 762h80c0 -29 9 -42 37 -42c24 0 36 14 36 42h82c0 -69 -49 -117 -118 -117c-75 0 -117 54 -117 117z" />
    <glyph glyph-name="Edotaccent.sc" horiz-adv-x="516" 
d="M467 0h-394v590h386v-132h-235v-102h207v-130h-207v-94h243v-132zM185 717c0 41 32 72 75 72c41 0 74 -31 74 -72c0 -43 -33 -73 -74 -73c-43 0 -75 30 -75 73z" />
    <glyph glyph-name="Ecaron.sc" horiz-adv-x="516" 
d="M321 788h99l-97 -153h-140l-95 153h97l68 -77zM224 132h243v-132h-394v590h386v-132h-235v-102h207v-130h-207v-94z" />
    <glyph glyph-name="Gcircumflex.sc" horiz-adv-x="662" 
d="M577 488l-112 -95c-32 42 -73 63 -122 63c-42 0 -78 -16 -107 -48c-29 -31 -44 -70 -44 -115c0 -44 15 -83 44 -116s65 -49 107 -49c67 0 108 26 124 77h-160v113h328c0 -220 -113 -327 -292 -327c-85 0 -157 29 -216 88s-88 131 -88 214c0 85 29 156 88 215
s131 89 216 89c96 0 181 -41 234 -109zM343 743l-68 -76h-97l95 152h140l96 -152h-99z" />
    <glyph glyph-name="Gbreve.sc" horiz-adv-x="662" 
d="M226 762h81c0 -31 9 -42 37 -42c23 0 35 14 35 42h83c0 -69 -49 -117 -118 -117c-75 0 -118 54 -118 117zM577 488l-112 -95c-32 42 -73 63 -122 63c-42 0 -78 -16 -107 -48c-29 -31 -44 -70 -44 -115c0 -44 15 -83 44 -116s65 -49 107 -49c67 0 108 26 124 77h-160v113
h328c0 -220 -113 -327 -292 -327c-85 0 -157 29 -216 88s-88 131 -88 214c0 85 29 156 88 215s131 89 216 89c96 0 181 -41 234 -109z" />
    <glyph glyph-name="Eogonek.sc" horiz-adv-x="516" 
d="M467 132v-132c-31 -26 -47 -53 -47 -80s25 -41 45 -33c15 7 21 23 18 48l63 3c1 -63 -27 -115 -91 -115c-56 0 -98 36 -98 92c0 29 13 58 40 85h-324v590h386v-132h-235v-102h207v-130h-207v-94h243z" />
    <glyph glyph-name="Dcroat.sc" horiz-adv-x="633" 
d="M322 0h-235v238h-80v93h80v259h235c83 0 148 -28 196 -84c48 -55 72 -126 72 -213c0 -86 -24 -156 -72 -211s-113 -82 -196 -82zM239 331h86v-93h-86v-104h83c37 0 65 15 86 46s31 69 31 113c0 45 -10 83 -31 115s-49 48 -86 48h-83v-125z" />
    <glyph glyph-name="Gdotaccent.sc" horiz-adv-x="662" 
d="M273 717c0 41 33 72 74 72c43 0 74 -31 74 -72c0 -43 -31 -73 -74 -73c-41 0 -74 30 -74 73zM577 488l-112 -95c-32 42 -73 63 -122 63c-42 0 -78 -16 -107 -48c-29 -31 -44 -70 -44 -115c0 -44 15 -83 44 -116s65 -49 107 -49c67 0 108 26 124 77h-160v113h328
c0 -220 -113 -327 -292 -327c-85 0 -157 29 -216 88s-88 131 -88 214c0 85 29 156 88 215s131 89 216 89c96 0 181 -41 234 -109z" />
    <glyph glyph-name="Hcircumflex.sc" horiz-adv-x="617" 
d="M308 717l-68 -76h-97l95 152h140l96 -152h-99zM224 590v-229h166v229h154v-590h-154v225h-166v-225h-151v590h151z" />
    <glyph glyph-name="Hbar.sc" horiz-adv-x="631" 
d="M231 226v-226h-152v432h-62v74h62v84h152v-84h166v84h154v-84h63v-74h-63v-432h-154v226h-166zM397 361v71h-166v-71h166z" />
    <glyph glyph-name="Itilde.sc" horiz-adv-x="297" 
d="M224 0h-151v590h151v-590zM202 748h68c-4 -80 -44 -116 -88 -116c-11 0 -25 6 -41 18c-15 12 -26 18 -33 18c-5 0 -21 -8 -21 -36h-67c4 80 44 116 88 116c11 0 25 -6 40 -18c16 -12 27 -18 34 -18c4 0 20 8 20 36z" />
    <glyph glyph-name="Imacron.sc" horiz-adv-x="297" 
d="M23 733h252v-79h-252v79zM224 0h-151v590h151v-590z" />
    <glyph glyph-name="Iogonek.sc" horiz-adv-x="297" 
d="M73 590h151v-590c-31 -26 -47 -53 -47 -80s25 -41 45 -33c15 7 21 23 18 48l63 3c1 -77 -29 -115 -91 -115c-56 0 -98 36 -98 92c0 30 13 58 40 85h-81v590z" />
    <glyph glyph-name="IJ.sc" horiz-adv-x="596" 
d="M223 -189l13 136c21 -7 49 -10 86 -10c32 0 48 21 48 62v591h153v-591c0 -120 -64 -205 -201 -205c-36 0 -69 6 -99 17zM224 0h-151v590h151v-590z" />
    <glyph glyph-name="Jcircumflex.sc" horiz-adv-x="299" 
d="M147 716l-67 -75h-98l96 152h139l96 -152h-98zM-74 -189l13 136c21 -7 49 -10 86 -10c32 0 48 21 48 62v591h153v-591c0 -120 -64 -205 -201 -205c-36 0 -69 6 -99 17z" />
    <glyph glyph-name="Lacute.sc" horiz-adv-x="446" 
d="M434 0h-361v590h153v-458h208v-132zM73 633l78 155h133l-118 -155h-93z" />
    <glyph glyph-name="Lcaron.sc" horiz-adv-x="476" 
d="M226 132h208v-132h-361v590h153v-458zM277 435l78 155h133l-118 -155h-93z" />
    <glyph glyph-name="Ldot.sc" horiz-adv-x="453" 
d="M226 132h208v-132h-361v590h153v-458zM284 285c0 41 32 72 75 72c41 0 74 -31 74 -72c0 -43 -33 -73 -74 -73c-43 0 -75 30 -75 73z" />
    <glyph glyph-name="Nacute.sc" horiz-adv-x="598" 
d="M373 590h152v-590h-132l-169 302v-302h-151v590h136l164 -299v299zM218 633l76 155h134l-118 -155h-92z" />
    <glyph glyph-name="Ncaron.sc" horiz-adv-x="598" 
d="M367 788h99l-97 -153h-139l-96 153h98l67 -77zM209 590l164 -299v299h152v-590h-132l-169 302v-302h-151v590h136z" />
    <glyph glyph-name="Omacron.sc" horiz-adv-x="680" 
d="M214 733h251v-79h-251v79zM192 293c0 -41 14 -77 43 -106s64 -44 105 -44s76 15 105 44s44 65 44 106s-15 77 -44 106c-29 30 -64 45 -105 45s-76 -15 -105 -44s-43 -65 -43 -107zM39 293c0 84 29 156 88 215s130 89 213 89c84 0 155 -30 213 -89c59 -59 88 -131 88 -215
c0 -83 -29 -155 -88 -214c-58 -59 -129 -88 -213 -88c-83 0 -154 29 -213 88s-88 131 -88 214z" />
    <glyph glyph-name="Obreve.sc" horiz-adv-x="680" 
d="M221 762h80c0 -29 10 -42 38 -42c24 0 36 14 36 42h83c0 -68 -51 -117 -119 -117c-75 0 -118 54 -118 117zM192 293c0 -41 14 -77 43 -106s64 -44 105 -44s76 15 105 44s44 65 44 106s-15 77 -44 106c-29 30 -64 45 -105 45s-76 -15 -105 -44s-43 -65 -43 -107zM39 293
c0 84 29 156 88 215s130 89 213 89c84 0 155 -30 213 -89c59 -59 88 -131 88 -215c0 -83 -29 -155 -88 -214c-58 -59 -129 -88 -213 -88c-83 0 -154 29 -213 88s-88 131 -88 214z" />
    <glyph glyph-name="Ohungarumlaut.sc" horiz-adv-x="680" 
d="M449 631h-88l88 154h96zM322 631h-82l76 154h92zM192 293c0 -41 14 -77 43 -106s64 -44 105 -44s76 15 105 44s44 65 44 106s-15 77 -44 106c-29 30 -64 45 -105 45s-76 -15 -105 -44s-43 -65 -43 -107zM39 293c0 84 29 156 88 215s130 89 213 89c84 0 155 -30 213 -89
c59 -59 88 -131 88 -215c0 -83 -29 -155 -88 -214c-58 -59 -129 -88 -213 -88c-83 0 -154 29 -213 88s-88 131 -88 214z" />
    <glyph glyph-name="Racute.sc" horiz-adv-x="568" 
d="M192 633l76 155h133l-117 -155h-92zM224 458v-134h88c39 0 58 22 58 67s-20 67 -59 67h-87zM224 0h-151v590h245c66 0 117 -20 152 -59s53 -86 53 -140c0 -87 -50 -164 -138 -189l143 -202h-174l-125 194h-5v-194z" />
    <glyph glyph-name="Rcaron.sc" horiz-adv-x="568" 
d="M344 788h99l-97 -153h-140l-94 153h96l69 -76zM311 458h-87v-134h88c39 0 58 22 58 67s-20 67 -59 67zM229 194h-5v-194h-151v590h245c66 0 117 -20 152 -59s53 -86 53 -140c0 -87 -50 -164 -138 -189l143 -202h-174z" />
    <glyph glyph-name="Sacute.sc" horiz-adv-x="520" 
d="M194 178c3 -36 25 -54 66 -54c40 0 67 15 67 42c0 18 -18 34 -55 47l-68 24c-113 36 -155 108 -155 176c0 55 19 99 58 132c39 34 89 51 150 51c121 0 205 -71 205 -188h-151c0 34 -19 51 -56 51c-35 0 -56 -16 -56 -41c0 -17 17 -31 51 -42l66 -21
c96 -33 140 -73 153 -116c12 -31 12 -42 12 -65c0 -135 -122 -183 -221 -183c-133 0 -219 71 -219 187h153zM203 633l76 155h133l-117 -155h-92z" />
    <glyph glyph-name="Scircumflex.sc" horiz-adv-x="520" 
d="M260 717l-68 -76h-98l96 152h140l96 -152h-98zM41 178h153c3 -36 25 -54 66 -54c40 0 67 15 67 42c0 18 -18 34 -55 47l-68 24c-113 36 -155 108 -155 176c0 55 19 99 58 132c39 34 89 51 150 51c121 0 205 -71 205 -188h-151c0 34 -19 51 -56 51c-35 0 -56 -16 -56 -41
c0 -17 17 -31 51 -42l66 -21c61 -19 108 -50 129 -74c11 -12 19 -26 24 -42c12 -31 12 -42 12 -65c0 -135 -122 -183 -221 -183c-133 0 -219 71 -219 187z" />
    <glyph glyph-name="Scedilla.sc" horiz-adv-x="522" 
d="M42 178h153c3 -36 25 -54 66 -54c40 0 67 15 67 42c0 18 -18 34 -55 47l-68 24c-113 36 -155 108 -155 176c0 55 19 99 58 132c39 34 89 51 150 51c121 0 205 -71 205 -188h-151c0 34 -19 51 -56 51c-35 0 -56 -16 -56 -41c0 -17 17 -31 51 -42l66 -21
c61 -19 108 -50 129 -74c11 -12 19 -26 24 -42c12 -31 12 -42 12 -65c0 -53 -17 -94 -51 -124c-33 -29 -74 -48 -123 -55c23 -24 35 -51 35 -80c0 -56 -42 -92 -98 -92c-59 0 -92 54 -91 115l63 -3c-3 -25 3 -41 18 -48c20 -8 45 6 45 33s-13 51 -39 72
c-123 7 -199 77 -199 186z" />
    <glyph glyph-name="Utilde.sc" horiz-adv-x="603" 
d="M301 -9c-64 0 -119 21 -165 62c-46 42 -69 96 -69 162v373h151v-373c0 -47 40 -82 83 -82c44 0 83 35 83 82v373h152v-373c0 -67 -23 -121 -69 -162s-101 -62 -166 -62zM352 748h68c-4 -80 -44 -116 -88 -116c-11 0 -25 6 -41 18c-15 12 -26 18 -33 18
c-5 0 -21 -8 -21 -36h-67c4 80 44 116 88 116c11 0 25 -6 40 -18c16 -12 27 -18 34 -18c4 0 20 8 20 36z" />
    <glyph glyph-name="Umacron.sc" horiz-adv-x="603" 
d="M177 733h251v-79h-251v79zM301 -9c-64 0 -119 21 -165 62c-46 42 -69 96 -69 162v373h151v-373c0 -47 40 -82 83 -82c44 0 83 35 83 82v373h152v-373c0 -67 -23 -121 -69 -162s-101 -62 -166 -62z" />
    <glyph glyph-name="Ubreve.sc" horiz-adv-x="603" 
d="M184 762h81c0 -29 9 -42 37 -42c23 0 35 14 35 42h83c0 -68 -50 -117 -118 -117c-75 0 -118 53 -118 117zM301 -9c-64 0 -119 21 -165 62c-46 42 -69 96 -69 162v373h151v-373c0 -47 40 -82 83 -82c44 0 83 35 83 82v373h152v-373c0 -67 -23 -121 -69 -162
s-101 -62 -166 -62z" />
    <glyph glyph-name="Uring.sc" horiz-adv-x="603" 
d="M301 -9c-64 0 -119 21 -165 62c-46 42 -69 96 -69 162v373h151v-373c0 -47 40 -82 83 -82c44 0 83 35 83 82v373h152v-373c0 -67 -23 -121 -69 -162s-101 -62 -166 -62zM195 742c0 31 10 57 31 78s46 32 75 32c61 0 109 -49 109 -110c0 -60 -48 -108 -109 -108
c-59 0 -106 48 -106 108zM301 688c32 0 56 22 56 54s-25 56 -56 56c-29 0 -52 -24 -52 -56s23 -54 52 -54z" />
    <glyph glyph-name="Uhungarumlaut.sc" horiz-adv-x="603" 
d="M301 -9c-64 0 -119 21 -165 62c-46 42 -69 96 -69 162v373h151v-373c0 -47 40 -82 83 -82c44 0 83 35 83 82v373h152v-373c0 -67 -23 -121 -69 -162s-101 -62 -166 -62zM393 631h-88l88 154h96zM266 631h-82l76 154h92z" />
    <glyph glyph-name="Uogonek.sc" horiz-adv-x="603" 
d="M328 -7c-26 -21 -39 -45 -39 -73c0 -27 25 -41 45 -33c15 7 21 23 18 48l63 3c1 -63 -27 -115 -91 -115c-56 0 -98 36 -98 92c0 29 11 56 34 79c-55 9 -101 33 -138 73s-55 89 -55 148v373h151v-373c0 -47 40 -82 83 -82c44 0 83 35 83 82v373h152v-373
c0 -61 -20 -112 -60 -153c-40 -40 -89 -63 -148 -69z" />
    <glyph glyph-name="Wcircumflex.sc" horiz-adv-x="776" 
d="M388 717l-68 -76h-97l94 152h141l96 -152h-99zM264 275l61 230h126l61 -231l96 316h165l-201 -590h-115l-70 271l-67 -271h-117l-199 590h163z" />
    <glyph glyph-name="Ycircumflex.sc" horiz-adv-x="592" 
d="M295 717l-68 -76h-97l95 152h140l96 -152h-99zM372 261v-261h-152v264l-231 326h181l125 -208l129 208h177z" />
    <glyph glyph-name="Tcaron.sc" horiz-adv-x="480" 
d="M303 788h99l-97 -153h-140l-95 153h97l68 -77zM315 0h-150v458h-150v132h450v-132h-150v-458z" />
    <glyph glyph-name="Tbar.sc" horiz-adv-x="482" 
d="M166 0v235h-104v83h104v140h-150v132h450v-132h-150v-140h100v-83h-100v-235h-150z" />
    <glyph glyph-name="Zacute.sc" horiz-adv-x="536" 
d="M43 0v110l244 348h-233v132h433v-111l-249 -347h249v-132h-444zM215 633l76 155h135l-118 -155h-93z" />
    <glyph glyph-name="Zdotaccent.sc" horiz-adv-x="536" 
d="M43 0v110l244 348h-233v132h433v-111l-249 -347h249v-132h-444zM186 717c0 41 32 72 75 72c41 0 74 -31 74 -72c0 -43 -33 -73 -74 -73c-43 0 -75 30 -75 73z" />
    <glyph glyph-name="Wgrave.sc" horiz-adv-x="776" 
d="M429 633h-92l-118 155h133zM264 275l61 230h126l61 -231l96 316h165l-201 -590h-115l-70 271l-67 -271h-117l-199 590h163z" />
    <glyph glyph-name="Wacute.sc" horiz-adv-x="776" 
d="M451 505l61 -231l96 316h165l-201 -590h-115l-70 271l-67 -271h-117l-199 590h163l97 -315l61 230h126zM424 788h133l-118 -155h-92z" />
    <glyph glyph-name="Wdieresis.sc" horiz-adv-x="776" 
d="M451 505l61 -231l96 316h165l-201 -590h-115l-70 271l-67 -271h-117l-199 590h163l97 -315l61 230h126zM237 711c0 37 31 66 68 66s67 -29 67 -66c0 -35 -30 -64 -67 -64s-68 29 -68 64zM399 711c0 37 31 66 70 66c37 0 65 -29 65 -66c0 -36 -29 -64 -65 -64
c-39 0 -70 29 -70 64z" />
    <glyph glyph-name="Aringacute.sc" horiz-adv-x="600" 
d="M598 0h-160l-49 133h-177l-48 -133h-162l216 590h164zM315 971h134l-102 -131c36 -19 60 -55 60 -98c0 -60 -48 -108 -109 -108c-59 0 -106 48 -106 108c0 43 23 80 59 99zM355 264l-56 186l-50 -186h106zM298 688c32 0 56 22 56 54s-25 56 -56 56c-29 0 -52 -24 -52 -56
s23 -54 52 -54z" />
    <glyph glyph-name="AEacute.sc" horiz-adv-x="826" 
d="M363 633l76 155h133l-117 -155h-92zM-10 0l363 590h417v-132h-236v-102h206v-128h-206v-96h243v-132h-396v127h-127l-80 -127h-184zM381 255v148l-76 -148h76z" />
    <glyph glyph-name="Oslashacute.sc" horiz-adv-x="680" 
d="M297 633l76 155h134l-118 -155h-92zM340 -9c-69 0 -130 22 -185 65l-69 -71l-43 44l68 69c-48 57 -72 122 -72 195c0 84 29 156 88 215s130 89 213 89c69 0 133 -23 190 -68l67 68l42 -42l-68 -70c47 -57 70 -121 70 -192c0 -83 -29 -155 -88 -214
c-58 -59 -129 -88 -213 -88zM192 293c0 -31 8 -59 24 -86l208 212c-23 17 -51 26 -84 26c-41 0 -76 -15 -105 -45c-29 -29 -43 -65 -43 -107zM340 142c41 0 76 15 105 44c29 30 44 66 44 107c0 29 -8 56 -25 81l-204 -207c26 -17 53 -25 80 -25z" />
    <glyph glyph-name="Ibreve.sc" horiz-adv-x="297" 
d="M32 762h81c0 -31 9 -42 37 -42c23 0 35 14 35 42h83c0 -68 -50 -117 -118 -117c-75 0 -118 53 -118 117zM224 0h-151v590h151v-590z" />
    <glyph glyph-name="Eng.sc" horiz-adv-x="597" 
d="M380 10l-156 294v-304h-151v590h135l165 -310v310h151v-592c0 -120 -64 -205 -201 -205c-36 0 -69 6 -99 17l13 134c21 -7 49 -10 86 -10c35 0 57 32 57 76z" />
    <glyph glyph-name="Ygrave.sc" horiz-adv-x="592" 
d="M344 633h-91l-119 155h133zM372 261v-261h-152v264l-231 326h181l125 -208l129 208h177z" />
    <glyph glyph-name="Gcommaaccent.sc" horiz-adv-x="662" 
d="M291 -266l-68 42c41 57 61 113 61 166h118c0 -75 -37 -145 -111 -208zM577 488l-112 -95c-32 42 -73 63 -122 63c-42 0 -78 -16 -107 -48c-29 -31 -44 -70 -44 -115c0 -44 15 -83 44 -116s65 -49 107 -49c67 0 108 26 124 77h-160v113h328c0 -220 -113 -327 -292 -327
c-85 0 -157 29 -216 88s-88 131 -88 214c0 85 29 156 88 215s131 89 216 89c96 0 181 -41 234 -109z" />
    <glyph glyph-name="Kcommaaccent.sc" horiz-adv-x="565" 
d="M523 590l-222 -291l276 -299h-209l-144 169v-169h-151v590h151v-157l107 157h192zM241 -266l-68 42c41 57 61 113 61 166h118c0 -75 -37 -145 -111 -208z" />
    <glyph glyph-name="Lcommaaccent.sc" horiz-adv-x="446" 
d="M226 132h208v-132h-361v590h153v-458zM200 -266l-68 42c41 57 61 113 61 166h118c0 -75 -37 -145 -111 -208z" />
    <glyph glyph-name="Ncommaaccent.sc" horiz-adv-x="598" 
d="M209 590l164 -299v299h152v-590h-132l-169 302v-302h-151v590h136zM254 -266l-68 42c41 57 61 113 61 166h118c0 -75 -37 -145 -111 -208z" />
    <glyph glyph-name="Rcommaaccent.sc" horiz-adv-x="568" 
d="M311 458h-87v-134h88c39 0 58 22 58 67s-20 67 -59 67zM229 194h-5v-194h-151v590h245c66 0 117 -20 152 -59s53 -86 53 -140c0 -87 -50 -164 -138 -189l143 -202h-174zM237 -266l-68 42c41 57 61 113 61 166h118c0 -75 -37 -145 -111 -208z" />
    <glyph glyph-name="Tcommaaccent.sc" horiz-adv-x="480" 
d="M315 0h-150v458h-150v132h450v-132h-150v-458zM182 -266l-68 42c41 57 61 113 61 166h118c0 -75 -37 -145 -111 -208z" />
    <glyph glyph-name="Scommaaccent.sc" horiz-adv-x="520" 
d="M41 178h153c3 -36 25 -54 66 -54c40 0 67 15 67 42c0 18 -18 34 -55 47l-68 24c-113 36 -155 108 -155 176c0 55 19 99 58 132c39 34 89 51 150 51c121 0 205 -71 205 -188h-151c0 34 -19 51 -56 51c-35 0 -56 -16 -56 -41c0 -17 17 -31 51 -42l66 -21
c61 -19 108 -50 129 -74c11 -12 19 -26 24 -42c12 -31 12 -42 12 -65c0 -135 -122 -183 -221 -183c-133 0 -219 71 -219 187zM215 -266l-68 42c41 57 61 113 61 166h118c0 -75 -37 -145 -111 -208z" />
    <glyph glyph-name="Idotaccent.sc" horiz-adv-x="297" 
d="M78 720c0 40 31 70 72 70c40 0 71 -30 71 -70c0 -41 -31 -71 -71 -71c-41 0 -72 30 -72 71zM224 0h-151v590h151v-590z" />
    <glyph glyph-name="zero.numr" horiz-adv-x="361" 
d="M31 458c0 135 50 203 151 203c99 0 148 -68 148 -203c0 -134 -49 -201 -148 -201c-101 0 -151 67 -151 201zM134 458c0 -68 16 -102 48 -102c29 0 44 34 44 102c0 69 -15 103 -44 103c-32 0 -48 -34 -48 -103z" />
    <glyph glyph-name="one.numr" horiz-adv-x="242" 
d="M19 489v87l176 91v-405h-106v259z" />
    <glyph glyph-name="two.numr" horiz-adv-x="341" 
d="M28 262v61l166 187c17 27 2 51 -27 51c-23 0 -37 -13 -41 -40l-98 14c13 84 62 126 147 126c36 0 67 -12 93 -35s39 -52 39 -87c-1 -38 -14 -71 -41 -98l-85 -88h128v-91h-281z" />
    <glyph glyph-name="three.numr" horiz-adv-x="338" 
d="M146 429h-42v74h42c30 0 45 12 45 37c0 16 -15 31 -44 31c-25 0 -45 -8 -60 -25l-55 57c27 39 72 58 133 58c36 0 66 -11 91 -34c25 -22 38 -48 37 -77c0 -32 -19 -57 -56 -76c47 -17 71 -47 73 -88s-12 -73 -43 -96c-31 -22 -68 -33 -113 -33c-69 0 -115 23 -137 68
l54 54c18 -25 44 -37 79 -37c40 0 60 20 60 47c0 25 -29 40 -64 40z" />
    <glyph glyph-name="four.numr" horiz-adv-x="379" 
d="M141 442h62v122zM308 656v-214h45v-87h-45v-93h-105v93h-197l161 301h141z" />
    <glyph glyph-name="five.numr" horiz-adv-x="362" 
d="M239 408c0 29 -27 52 -63 52c-37 0 -73 -13 -108 -40l-34 20l30 216h244v-87h-162l-8 -54c21 15 45 23 73 23c35 0 65 -12 90 -36s38 -55 38 -94c0 -43 -16 -80 -47 -109s-73 -43 -125 -43c-53 0 -110 29 -145 72l77 60c25 -27 48 -40 68 -40c41 0 72 28 72 60z" />
    <glyph glyph-name="six.numr" horiz-adv-x="361" 
d="M144 390c0 -25 17 -45 48 -45s50 21 50 45c0 21 -18 42 -50 42c-28 0 -48 -21 -48 -42zM217 514c28 0 56 -10 83 -30c27 -19 41 -49 41 -88c0 -81 -55 -139 -155 -139c-76 0 -131 54 -146 138c-13 60 -4 127 16 179c21 53 76 90 149 87c61 -3 103 -28 127 -77l-78 -40
c-10 21 -27 31 -52 31c-52 0 -71 -52 -74 -104c4 19 34 43 89 43z" />
    <glyph glyph-name="seven.numr" horiz-adv-x="322" 
d="M58 262l114 301h-152v93h298l-147 -394h-113z" />
    <glyph glyph-name="eight.numr" horiz-adv-x="370" 
d="M238 389c0 24 -20 45 -52 45c-51 5 -68 -50 -39 -80c9 -9 22 -13 39 -13c33 0 52 20 52 48zM50 555c0 31 13 57 40 76c27 20 59 30 96 30c72 0 129 -43 129 -106c0 -31 -15 -66 -39 -74c18 -3 34 -14 47 -35c14 -21 21 -42 21 -64c0 -38 -15 -68 -46 -91
c-30 -23 -67 -34 -112 -34s-82 11 -113 34s-46 53 -46 91c0 45 24 90 64 99c-24 12 -41 46 -41 74zM145 551c0 -21 16 -37 41 -37s40 16 40 37c0 17 -16 34 -40 34c-27 0 -41 -11 -41 -34z" />
    <glyph glyph-name="nine.numr" horiz-adv-x="362" 
d="M223 528c0 24 -17 44 -48 44s-49 -20 -49 -44c0 -21 17 -42 49 -42c28 0 48 21 48 42zM150 404c-35 0 -124 23 -124 118c0 81 55 139 155 139c77 0 131 -53 146 -138c13 -60 4 -127 -17 -180c-20 -52 -75 -89 -148 -86c-61 3 -103 28 -127 77l78 39c9 -20 27 -30 52 -30
c52 0 71 52 74 104c-4 -19 -38 -43 -89 -43z" />
    <glyph glyph-name="zero.dnom" horiz-adv-x="361" 
d="M31 196c0 135 50 203 151 203c99 0 148 -68 148 -203c0 -134 -49 -201 -148 -201c-101 0 -151 67 -151 201zM134 196c0 -68 16 -102 48 -102c29 0 44 34 44 102c0 69 -15 103 -44 103c-32 0 -48 -34 -48 -103z" />
    <glyph glyph-name="one.dnom" horiz-adv-x="242" 
d="M19 227v87l176 91v-405h-106v259z" />
    <glyph glyph-name="two.dnom" horiz-adv-x="341" 
d="M28 0v61l166 187c17 27 2 51 -27 51c-23 0 -37 -13 -41 -40l-98 14c13 84 62 126 147 126c36 0 67 -12 93 -35s39 -52 39 -87c-1 -38 -14 -71 -41 -98l-85 -88h128v-91h-281z" />
    <glyph glyph-name="three.dnom" horiz-adv-x="337" 
d="M145 167h-42v74h42c30 0 45 12 45 37c0 16 -15 31 -44 31c-25 0 -45 -8 -60 -25l-55 57c27 39 72 58 133 58c36 0 66 -11 91 -34c25 -22 38 -48 37 -77c0 -32 -19 -57 -56 -76c47 -17 71 -47 73 -88s-12 -73 -43 -96c-31 -22 -68 -33 -113 -33c-69 0 -115 23 -137 68
l54 54c18 -25 44 -37 79 -37c40 0 60 20 60 47c0 25 -29 40 -64 40z" />
    <glyph glyph-name="four.dnom" horiz-adv-x="380" 
d="M142 180h62v122zM309 394v-214h45v-87h-45v-93h-105v93h-197l161 301h141z" />
    <glyph glyph-name="five.dnom" horiz-adv-x="362" 
d="M238 146c0 29 -27 52 -63 52c-37 0 -73 -13 -108 -40l-34 20l30 216h244v-87h-162l-8 -54c21 15 45 23 73 23c35 0 65 -12 90 -36s38 -55 38 -94c0 -43 -16 -80 -47 -109s-73 -43 -125 -43c-53 0 -110 29 -145 72l77 60c25 -27 48 -40 68 -40c41 0 72 28 72 60z" />
    <glyph glyph-name="six.dnom" horiz-adv-x="362" 
d="M144 128c0 -25 17 -45 48 -45s50 21 50 45c0 21 -18 42 -50 42c-28 0 -48 -21 -48 -42zM217 252c28 0 56 -10 83 -30c27 -19 41 -49 41 -88c0 -81 -55 -139 -155 -139c-76 0 -131 54 -146 138c-13 60 -4 127 16 179c21 53 76 90 149 87c61 -3 103 -28 127 -77l-78 -40
c-10 21 -27 31 -52 31c-52 0 -71 -52 -74 -104c4 19 34 43 89 43z" />
    <glyph glyph-name="seven.dnom" horiz-adv-x="322" 
d="M58 0l114 301h-152v93h298l-147 -394h-113z" />
    <glyph glyph-name="eight.dnom" horiz-adv-x="370" 
d="M238 127c0 24 -20 45 -52 45c-51 5 -68 -50 -39 -80c9 -9 22 -13 39 -13c33 0 52 20 52 48zM50 293c0 31 13 57 40 76c27 20 59 30 96 30c72 0 129 -43 129 -106c0 -31 -15 -66 -39 -74c18 -3 34 -14 47 -35c14 -21 21 -42 21 -64c0 -38 -15 -68 -46 -91
c-30 -23 -67 -34 -112 -34s-82 11 -113 34s-46 53 -46 91c0 45 24 90 64 99c-24 12 -41 46 -41 74zM145 289c0 -21 16 -37 41 -37s40 16 40 37c0 17 -16 34 -40 34c-27 0 -41 -11 -41 -34z" />
    <glyph glyph-name="nine.dnom" horiz-adv-x="361" 
d="M222 266c0 24 -17 44 -48 44s-49 -20 -49 -44c0 -21 17 -42 49 -42c28 0 48 21 48 42zM149 142c-35 0 -124 23 -124 118c0 81 55 139 155 139c77 0 131 -53 146 -138c13 -60 4 -127 -17 -180c-20 -52 -75 -89 -148 -86c-61 3 -103 28 -127 77l78 39c9 -20 27 -30 52 -30
c52 0 71 52 74 104c-4 -19 -38 -43 -89 -43z" />
    <glyph glyph-name="l.alt1" horiz-adv-x="331" 
d="M277 151h45v-151h-45c-140 0 -224 80 -224 228v17v466h159v-466v-17c1 -51 26 -77 65 -77z" />
    <glyph glyph-name="a.alt1" horiz-adv-x="545" 
d="M236 99c39 0 80 26 93 65c-20 16 -48 24 -83 24c-44 0 -59 -24 -59 -45c0 -19 17 -44 49 -44zM141 300l-84 83c45 63 117 95 215 95c63 0 115 -17 156 -51c42 -33 63 -83 63 -150v-277h-159v50c-29 -39 -82 -59 -125 -59c-111 0 -179 54 -179 150c0 87 75 138 191 138
c45 0 82 -8 111 -25v14c0 45 -40 79 -83 79c-45 0 -81 -16 -106 -47z" />
    <glyph glyph-name="y.alt1" horiz-adv-x="510" 
d="M144 -29l30 78l-172 417h162l92 -239l93 239h162l-228 -554c-24 -55 -50 -93 -78 -115c-27 -23 -66 -34 -115 -34c-22 0 -47 5 -74 14v130c19 -5 40 -7 63 -7c12 0 22 4 31 12c17 15 19 23 34 59z" />
    <glyph glyph-name="lslash.alt1" horiz-adv-x="379" 
d="M324 151h45v-151h-45c-140 0 -224 80 -224 228v44l-86 -53v93l86 53v346h159v-247l98 61v-93l-98 -61v-143c1 -51 26 -77 65 -77z" />
    <glyph glyph-name="lacute.alt1" horiz-adv-x="330" 
d="M55 749l93 174h148l-138 -174h-103zM321 0h-45c-140 0 -224 80 -224 228v17v466h159v-466v-17c1 -51 26 -77 65 -77h45v-151z" />
    <glyph glyph-name="lcommaaccent.alt1" horiz-adv-x="330" 
d="M276 151h45v-151h-45c-140 0 -224 80 -224 228v17v466h159v-466v-17c1 -51 26 -77 65 -77zM178 -302l-72 42c23 31 39 62 48 91s14 67 15 113h128c-11 -107 -51 -189 -119 -246z" />
    <glyph glyph-name="lcaron.alt1" horiz-adv-x="330" 
d="M300 468l-62 38c22 32 38 63 47 92c10 29 15 67 16 113h116c-11 -106 -50 -187 -117 -243zM321 0h-45c-140 0 -224 80 -224 228v17v466h159v-466v-17c1 -51 26 -77 65 -77h45v-151z" />
    <glyph glyph-name="aacute.alt1" horiz-adv-x="545" 
d="M236 99c39 0 80 26 93 65c-20 16 -48 24 -83 24c-44 0 -59 -24 -59 -45c0 -19 17 -44 49 -44zM141 300l-84 83c45 63 117 95 215 95c63 0 115 -17 156 -51c42 -33 63 -83 63 -150v-277h-159v50c-29 -39 -82 -59 -125 -59c-111 0 -179 54 -179 150c0 87 75 138 191 138
c45 0 82 -8 111 -25v14c0 45 -40 79 -83 79c-45 0 -81 -16 -106 -47zM202 549l93 174h148l-138 -174h-103z" />
    <glyph glyph-name="agrave.alt1" horiz-adv-x="545" 
d="M236 99c39 0 80 26 93 65c-20 16 -48 24 -83 24c-44 0 -59 -24 -59 -45c0 -19 17 -44 49 -44zM141 300l-84 83c45 63 117 95 215 95c63 0 115 -17 156 -51c42 -33 63 -83 63 -150v-277h-159v50c-29 -39 -82 -59 -125 -59c-111 0 -179 54 -179 150c0 87 75 138 191 138
c45 0 82 -8 111 -25v14c0 45 -40 79 -83 79c-45 0 -81 -16 -106 -47zM237 549l-138 174h148l93 -174h-103z" />
    <glyph glyph-name="acircumflex.alt1" horiz-adv-x="545" 
d="M236 99c39 0 80 26 93 65c-20 16 -48 24 -83 24c-44 0 -59 -24 -59 -45c0 -19 17 -44 49 -44zM141 300l-84 83c45 63 117 95 215 95c63 0 115 -17 156 -51c42 -33 63 -83 63 -150v-277h-159v50c-29 -39 -82 -59 -125 -59c-111 0 -179 54 -179 150c0 87 75 138 191 138
c45 0 82 -8 111 -25v14c0 45 -40 79 -83 79c-45 0 -81 -16 -106 -47zM193 557h-107l109 173h156l110 -173h-108l-80 89z" />
    <glyph glyph-name="adieresis.alt1" horiz-adv-x="545" 
d="M236 99c39 0 80 26 93 65c-20 16 -48 24 -83 24c-44 0 -59 -24 -59 -45c0 -19 17 -44 49 -44zM141 300l-84 83c45 63 117 95 215 95c63 0 115 -17 156 -51c42 -33 63 -83 63 -150v-277h-159v50c-29 -39 -82 -59 -125 -59c-111 0 -179 54 -179 150c0 87 75 138 191 138
c45 0 82 -8 111 -25v14c0 45 -40 79 -83 79c-45 0 -81 -16 -106 -47zM104 641c0 40 34 72 77 72c41 0 75 -32 75 -72c0 -41 -32 -73 -75 -73s-77 32 -77 73zM292 641c0 40 35 72 78 72c41 0 74 -32 74 -72c0 -41 -33 -73 -74 -73c-43 0 -78 32 -78 73z" />
    <glyph glyph-name="atilde.alt1" horiz-adv-x="545" 
d="M236 99c39 0 80 26 93 65c-20 16 -48 24 -83 24c-44 0 -59 -24 -59 -45c0 -19 17 -44 49 -44zM141 300l-84 83c45 63 117 95 215 95c63 0 115 -17 156 -51c42 -33 63 -83 63 -150v-277h-159v50c-29 -39 -82 -59 -125 -59c-111 0 -179 54 -179 150c0 87 75 138 191 138
c45 0 82 -8 111 -25v14c0 45 -40 79 -83 79c-45 0 -81 -16 -106 -47zM233 597c-11 0 -25 -15 -26 -43h-75c4 89 52 130 101 130c15 0 32 -7 50 -21c18 -13 30 -20 37 -20c11 0 25 13 26 41h75c-4 -88 -52 -128 -101 -128c-15 0 -31 7 -50 20c-19 14 -31 21 -37 21z" />
    <glyph glyph-name="aring.alt1" horiz-adv-x="545" 
d="M236 99c39 0 80 26 93 65c-20 16 -48 24 -83 24c-44 0 -59 -24 -59 -45c0 -19 17 -44 49 -44zM141 300l-84 83c45 63 117 95 215 95c63 0 115 -17 156 -51c42 -33 63 -83 63 -150v-277h-159v50c-29 -39 -82 -59 -125 -59c-111 0 -179 54 -179 150c0 87 75 138 191 138
c45 0 82 -8 111 -25v14c0 45 -40 79 -83 79c-45 0 -81 -16 -106 -47zM143 673c0 36 12 66 36 91c25 25 55 38 90 38c36 0 66 -13 91 -38s37 -55 37 -91c0 -35 -12 -65 -37 -90s-55 -37 -91 -37c-35 0 -65 12 -90 37c-24 25 -36 55 -36 90zM205 673c0 -37 28 -65 64 -65
c37 0 67 28 67 65s-30 68 -67 68c-36 0 -64 -29 -64 -68z" />
    <glyph glyph-name="amacron.alt1" horiz-adv-x="545" 
d="M236 99c39 0 80 26 93 65c-20 16 -48 24 -83 24c-44 0 -59 -24 -59 -45c0 -19 17 -44 49 -44zM141 300l-84 83c45 63 117 95 215 95c63 0 115 -17 156 -51c42 -33 63 -83 63 -150v-277h-159v50c-29 -39 -82 -59 -125 -59c-111 0 -179 54 -179 150c0 87 75 138 191 138
c45 0 82 -8 111 -25v14c0 45 -40 79 -83 79c-45 0 -81 -16 -106 -47zM415 666v-87h-288v87h288z" />
    <glyph glyph-name="abreve.alt1" horiz-adv-x="545" 
d="M236 99c39 0 80 26 93 65c-20 16 -48 24 -83 24c-44 0 -59 -24 -59 -45c0 -19 17 -44 49 -44zM141 300l-84 83c45 63 117 95 215 95c63 0 115 -17 156 -51c42 -33 63 -83 63 -150v-277h-159v50c-29 -39 -82 -59 -125 -59c-111 0 -179 54 -179 150c0 87 75 138 191 138
c45 0 82 -8 111 -25v14c0 45 -40 79 -83 79c-45 0 -81 -16 -106 -47zM135 696h89c0 -35 12 -50 47 -50c30 0 45 17 45 50h91c0 -79 -56 -132 -136 -132c-87 0 -136 60 -136 132z" />
    <glyph glyph-name="aogonek.alt1" horiz-adv-x="545" 
d="M141 300l-84 83c45 63 117 95 215 95c63 0 115 -17 156 -51c42 -33 63 -83 63 -150v-277h-87l-44 -86c-9 -25 -5 -43 12 -54c15 -9 28 -7 41 5c10 10 14 25 12 44l70 4c3 -84 -48 -129 -109 -129c-28 0 -52 10 -73 31c-21 20 -31 45 -31 74c0 21 4 38 11 51l39 60v50
c-29 -39 -82 -59 -125 -59c-111 0 -179 54 -179 150c0 87 75 138 191 138c45 0 82 -8 111 -25v14c0 45 -40 79 -83 79c-45 0 -81 -16 -106 -47zM236 99c39 0 80 26 93 65c-20 16 -48 24 -83 24c-44 0 -59 -24 -59 -45c0 -19 17 -44 49 -44z" />
    <glyph glyph-name="yacute.alt1" horiz-adv-x="510" 
d="M207 549l93 174h148l-138 -174h-103zM174 49l-172 417h162l92 -239l93 239h162l-228 -554c-24 -55 -50 -93 -78 -115c-27 -23 -66 -34 -115 -34c-22 0 -47 5 -74 14v130c19 -5 40 -7 63 -7c24 0 42 19 49 34c3 7 9 19 16 37z" />
    <glyph glyph-name="ydieresis.alt1" horiz-adv-x="510" 
d="M85 641c0 40 34 72 77 72c41 0 75 -32 75 -72c0 -41 -32 -73 -75 -73s-77 32 -77 73zM273 641c0 40 35 72 78 72c41 0 74 -32 74 -72c0 -41 -33 -73 -74 -73c-43 0 -78 32 -78 73zM174 49l-172 417h162l92 -239l93 239h162l-228 -554c-24 -55 -50 -93 -78 -115
c-27 -23 -66 -34 -115 -34c-22 0 -47 5 -74 14v130c19 -5 40 -7 63 -7c24 0 42 19 49 34c3 7 9 19 16 37z" />
    <glyph glyph-name="ae.alt1" horiz-adv-x="857" 
d="M490 275h186c-6 45 -37 68 -93 68c-54 0 -85 -23 -93 -68zM223 -9c-119 0 -196 53 -196 149c0 85 75 137 191 137c51 0 88 -7 111 -20v23c0 39 -32 71 -83 71c-43 0 -79 -17 -106 -51l-84 83c45 63 117 95 215 95c66 0 118 -17 157 -51c44 34 96 51 157 51
c69 0 126 -22 172 -66c47 -43 70 -101 70 -172c0 -7 -1 -24 -3 -50h-334c5 -43 52 -68 107 -68c45 0 78 16 98 47l112 -74c-43 -72 -131 -104 -222 -104c-89 0 -157 34 -180 98c-20 -60 -95 -98 -182 -98zM240 104c44 0 73 21 88 63c-20 16 -48 24 -83 24
c-44 0 -59 -24 -59 -45c0 -17 21 -42 54 -42z" />
    <glyph glyph-name="aeacute.alt1" horiz-adv-x="857" 
d="M490 275h186c-6 45 -37 68 -93 68c-54 0 -85 -23 -93 -68zM223 -9c-119 0 -196 53 -196 149c0 85 75 137 191 137c51 0 88 -7 111 -20v23c0 39 -32 71 -83 71c-43 0 -79 -17 -106 -51l-84 83c45 63 117 95 215 95c66 0 118 -17 157 -51c44 34 96 51 157 51
c69 0 126 -22 172 -66c47 -43 70 -101 70 -172c0 -7 -1 -24 -3 -50h-334c5 -43 52 -68 107 -68c45 0 78 16 98 47l112 -74c-43 -72 -131 -104 -222 -104c-89 0 -157 34 -180 98c-20 -60 -95 -98 -182 -98zM240 104c44 0 73 21 88 63c-20 16 -48 24 -83 24
c-44 0 -59 -24 -59 -45c0 -17 21 -42 54 -42zM375 549l93 174h148l-138 -174h-103z" />
    <glyph glyph-name="ycircumflex.alt1" horiz-adv-x="510" 
d="M144 -29l30 78l-172 417h162l92 -239l93 239h162l-228 -554c-24 -55 -50 -93 -78 -115c-27 -23 -66 -34 -115 -34c-22 0 -47 5 -74 14v130c19 -5 40 -7 63 -7c12 0 22 4 31 12c17 15 19 23 34 59zM176 557h-107l109 173h156l110 -173h-108l-80 89z" />
    <glyph glyph-name="ldot.alt1" horiz-adv-x="467" 
d="M276 151h45v-151h-45c-140 0 -224 80 -224 228v17v466h159v-466v-17c1 -51 26 -77 65 -77zM265 296c0 52 42 91 94 91s95 -39 95 -91c0 -53 -43 -92 -95 -92c-53 0 -94 39 -94 92z" />
    <glyph glyph-name="t.alt1" horiz-adv-x="405" 
d="M327 151h33v-151h-53c-72 0 -124 14 -156 41s-48 77 -48 150v158h-84v117h84v92l159 48v-140h97v-117h-97v-141c1 -48 21 -57 65 -57z" />
    <glyph glyph-name="tcaron.alt1" horiz-adv-x="405" 
d="M375 523l-62 38c22 32 38 63 47 92c10 29 15 67 16 113h116c-11 -106 -50 -187 -117 -243zM360 0h-53c-72 0 -124 14 -156 41s-48 77 -48 150v158h-84v117h84v92l159 48v-140h97v-117h-97v-141c4 -52 25 -58 65 -57h33v-151z" />
    <glyph glyph-name="tbar.alt1" horiz-adv-x="406" 
d="M328 151h33v-151h-53c-72 0 -124 14 -156 41s-48 77 -48 150v29h-52v72h52v57h-84v117h84v92l159 48v-140h97v-117h-97v-57h60v-72h-60v-12c1 -48 21 -57 65 -57z" />
    <glyph glyph-name="tcommaaccent.alt1" horiz-adv-x="406" 
d="M328 151h33v-151h-53c-72 0 -124 14 -156 41s-48 77 -48 150v158h-84v117h84v92l159 48v-140h97v-117h-97v-141c1 -48 21 -57 65 -57zM229 -302l-72 42c23 31 39 62 48 91s14 67 15 113h128c-11 -107 -51 -189 -119 -246z" />
    <glyph glyph-name="T.sc.alt1" horiz-adv-x="480" 
d="M315 0h-150v458h-150v132h450v-132h-150v-458z" />
    <glyph glyph-name="Tcaron.sc.alt1" horiz-adv-x="480" 
d="M303 788h99l-97 -153h-140l-95 153h97l68 -77zM315 0h-150v458h-150v132h450v-132h-150v-458z" />
    <glyph glyph-name="Tbar.sc.alt1" horiz-adv-x="482" 
d="M166 0v235h-104v83h104v140h-150v132h450v-132h-150v-140h100v-83h-100v-235h-150z" />
    <glyph glyph-name="Tcommaaccent.sc.alt1" horiz-adv-x="480" 
d="M315 0h-150v458h-150v132h450v-132h-150v-458zM182 -266l-68 42c41 57 61 113 61 166h118c0 -75 -37 -145 -111 -208z" />
    <glyph glyph-name="aringacute.alt1" horiz-adv-x="545" 
d="M224 792l77 144h148l-118 -148c43 -21 70 -64 70 -115c0 -35 -12 -65 -37 -90s-55 -37 -91 -37c-35 0 -65 12 -90 37c-24 25 -36 55 -36 90c0 53 30 99 77 119zM209 673c0 -37 28 -65 64 -65c37 0 67 28 67 65s-30 68 -67 68c-36 0 -64 -29 -64 -68zM236 99
c39 0 80 26 93 65c-20 16 -48 24 -83 24c-44 0 -59 -24 -59 -45c0 -19 17 -44 49 -44zM141 300l-84 83c45 63 117 95 215 95c63 0 115 -17 156 -51c42 -33 63 -83 63 -150v-277h-159v50c-29 -39 -82 -59 -125 -59c-111 0 -179 54 -179 150c0 87 75 138 191 138
c45 0 82 -8 111 -25v14c0 45 -40 79 -83 79c-45 0 -81 -16 -106 -47z" />
    </font>
</defs>
</svg>
