<?xml version="1.0" encoding="utf-8"?>
<!-- Generator: Adobe Illustrator 16.0.0, SVG Export Plug-In . SVG Version: 6.00 Build 0)  -->
<!DOCTYPE svg PUBLIC "-//W3C//DTD SVG 1.1//EN" "http://www.w3.org/Graphics/SVG/1.1/DTD/svg11.dtd">
<svg version="1.1" id="Layer_1" xmlns="http://www.w3.org/2000/svg" xmlns:xlink="http://www.w3.org/1999/xlink" x="0px" y="0px"
	 width="26px" height="26px" viewBox="0 0 26 26" enable-background="new 0 0 26 26" xml:space="preserve">
<g>
	<path d="M13,2.481c5.801,0,10.519,4.72,10.519,10.519c0,5.8-4.718,10.519-10.519,10.519C7.2,23.519,2.481,18.8,2.481,13
		C2.481,7.201,7.2,2.481,13,2.481 M13,0.979C6.361,0.979,0.979,6.36,0.979,13c0,6.638,5.382,12.021,12.021,12.021
		c6.64,0,12.021-5.384,12.021-12.021C25.021,6.36,19.64,0.979,13,0.979L13,0.979z M19.702,17.021l-0.068-0.207
		c-0.157-0.472-0.679-0.964-1.159-1.097l-1.78-0.485c-0.481-0.131-1.167,0.045-1.52,0.398l-0.644,0.643
		c-2.336-0.634-4.169-2.466-4.8-4.801l0.642-0.643c0.352-0.353,0.529-1.041,0.398-1.522l-0.485-1.777
		C10.157,7.047,9.66,6.525,9.188,6.368L8.985,6.3c-0.474-0.159-1.15,0.001-1.502,0.355L6.52,7.618
		c-0.172,0.169-0.282,0.658-0.282,0.66c-0.031,3.056,1.167,5.997,3.327,8.158c2.153,2.154,5.085,3.352,8.131,3.325
		c0.015,0,0.519-0.108,0.689-0.28l0.963-0.96C19.7,18.168,19.858,17.492,19.702,17.021z"/>
</g>
</svg>
