<?xml version="1.0" encoding="utf-8"?>
<!-- Generator: Adobe Illustrator 16.0.0, SVG Export Plug-In . SVG Version: 6.00 Build 0)  -->
<!DOCTYPE svg PUBLIC "-//W3C//DTD SVG 1.1//EN" "http://www.w3.org/Graphics/SVG/1.1/DTD/svg11.dtd">
<svg version="1.1" id="Layer_1" xmlns="http://www.w3.org/2000/svg" xmlns:xlink="http://www.w3.org/1999/xlink" x="0px" y="0px"
	 width="12px" height="12px" viewBox="0 0 12 12" enable-background="new 0 0 12 12" xml:space="preserve">
<g>
	<path fill="#FFDA44" d="M6,0.357c-3.067,0-5.562,2.496-5.562,5.563c0,3.066,2.495,5.563,5.562,5.563s5.563-2.496,5.563-5.563
		C11.563,2.853,9.067,0.357,6,0.357z M4.283,7.048c0.091-0.279-0.009-0.583-0.246-0.757L1.901,4.74h2.64
		c0.294,0,0.553-0.189,0.644-0.469L6,1.762l0.815,2.509C6.907,4.551,7.165,4.74,7.46,4.74h2.639l-2.134,1.55
		C7.726,6.464,7.627,6.769,7.718,7.048l0.816,2.511L6.398,8.007C6.281,7.922,6.145,7.879,6,7.879c-0.144,0-0.281,0.043-0.397,0.128
		L3.467,9.559L4.283,7.048z"/>
</g>
</svg>
